<?xml version="1.0" encoding="UTF-8" standalone="no"?>
<!DOCTYPE svg PUBLIC "-//W3C//DTD SVG 1.1//EN"
 "http://www.w3.org/Graphics/SVG/1.1/DTD/svg11.dtd">
<!-- Generated by graphviz version 2.38.0 (20140413.2041)
 -->
<!-- Title: de.tu_clausthal.in.bachelorproject2018.ticktacktoe.model.player.CHuman Pages: 1 -->
<svg width="662pt" height="336pt"
 viewBox="0.00 0.00 662.00 336.00" xmlns="http://www.w3.org/2000/svg" xmlns:xlink="http://www.w3.org/1999/xlink">
<g id="graph0" class="graph" transform="scale(1 1) rotate(0) translate(4 332)">
<title>de.tu_clausthal.in.bachelorproject2018.ticktacktoe.model.player.CHuman</title>
<!-- Node3 -->
<g id="node1" class="node"><title>Node3</title>
<polygon fill="#bfbfbf" stroke="black" points="168,-0.5 168,-84.5 490,-84.5 490,-0.5 168,-0.5"/>
<text text-anchor="start" x="176" y="-73.3" font-family="Helvetica,sans-Serif" font-size="9.00">de.tu_clausthal.in.bachelorproject2018.ticktacktoe.model.player.</text>
<text text-anchor="middle" x="329" y="-63.3" font-family="Helvetica,sans-Serif" font-size="9.00">CHuman</text>
<polyline fill="none" stroke="black" points="168,-56.5 490,-56.5 "/>
<text text-anchor="middle" x="329" y="-45.3" font-family="Helvetica,sans-Serif" font-size="9.00"> </text>
<polyline fill="none" stroke="black" points="168,-38.5 490,-38.5 "/>
<text text-anchor="start" x="176" y="-27.3" font-family="Helvetica,sans-Serif" font-size="9.00">+ CHuman()</text>
<text text-anchor="start" x="176" y="-17.3" font-family="Helvetica,sans-Serif" font-size="9.00">+ accept()</text>
<text text-anchor="start" x="176" y="-7.3" font-family="Helvetica,sans-Serif" font-size="9.00">+ accept()</text>
</g>
<!-- Node4 -->
<g id="node2" class="node"><title>Node4</title>
<g id="a_node2"><a xlink:href="../../df/dec/classde_1_1tu__clausthal_1_1in_1_1bachelorproject2018_1_1ticktacktoe_1_1model_1_1player_1_1IBasePlayer.htm" target="_top" xlink:title="abstrakte Klasse eines Spielers, der den Namen und das Item, das er setzen kann enthält ...">
<polygon fill="none" stroke="black" points="168,-122.5 168,-216.5 490,-216.5 490,-122.5 168,-122.5"/>
<text text-anchor="start" x="176" y="-205.3" font-family="Helvetica,sans-Serif" font-size="9.00">de.tu_clausthal.in.bachelorproject2018.ticktacktoe.model.player.</text>
<text text-anchor="middle" x="329" y="-195.3" font-family="Helvetica,sans-Serif" font-size="9.00">IBasePlayer</text>
<polyline fill="none" stroke="black" points="168,-188.5 490,-188.5 "/>
<text text-anchor="start" x="176" y="-177.3" font-family="Helvetica,sans-Serif" font-size="9.00">&#45; m_name</text>
<polyline fill="none" stroke="black" points="168,-170.5 490,-170.5 "/>
<text text-anchor="start" x="176" y="-159.3" font-family="Helvetica,sans-Serif" font-size="9.00">+ equals()</text>
<text text-anchor="start" x="176" y="-149.3" font-family="Helvetica,sans-Serif" font-size="9.00">+ hashCode()</text>
<text text-anchor="start" x="176" y="-139.3" font-family="Helvetica,sans-Serif" font-size="9.00">+ name()</text>
<text text-anchor="start" x="176" y="-129.3" font-family="Helvetica,sans-Serif" font-size="9.00"># IBasePlayer()</text>
</a>
</g>
</g>
<!-- Node4&#45;&gt;Node3 -->
<g id="edge1" class="edge"><title>Node4&#45;&gt;Node3</title>
<path fill="none" stroke="midnightblue" d="M329,-112.291C329,-102.952 329,-93.4244 329,-84.5527"/>
<polygon fill="none" stroke="midnightblue" points="325.5,-112.31 329,-122.31 332.5,-112.31 325.5,-112.31"/>
</g>
<!-- Node5 -->
<g id="node3" class="node"><title>Node5</title>
<g id="a_node3"><a xlink:href="../../dc/d5f/interfacede_1_1tu__clausthal_1_1in_1_1bachelorproject2018_1_1ticktacktoe_1_1model_1_1player_1_1IPlayer.htm" target="_top" xlink:title="Interface für einen Spieler (Bot oder Mensch). ">
<polygon fill="none" stroke="black" points="0,-263.5 0,-327.5 322,-327.5 322,-263.5 0,-263.5"/>
<text text-anchor="start" x="8" y="-316.3" font-family="Helvetica,sans-Serif" font-size="9.00">de.tu_clausthal.in.bachelorproject2018.ticktacktoe.model.player.</text>
<text text-anchor="middle" x="161" y="-306.3" font-family="Helvetica,sans-Serif" font-size="9.00">IPlayer</text>
<polyline fill="none" stroke="black" points="0,-299.5 322,-299.5 "/>
<text text-anchor="middle" x="161" y="-288.3" font-family="Helvetica,sans-Serif" font-size="9.00"> </text>
<polyline fill="none" stroke="black" points="0,-281.5 322,-281.5 "/>
<text text-anchor="start" x="8" y="-270.3" font-family="Helvetica,sans-Serif" font-size="9.00">+ name()</text>
</a>
</g>
</g>
<!-- Node5&#45;&gt;Node4 -->
<g id="edge2" class="edge"><title>Node5&#45;&gt;Node4</title>
<path fill="none" stroke="midnightblue" d="M211.685,-257.09C228.975,-244.328 248.513,-229.907 266.615,-216.546"/>
<polygon fill="none" stroke="midnightblue" points="209.361,-254.455 203.393,-263.21 213.518,-260.087 209.361,-254.455"/>
</g>
<!-- Node6 -->
<g id="node4" class="node"><title>Node6</title>
<g id="a_node4"><a xlink:href="../../dc/de8/enumde_1_1tu__clausthal_1_1in_1_1bachelorproject2018_1_1ticktacktoe_1_1model_1_1item_1_1EItem.htm" target="_top" xlink:title="Factory für ein Item (Kreuz / Kreis Objekt). ">
<polygon fill="none" stroke="black" points="340,-263.5 340,-327.5 654,-327.5 654,-263.5 340,-263.5"/>
<text text-anchor="start" x="348" y="-316.3" font-family="Helvetica,sans-Serif" font-size="9.00">de.tu_clausthal.in.bachelorproject2018.ticktacktoe.model.item.</text>
<text text-anchor="middle" x="497" y="-306.3" font-family="Helvetica,sans-Serif" font-size="9.00">EItem</text>
<polyline fill="none" stroke="black" points="340,-299.5 654,-299.5 "/>
<text text-anchor="start" x="348" y="-288.3" font-family="Helvetica,sans-Serif" font-size="9.00">+ KREIS</text>
<polyline fill="none" stroke="black" points="340,-281.5 654,-281.5 "/>
<text text-anchor="start" x="348" y="-270.3" font-family="Helvetica,sans-Serif" font-size="9.00">+ apply()</text>
</a>
</g>
</g>
<!-- Node6&#45;&gt;Node4 -->
<g id="edge3" class="edge"><title>Node6&#45;&gt;Node4</title>
<path fill="none" stroke="#404040" d="M454.607,-263.21C438.375,-251.229 419.369,-237.201 401.127,-223.736"/>
<polygon fill="none" stroke="#404040" points="401.04,-223.673 393.837,-223.328 391.385,-216.546 398.588,-216.891 401.04,-223.673"/>
<text text-anchor="middle" x="453.5" y="-237.8" font-family="Helvetica,sans-Serif" font-size="9.00"> #m_value</text>
</g>
</g>
</svg>
