<?xml version="1.0" encoding="UTF-8" standalone="no"?>
<!DOCTYPE svg PUBLIC "-//W3C//DTD SVG 1.1//EN"
 "http://www.w3.org/Graphics/SVG/1.1/DTD/svg11.dtd">
<!-- Generated by graphviz version 2.38.0 (20140413.2041)
 -->
<!-- Title: de.tu_clausthal.in.bachelorproject2018.ticktacktoe.model.item.EItem.apply Pages: 1 -->
<svg width="1381pt" height="149pt"
 viewBox="0.00 0.00 1381.00 149.27" xmlns="http://www.w3.org/2000/svg" xmlns:xlink="http://www.w3.org/1999/xlink">
<g id="graph0" class="graph" transform="scale(1 1) rotate(0) translate(4 145.27)">
<title>de.tu_clausthal.in.bachelorproject2018.ticktacktoe.model.item.EItem.apply</title>
<!-- Node1 -->
<g id="node1" class="node"><title>Node1</title>
<polygon fill="#bfbfbf" stroke="black" points="0,-65.7696 0,-93.7696 314,-93.7696 314,-65.7696 0,-65.7696"/>
<text text-anchor="start" x="8" y="-82.5696" font-family="Helvetica,sans-Serif" font-size="9.00">de.tu_clausthal.in.bachelorproject2018.ticktacktoe.model.item.</text>
<text text-anchor="middle" x="157" y="-72.5696" font-family="Helvetica,sans-Serif" font-size="9.00">EItem.apply</text>
</g>
<!-- Node2 -->
<g id="node2" class="node"><title>Node2</title>
<g id="a_node2"><a xlink:href="../../d3/d72/classde_1_1tu__clausthal_1_1in_1_1bachelorproject2018_1_1ticktacktoe_1_1model_1_1player_1_1CHuman.htm#a226239a089a34d940ad86f5ac7f6e80b" target="_top" xlink:title="de.tu_clausthal.in.bachelorproject2018.ticktacktoe.model.player.\lCHuman.accept">
<polygon fill="none" stroke="black" points="350,-112.77 350,-140.77 672,-140.77 672,-112.77 350,-112.77"/>
<text text-anchor="start" x="358" y="-129.57" font-family="Helvetica,sans-Serif" font-size="9.00">de.tu_clausthal.in.bachelorproject2018.ticktacktoe.model.player.</text>
<text text-anchor="middle" x="511" y="-119.57" font-family="Helvetica,sans-Serif" font-size="9.00">CHuman.accept</text>
</a>
</g>
</g>
<!-- Node1&#45;&gt;Node2 -->
<g id="edge1" class="edge"><title>Node1&#45;&gt;Node2</title>
<path fill="none" stroke="midnightblue" d="M273.242,-95.157C315.722,-100.829 363.585,-107.22 405.103,-112.763"/>
<polygon fill="midnightblue" stroke="midnightblue" points="273.51,-91.6618 263.135,-93.8075 272.584,-98.6003 273.51,-91.6618"/>
</g>
<!-- Node3 -->
<g id="node3" class="node"><title>Node3</title>
<g id="a_node3"><a xlink:href="../../d0/d60/classde_1_1tu__clausthal_1_1in_1_1bachelorproject2018_1_1ticktacktoe_1_1model_1_1player_1_1CRandomBot.htm#a68e29b68b4e55525001175a7537628ad" target="_top" xlink:title="de.tu_clausthal.in.bachelorproject2018.ticktacktoe.model.player.\lCRandomBot.accept">
<polygon fill="none" stroke="black" points="350,-65.7696 350,-93.7696 672,-93.7696 672,-65.7696 350,-65.7696"/>
<text text-anchor="start" x="358" y="-82.5696" font-family="Helvetica,sans-Serif" font-size="9.00">de.tu_clausthal.in.bachelorproject2018.ticktacktoe.model.player.</text>
<text text-anchor="middle" x="511" y="-72.5696" font-family="Helvetica,sans-Serif" font-size="9.00">CRandomBot.accept</text>
</a>
</g>
</g>
<!-- Node1&#45;&gt;Node3 -->
<g id="edge2" class="edge"><title>Node1&#45;&gt;Node3</title>
<path fill="none" stroke="midnightblue" d="M324.21,-79.7696C332.765,-79.7696 341.352,-79.7696 349.888,-79.7696"/>
<polygon fill="midnightblue" stroke="midnightblue" points="324.186,-76.2697 314.186,-79.7696 324.186,-83.2697 324.186,-76.2697"/>
</g>
<!-- Node7 -->
<g id="node7" class="node"><title>Node7</title>
<g id="a_node7"><a xlink:href="../../d2/d76/classde_1_1tu__clausthal_1_1in_1_1bachelorproject2018_1_1ticktacktoe_1_1model_1_1player_1_1CMinMaxBot.htm#aa2c4f55ddf22413c3dc42d47df3891af" target="_top" xlink:title="de.tu_clausthal.in.bachelorproject2018.ticktacktoe.model.player.\lCMinMaxBot.accept">
<polygon fill="none" stroke="black" points="350,-18.7696 350,-46.7696 672,-46.7696 672,-18.7696 350,-18.7696"/>
<text text-anchor="start" x="358" y="-35.5696" font-family="Helvetica,sans-Serif" font-size="9.00">de.tu_clausthal.in.bachelorproject2018.ticktacktoe.model.player.</text>
<text text-anchor="middle" x="511" y="-25.5696" font-family="Helvetica,sans-Serif" font-size="9.00">CMinMaxBot.accept</text>
</a>
</g>
</g>
<!-- Node1&#45;&gt;Node7 -->
<g id="edge8" class="edge"><title>Node1&#45;&gt;Node7</title>
<path fill="none" stroke="midnightblue" d="M273.242,-64.3822C315.722,-58.7101 363.585,-52.3193 405.103,-46.7757"/>
<polygon fill="midnightblue" stroke="midnightblue" points="272.584,-60.9389 263.135,-65.7317 273.51,-67.8774 272.584,-60.9389"/>
</g>
<!-- Node4 -->
<g id="node4" class="node"><title>Node4</title>
<g id="a_node4"><a xlink:href="../../d5/d40/classde_1_1tu__clausthal_1_1in_1_1bachelorproject2018_1_1ticktacktoe_1_1model_1_1player_1_1CHardBot.htm#abf6ed3b27a4b8aeb27485a3c3c064528" target="_top" xlink:title="de.tu_clausthal.in.bachelorproject2018.ticktacktoe.model.player.\lCHardBot.accept">
<polygon fill="none" stroke="black" points="708,-65.7696 708,-93.7696 1030,-93.7696 1030,-65.7696 708,-65.7696"/>
<text text-anchor="start" x="716" y="-82.5696" font-family="Helvetica,sans-Serif" font-size="9.00">de.tu_clausthal.in.bachelorproject2018.ticktacktoe.model.player.</text>
<text text-anchor="middle" x="869" y="-72.5696" font-family="Helvetica,sans-Serif" font-size="9.00">CHardBot.accept</text>
</a>
</g>
</g>
<!-- Node3&#45;&gt;Node4 -->
<g id="edge3" class="edge"><title>Node3&#45;&gt;Node4</title>
<path fill="none" stroke="midnightblue" d="M682.109,-79.7696C690.703,-79.7696 699.321,-79.7696 707.884,-79.7696"/>
<polygon fill="midnightblue" stroke="midnightblue" points="682.036,-76.2697 672.036,-79.7696 682.036,-83.2697 682.036,-76.2697"/>
</g>
<!-- Node5 -->
<g id="node5" class="node"><title>Node5</title>
<g id="a_node5"><a xlink:href="../../d8/d52/classde_1_1tu__clausthal_1_1in_1_1bachelorproject2018_1_1ticktacktoe_1_1controller_1_1CSpielebrettController.htm#a9566e9c3e6da6ec5f9eb5b89a2a1b2b2" target="_top" xlink:title="de.tu_clausthal.in.bachelorproject2018.ticktacktoe.controller.\lCSpielebrettController.set">
<polygon fill="none" stroke="black" points="1066,-41.7696 1066,-69.7696 1373,-69.7696 1373,-41.7696 1066,-41.7696"/>
<text text-anchor="start" x="1074" y="-58.5696" font-family="Helvetica,sans-Serif" font-size="9.00">de.tu_clausthal.in.bachelorproject2018.ticktacktoe.controller.</text>
<text text-anchor="middle" x="1219.5" y="-48.5696" font-family="Helvetica,sans-Serif" font-size="9.00">CSpielebrettController.set</text>
</a>
</g>
</g>
<!-- Node3&#45;&gt;Node5 -->
<g id="edge7" class="edge"><title>Node3&#45;&gt;Node5</title>
<path fill="none" stroke="midnightblue" d="M616.386,-95.0162C721.292,-107.897 887.431,-121.637 1030,-103.77 1081.1,-97.3657 1138.21,-81.5581 1176.04,-69.8229"/>
<polygon fill="midnightblue" stroke="midnightblue" points="616.785,-91.5389 606.428,-93.7735 615.918,-98.485 616.785,-91.5389"/>
</g>
<!-- Node6 -->
<g id="node6" class="node"><title>Node6</title>
<g id="a_node6"><a xlink:href="../../de/d85/classde_1_1tu__clausthal_1_1in_1_1bachelorproject2018_1_1ticktacktoe_1_1model_1_1player_1_1CMediumBot.htm#a8b431ea082074110bef61bf64cbd154e" target="_top" xlink:title="de.tu_clausthal.in.bachelorproject2018.ticktacktoe.model.player.\lCMediumBot.accept">
<polygon fill="none" stroke="black" points="708,-18.7696 708,-46.7696 1030,-46.7696 1030,-18.7696 708,-18.7696"/>
<text text-anchor="start" x="716" y="-35.5696" font-family="Helvetica,sans-Serif" font-size="9.00">de.tu_clausthal.in.bachelorproject2018.ticktacktoe.model.player.</text>
<text text-anchor="middle" x="869" y="-25.5696" font-family="Helvetica,sans-Serif" font-size="9.00">CMediumBot.accept</text>
</a>
</g>
</g>
<!-- Node3&#45;&gt;Node6 -->
<g id="edge5" class="edge"><title>Node3&#45;&gt;Node6</title>
<path fill="none" stroke="midnightblue" d="M628.279,-64.4181C671.31,-58.7371 719.833,-52.331 761.911,-46.7757"/>
<polygon fill="midnightblue" stroke="midnightblue" points="627.785,-60.9529 618.33,-65.7317 628.702,-67.8926 627.785,-60.9529"/>
</g>
<!-- Node4&#45;&gt;Node5 -->
<g id="edge4" class="edge"><title>Node4&#45;&gt;Node5</title>
<path fill="none" stroke="midnightblue" d="M1040.27,-68.0435C1048.84,-67.4535 1057.42,-66.8625 1065.93,-66.2764"/>
<polygon fill="midnightblue" stroke="midnightblue" points="1039.96,-64.5566 1030.22,-68.7355 1040.44,-71.5401 1039.96,-64.5566"/>
</g>
<!-- Node6&#45;&gt;Node5 -->
<g id="edge6" class="edge"><title>Node6&#45;&gt;Node5</title>
<path fill="none" stroke="midnightblue" d="M1040.27,-44.0071C1048.84,-44.5726 1057.42,-45.1389 1065.93,-45.7006"/>
<polygon fill="midnightblue" stroke="midnightblue" points="1040.43,-40.5102 1030.22,-43.344 1039.97,-47.495 1040.43,-40.5102"/>
</g>
<!-- Node7&#45;&gt;Node4 -->
<g id="edge9" class="edge"><title>Node7&#45;&gt;Node4</title>
<path fill="none" stroke="midnightblue" d="M628.279,-48.1211C671.31,-53.8021 719.833,-60.2082 761.911,-65.7635"/>
<polygon fill="midnightblue" stroke="midnightblue" points="628.702,-44.6465 618.33,-46.8075 627.785,-51.5863 628.702,-44.6465"/>
</g>
<!-- Node7&#45;&gt;Node5 -->
<g id="edge11" class="edge"><title>Node7&#45;&gt;Node5</title>
<path fill="none" stroke="midnightblue" d="M617.804,-17.4999C722.771,-4.7863 888.036,8.66202 1030,-8.7696 1080.55,-14.9765 1137.05,-30.2132 1174.89,-41.6679"/>
<polygon fill="midnightblue" stroke="midnightblue" points="617.334,-14.0312 607.837,-18.7268 618.19,-20.9787 617.334,-14.0312"/>
</g>
<!-- Node7&#45;&gt;Node6 -->
<g id="edge10" class="edge"><title>Node7&#45;&gt;Node6</title>
<path fill="none" stroke="midnightblue" d="M682.109,-32.7696C690.703,-32.7696 699.321,-32.7696 707.884,-32.7696"/>
<polygon fill="midnightblue" stroke="midnightblue" points="682.036,-29.2697 672.036,-32.7696 682.036,-36.2697 682.036,-29.2697"/>
</g>
</g>
</svg>
