<?xml version="1.0" encoding="UTF-8" standalone="no"?>
<!DOCTYPE svg PUBLIC "-//W3C//DTD SVG 1.1//EN"
 "http://www.w3.org/Graphics/SVG/1.1/DTD/svg11.dtd">
<!-- Generated by graphviz version 2.38.0 (20140413.2041)
 -->
<!-- Title: de.tu_clausthal.in.bachelorproject2018.ticktacktoe.model.player.IBasePlayer.equals Pages: 1 -->
<svg width="1046pt" height="37pt"
 viewBox="0.00 0.00 1046.00 37.00" xmlns="http://www.w3.org/2000/svg" xmlns:xlink="http://www.w3.org/1999/xlink">
<g id="graph0" class="graph" transform="scale(1 1) rotate(0) translate(4 33)">
<title>de.tu_clausthal.in.bachelorproject2018.ticktacktoe.model.player.IBasePlayer.equals</title>
<!-- Node2 -->
<g id="node1" class="node"><title>Node2</title>
<polygon fill="#bfbfbf" stroke="black" points="0,-0.5 0,-28.5 322,-28.5 322,-0.5 0,-0.5"/>
<text text-anchor="start" x="8" y="-17.3" font-family="Helvetica,sans-Serif" font-size="9.00">de.tu_clausthal.in.bachelorproject2018.ticktacktoe.model.player.</text>
<text text-anchor="middle" x="161" y="-7.3" font-family="Helvetica,sans-Serif" font-size="9.00">IBasePlayer.equals</text>
</g>
<!-- Node3 -->
<g id="node2" class="node"><title>Node3</title>
<g id="a_node2"><a xlink:href="../../df/dec/classde_1_1tu__clausthal_1_1in_1_1bachelorproject2018_1_1ticktacktoe_1_1model_1_1player_1_1IBasePlayer.htm#a5bdb3d46e42f714b0adadd2cfc35896a" target="_top" xlink:title="de.tu_clausthal.in.bachelorproject2018.ticktacktoe.model.player.\lIBasePlayer.hashCode">
<polygon fill="none" stroke="black" points="358,-0.5 358,-28.5 680,-28.5 680,-0.5 358,-0.5"/>
<text text-anchor="start" x="366" y="-17.3" font-family="Helvetica,sans-Serif" font-size="9.00">de.tu_clausthal.in.bachelorproject2018.ticktacktoe.model.player.</text>
<text text-anchor="middle" x="519" y="-7.3" font-family="Helvetica,sans-Serif" font-size="9.00">IBasePlayer.hashCode</text>
</a>
</g>
</g>
<!-- Node2&#45;&gt;Node3 -->
<g id="edge1" class="edge"><title>Node2&#45;&gt;Node3</title>
<path fill="none" stroke="midnightblue" d="M322.036,-14.5C330.599,-14.5 339.217,-14.5 347.811,-14.5"/>
<polygon fill="midnightblue" stroke="midnightblue" points="347.884,-18.0001 357.884,-14.5 347.884,-11.0001 347.884,-18.0001"/>
</g>
<!-- Node4 -->
<g id="node3" class="node"><title>Node4</title>
<g id="a_node3"><a xlink:href="../../df/dec/classde_1_1tu__clausthal_1_1in_1_1bachelorproject2018_1_1ticktacktoe_1_1model_1_1player_1_1IBasePlayer.htm#a7e56d1f686c59a1cc5129cbce9c3d278" target="_top" xlink:title="liefert den Namen des Spielers ">
<polygon fill="none" stroke="black" points="716,-0.5 716,-28.5 1038,-28.5 1038,-0.5 716,-0.5"/>
<text text-anchor="start" x="724" y="-17.3" font-family="Helvetica,sans-Serif" font-size="9.00">de.tu_clausthal.in.bachelorproject2018.ticktacktoe.model.player.</text>
<text text-anchor="middle" x="877" y="-7.3" font-family="Helvetica,sans-Serif" font-size="9.00">IBasePlayer.name</text>
</a>
</g>
</g>
<!-- Node3&#45;&gt;Node4 -->
<g id="edge2" class="edge"><title>Node3&#45;&gt;Node4</title>
<path fill="none" stroke="midnightblue" d="M680.036,-14.5C688.599,-14.5 697.217,-14.5 705.811,-14.5"/>
<polygon fill="midnightblue" stroke="midnightblue" points="705.884,-18.0001 715.884,-14.5 705.884,-11.0001 705.884,-18.0001"/>
</g>
</g>
</svg>
