<?xml version="1.0" encoding="UTF-8" standalone="no"?>
<!DOCTYPE svg PUBLIC "-//W3C//DTD SVG 1.1//EN"
 "http://www.w3.org/Graphics/SVG/1.1/DTD/svg11.dtd">
<!-- Generated by graphviz version 2.38.0 (20140413.2041)
 -->
<!-- Title: de.tu_clausthal.in.bachelorproject2018.ticktacktoe.model.player.CMinMaxBot.minimax Pages: 1 -->
<svg width="1389pt" height="123pt"
 viewBox="0.00 0.00 1389.00 123.00" xmlns="http://www.w3.org/2000/svg" xmlns:xlink="http://www.w3.org/1999/xlink">
<g id="graph0" class="graph" transform="scale(1 1) rotate(0) translate(4 119)">
<title>de.tu_clausthal.in.bachelorproject2018.ticktacktoe.model.player.CMinMaxBot.minimax</title>
<!-- Node42 -->
<g id="node1" class="node"><title>Node42</title>
<polygon fill="#bfbfbf" stroke="black" points="0,-43.5 0,-71.5 322,-71.5 322,-43.5 0,-43.5"/>
<text text-anchor="start" x="8" y="-60.3" font-family="Helvetica,sans-Serif" font-size="9.00">de.tu_clausthal.in.bachelorproject2018.ticktacktoe.model.player.</text>
<text text-anchor="middle" x="161" y="-50.3" font-family="Helvetica,sans-Serif" font-size="9.00">CMinMaxBot.minimax</text>
</g>
<!-- Node43 -->
<g id="node2" class="node"><title>Node43</title>
<g id="a_node2"><a xlink:href="../../d2/d76/classde_1_1tu__clausthal_1_1in_1_1bachelorproject2018_1_1ticktacktoe_1_1model_1_1player_1_1CMinMaxBot.htm#aa2c4f55ddf22413c3dc42d47df3891af" target="_top" xlink:title="de.tu_clausthal.in.bachelorproject2018.ticktacktoe.model.player.\lCMinMaxBot.accept">
<polygon fill="none" stroke="black" points="358,-43.5 358,-71.5 680,-71.5 680,-43.5 358,-43.5"/>
<text text-anchor="start" x="366" y="-60.3" font-family="Helvetica,sans-Serif" font-size="9.00">de.tu_clausthal.in.bachelorproject2018.ticktacktoe.model.player.</text>
<text text-anchor="middle" x="519" y="-50.3" font-family="Helvetica,sans-Serif" font-size="9.00">CMinMaxBot.accept</text>
</a>
</g>
</g>
<!-- Node42&#45;&gt;Node43 -->
<g id="edge1" class="edge"><title>Node42&#45;&gt;Node43</title>
<path fill="none" stroke="midnightblue" d="M332.109,-57.5C340.703,-57.5 349.321,-57.5 357.884,-57.5"/>
<polygon fill="midnightblue" stroke="midnightblue" points="332.036,-54.0001 322.036,-57.5 332.036,-61.0001 332.036,-54.0001"/>
</g>
<!-- Node44 -->
<g id="node3" class="node"><title>Node44</title>
<g id="a_node3"><a xlink:href="../../d5/d40/classde_1_1tu__clausthal_1_1in_1_1bachelorproject2018_1_1ticktacktoe_1_1model_1_1player_1_1CHardBot.htm#abf6ed3b27a4b8aeb27485a3c3c064528" target="_top" xlink:title="de.tu_clausthal.in.bachelorproject2018.ticktacktoe.model.player.\lCHardBot.accept">
<polygon fill="none" stroke="black" points="716,-86.5 716,-114.5 1038,-114.5 1038,-86.5 716,-86.5"/>
<text text-anchor="start" x="724" y="-103.3" font-family="Helvetica,sans-Serif" font-size="9.00">de.tu_clausthal.in.bachelorproject2018.ticktacktoe.model.player.</text>
<text text-anchor="middle" x="877" y="-93.3" font-family="Helvetica,sans-Serif" font-size="9.00">CHardBot.accept</text>
</a>
</g>
</g>
<!-- Node43&#45;&gt;Node44 -->
<g id="edge2" class="edge"><title>Node43&#45;&gt;Node44</title>
<path fill="none" stroke="midnightblue" d="M646.427,-72.7706C683.455,-77.2431 723.742,-82.1093 760.083,-86.4987"/>
<polygon fill="midnightblue" stroke="midnightblue" points="646.423,-69.2448 636.075,-71.5203 645.583,-76.1943 646.423,-69.2448"/>
</g>
<!-- Node45 -->
<g id="node4" class="node"><title>Node45</title>
<g id="a_node4"><a xlink:href="../../d8/d52/classde_1_1tu__clausthal_1_1in_1_1bachelorproject2018_1_1ticktacktoe_1_1controller_1_1CSpielebrettController.htm#a9566e9c3e6da6ec5f9eb5b89a2a1b2b2" target="_top" xlink:title="de.tu_clausthal.in.bachelorproject2018.ticktacktoe.controller.\lCSpielebrettController.set">
<polygon fill="none" stroke="black" points="1074,-43.5 1074,-71.5 1381,-71.5 1381,-43.5 1074,-43.5"/>
<text text-anchor="start" x="1082" y="-60.3" font-family="Helvetica,sans-Serif" font-size="9.00">de.tu_clausthal.in.bachelorproject2018.ticktacktoe.controller.</text>
<text text-anchor="middle" x="1227.5" y="-50.3" font-family="Helvetica,sans-Serif" font-size="9.00">CSpielebrettController.set</text>
</a>
</g>
</g>
<!-- Node43&#45;&gt;Node45 -->
<g id="edge6" class="edge"><title>Node43&#45;&gt;Node45</title>
<path fill="none" stroke="midnightblue" d="M690.436,-57.5C807.272,-57.5 960.939,-57.5 1073.78,-57.5"/>
<polygon fill="midnightblue" stroke="midnightblue" points="690.316,-54.0001 680.316,-57.5 690.316,-61.0001 690.316,-54.0001"/>
</g>
<!-- Node46 -->
<g id="node5" class="node"><title>Node46</title>
<g id="a_node5"><a xlink:href="../../de/d85/classde_1_1tu__clausthal_1_1in_1_1bachelorproject2018_1_1ticktacktoe_1_1model_1_1player_1_1CMediumBot.htm#a8b431ea082074110bef61bf64cbd154e" target="_top" xlink:title="de.tu_clausthal.in.bachelorproject2018.ticktacktoe.model.player.\lCMediumBot.accept">
<polygon fill="none" stroke="black" points="716,-0.5 716,-28.5 1038,-28.5 1038,-0.5 716,-0.5"/>
<text text-anchor="start" x="724" y="-17.3" font-family="Helvetica,sans-Serif" font-size="9.00">de.tu_clausthal.in.bachelorproject2018.ticktacktoe.model.player.</text>
<text text-anchor="middle" x="877" y="-7.3" font-family="Helvetica,sans-Serif" font-size="9.00">CMediumBot.accept</text>
</a>
</g>
</g>
<!-- Node43&#45;&gt;Node46 -->
<g id="edge4" class="edge"><title>Node43&#45;&gt;Node46</title>
<path fill="none" stroke="midnightblue" d="M646.427,-42.2294C683.455,-37.7569 723.742,-32.8907 760.083,-28.5013"/>
<polygon fill="midnightblue" stroke="midnightblue" points="645.583,-38.8057 636.075,-43.4797 646.423,-45.7552 645.583,-38.8057"/>
</g>
<!-- Node44&#45;&gt;Node45 -->
<g id="edge3" class="edge"><title>Node44&#45;&gt;Node45</title>
<path fill="none" stroke="midnightblue" d="M1001.76,-85.2294C1038.01,-80.7569 1077.45,-75.8907 1113.02,-71.5013"/>
<polygon fill="midnightblue" stroke="midnightblue" points="1001.13,-81.7814 991.63,-86.4797 1001.98,-88.7287 1001.13,-81.7814"/>
</g>
<!-- Node46&#45;&gt;Node45 -->
<g id="edge5" class="edge"><title>Node46&#45;&gt;Node45</title>
<path fill="none" stroke="midnightblue" d="M1001.76,-29.7706C1038.01,-34.2431 1077.45,-39.1093 1113.02,-43.4987"/>
<polygon fill="midnightblue" stroke="midnightblue" points="1001.98,-26.2713 991.63,-28.5203 1001.13,-33.2186 1001.98,-26.2713"/>
</g>
</g>
</svg>
