<?xml version="1.0" encoding="UTF-8" standalone="no"?>
<!DOCTYPE svg PUBLIC "-//W3C//DTD SVG 1.1//EN"
 "http://www.w3.org/Graphics/SVG/1.1/DTD/svg11.dtd">
<!-- Generated by graphviz version 2.38.0 (20140413.2041)
 -->
<!-- Title: de.tu_clausthal.in.bachelorproject2018.ticktacktoe.model.player.CMinMaxBot.accept Pages: 1 -->
<svg width="1046pt" height="225pt"
 viewBox="0.00 0.00 1046.00 225.00" xmlns="http://www.w3.org/2000/svg" xmlns:xlink="http://www.w3.org/1999/xlink">
<g id="graph0" class="graph" transform="scale(1 1) rotate(0) translate(4 221)">
<title>de.tu_clausthal.in.bachelorproject2018.ticktacktoe.model.player.CMinMaxBot.accept</title>
<!-- Node2 -->
<g id="node1" class="node"><title>Node2</title>
<polygon fill="#bfbfbf" stroke="black" points="0,-70.5 0,-98.5 322,-98.5 322,-70.5 0,-70.5"/>
<text text-anchor="start" x="8" y="-87.3" font-family="Helvetica,sans-Serif" font-size="9.00">de.tu_clausthal.in.bachelorproject2018.ticktacktoe.model.player.</text>
<text text-anchor="middle" x="161" y="-77.3" font-family="Helvetica,sans-Serif" font-size="9.00">CMinMaxBot.accept</text>
</g>
<!-- Node3 -->
<g id="node2" class="node"><title>Node3</title>
<g id="a_node2"><a xlink:href="../../dc/de8/enumde_1_1tu__clausthal_1_1in_1_1bachelorproject2018_1_1ticktacktoe_1_1model_1_1item_1_1EItem.htm#a0234b7a68e995c175debdd4b7ec85767" target="_top" xlink:title="erzeugt ein neues Objekt (Factory) ">
<polygon fill="none" stroke="black" points="362,-141.5 362,-169.5 676,-169.5 676,-141.5 362,-141.5"/>
<text text-anchor="start" x="370" y="-158.3" font-family="Helvetica,sans-Serif" font-size="9.00">de.tu_clausthal.in.bachelorproject2018.ticktacktoe.model.item.</text>
<text text-anchor="middle" x="519" y="-148.3" font-family="Helvetica,sans-Serif" font-size="9.00">EItem.apply</text>
</a>
</g>
</g>
<!-- Node2&#45;&gt;Node3 -->
<g id="edge1" class="edge"><title>Node2&#45;&gt;Node3</title>
<path fill="none" stroke="midnightblue" d="M213.282,-98.5107C252.649,-108.912 308.474,-122.9 358,-132.5 371.523,-135.121 385.743,-137.583 399.895,-139.85"/>
<polygon fill="midnightblue" stroke="midnightblue" points="399.755,-143.371 410.177,-141.466 400.842,-136.456 399.755,-143.371"/>
</g>
<!-- Node4 -->
<g id="node3" class="node"><title>Node4</title>
<g id="a_node3"><a xlink:href="../../d2/d76/classde_1_1tu__clausthal_1_1in_1_1bachelorproject2018_1_1ticktacktoe_1_1model_1_1player_1_1CMinMaxBot.htm#ac3fcc2ef4bf46696791d254643fe3012" target="_top" xlink:title="de.tu_clausthal.in.bachelorproject2018.ticktacktoe.model.player.\lCMinMaxBot.minimax">
<polygon fill="none" stroke="black" points="358,-94.5 358,-122.5 680,-122.5 680,-94.5 358,-94.5"/>
<text text-anchor="start" x="366" y="-111.3" font-family="Helvetica,sans-Serif" font-size="9.00">de.tu_clausthal.in.bachelorproject2018.ticktacktoe.model.player.</text>
<text text-anchor="middle" x="519" y="-101.3" font-family="Helvetica,sans-Serif" font-size="9.00">CMinMaxBot.minimax</text>
</a>
</g>
</g>
<!-- Node2&#45;&gt;Node4 -->
<g id="edge2" class="edge"><title>Node2&#45;&gt;Node4</title>
<path fill="none" stroke="midnightblue" d="M322.036,-95.2889C330.599,-95.8662 339.217,-96.4472 347.811,-97.0266"/>
<polygon fill="midnightblue" stroke="midnightblue" points="347.671,-100.525 357.884,-97.7057 348.142,-93.5409 347.671,-100.525"/>
</g>
<!-- Node9 -->
<g id="node8" class="node"><title>Node9</title>
<g id="a_node8"><a xlink:href="../../d5/d48/interfacede_1_1tu__clausthal_1_1in_1_1bachelorproject2018_1_1ticktacktoe_1_1model_1_1brett_1_1ISpieleBrett.htm#abde84410b9665938a28238a0ee9043eb" target="_top" xlink:title="prüft ob das Feld in das gesetzt werden soll leer ist und setzt wenn dies der Fall ist prüft nach dem...">
<polygon fill="none" stroke="black" points="360.5,-47.5 360.5,-75.5 677.5,-75.5 677.5,-47.5 360.5,-47.5"/>
<text text-anchor="start" x="368.5" y="-64.3" font-family="Helvetica,sans-Serif" font-size="9.00">de.tu_clausthal.in.bachelorproject2018.ticktacktoe.model.brett.</text>
<text text-anchor="middle" x="519" y="-54.3" font-family="Helvetica,sans-Serif" font-size="9.00">ISpieleBrett.set</text>
</a>
</g>
</g>
<!-- Node2&#45;&gt;Node9 -->
<g id="edge7" class="edge"><title>Node2&#45;&gt;Node9</title>
<path fill="none" stroke="midnightblue" d="M322.036,-74.1606C331.395,-73.5559 340.821,-72.947 350.209,-72.3404"/>
<polygon fill="midnightblue" stroke="midnightblue" points="350.623,-75.8211 360.376,-71.6836 350.171,-68.8357 350.623,-75.8211"/>
</g>
<!-- Node10 -->
<g id="node9" class="node"><title>Node10</title>
<g id="a_node9"><a xlink:href="../../d2/d76/classde_1_1tu__clausthal_1_1in_1_1bachelorproject2018_1_1ticktacktoe_1_1model_1_1player_1_1CMinMaxBot.htm#a28eb67c76e1e35cb5899be58c846d93c" target="_top" xlink:title="de.tu_clausthal.in.bachelorproject2018.ticktacktoe.model.player.\lCMinMaxBot.toIntArray">
<polygon fill="none" stroke="black" points="358,-0.5 358,-28.5 680,-28.5 680,-0.5 358,-0.5"/>
<text text-anchor="start" x="366" y="-17.3" font-family="Helvetica,sans-Serif" font-size="9.00">de.tu_clausthal.in.bachelorproject2018.ticktacktoe.model.player.</text>
<text text-anchor="middle" x="519" y="-7.3" font-family="Helvetica,sans-Serif" font-size="9.00">CMinMaxBot.toIntArray</text>
</a>
</g>
</g>
<!-- Node2&#45;&gt;Node10 -->
<g id="edge8" class="edge"><title>Node2&#45;&gt;Node10</title>
<path fill="none" stroke="midnightblue" d="M216.659,-70.4086C255.832,-60.6196 309.945,-47.7274 358,-38.5 373.419,-35.5393 389.734,-32.7272 405.816,-30.1401"/>
<polygon fill="midnightblue" stroke="midnightblue" points="406.462,-33.5816 415.79,-28.559 405.366,-26.6679 406.462,-33.5816"/>
</g>
<!-- Node5 -->
<g id="node4" class="node"><title>Node5</title>
<g id="a_node4"><a xlink:href="../../d2/d76/classde_1_1tu__clausthal_1_1in_1_1bachelorproject2018_1_1ticktacktoe_1_1model_1_1player_1_1CMinMaxBot.htm#a0b5e53061505790c6267984c88548592" target="_top" xlink:title="de.tu_clausthal.in.bachelorproject2018.ticktacktoe.model.player.\lCMinMaxBot.hasOWon">
<polygon fill="none" stroke="black" points="716,-188.5 716,-216.5 1038,-216.5 1038,-188.5 716,-188.5"/>
<text text-anchor="start" x="724" y="-205.3" font-family="Helvetica,sans-Serif" font-size="9.00">de.tu_clausthal.in.bachelorproject2018.ticktacktoe.model.player.</text>
<text text-anchor="middle" x="877" y="-195.3" font-family="Helvetica,sans-Serif" font-size="9.00">CMinMaxBot.hasOWon</text>
</a>
</g>
</g>
<!-- Node4&#45;&gt;Node5 -->
<g id="edge3" class="edge"><title>Node4&#45;&gt;Node5</title>
<path fill="none" stroke="midnightblue" d="M659.356,-122.504C666.534,-125.339 673.468,-128.646 680,-132.5 702.662,-145.87 693.297,-166.199 716,-179.5 718.906,-181.202 721.89,-182.796 724.941,-184.286"/>
<polygon fill="midnightblue" stroke="midnightblue" points="723.715,-187.572 734.273,-188.457 726.572,-181.182 723.715,-187.572"/>
</g>
<!-- Node6 -->
<g id="node5" class="node"><title>Node6</title>
<g id="a_node5"><a xlink:href="../../d2/d76/classde_1_1tu__clausthal_1_1in_1_1bachelorproject2018_1_1ticktacktoe_1_1model_1_1player_1_1CMinMaxBot.htm#a127917470634317721182b1a76f5c16a" target="_top" xlink:title="de.tu_clausthal.in.bachelorproject2018.ticktacktoe.model.player.\lCMinMaxBot.hasXWon">
<polygon fill="none" stroke="black" points="716,-141.5 716,-169.5 1038,-169.5 1038,-141.5 716,-141.5"/>
<text text-anchor="start" x="724" y="-158.3" font-family="Helvetica,sans-Serif" font-size="9.00">de.tu_clausthal.in.bachelorproject2018.ticktacktoe.model.player.</text>
<text text-anchor="middle" x="877" y="-148.3" font-family="Helvetica,sans-Serif" font-size="9.00">CMinMaxBot.hasXWon</text>
</a>
</g>
</g>
<!-- Node4&#45;&gt;Node6 -->
<g id="edge4" class="edge"><title>Node4&#45;&gt;Node6</title>
<path fill="none" stroke="midnightblue" d="M626.33,-122.538C668.432,-128.096 716.957,-134.503 759.966,-140.181"/>
<polygon fill="midnightblue" stroke="midnightblue" points="759.539,-143.655 769.911,-141.494 760.455,-136.715 759.539,-143.655"/>
</g>
<!-- Node7 -->
<g id="node6" class="node"><title>Node7</title>
<g id="a_node6"><a xlink:href="../../d2/d76/classde_1_1tu__clausthal_1_1in_1_1bachelorproject2018_1_1ticktacktoe_1_1model_1_1player_1_1CMinMaxBot.htm#a24c9e6c88f1e50f61c242d5d3a93639b" target="_top" xlink:title="de.tu_clausthal.in.bachelorproject2018.ticktacktoe.model.player.\lCMinMaxBot.getAvailableStates">
<polygon fill="none" stroke="black" points="716,-94.5 716,-122.5 1038,-122.5 1038,-94.5 716,-94.5"/>
<text text-anchor="start" x="724" y="-111.3" font-family="Helvetica,sans-Serif" font-size="9.00">de.tu_clausthal.in.bachelorproject2018.ticktacktoe.model.player.</text>
<text text-anchor="middle" x="877" y="-101.3" font-family="Helvetica,sans-Serif" font-size="9.00">CMinMaxBot.getAvailableStates</text>
</a>
</g>
</g>
<!-- Node4&#45;&gt;Node7 -->
<g id="edge5" class="edge"><title>Node4&#45;&gt;Node7</title>
<path fill="none" stroke="midnightblue" d="M680.036,-108.5C688.599,-108.5 697.217,-108.5 705.811,-108.5"/>
<polygon fill="midnightblue" stroke="midnightblue" points="705.884,-112 715.884,-108.5 705.884,-105 705.884,-112"/>
</g>
<!-- Node8 -->
<g id="node7" class="node"><title>Node8</title>
<g id="a_node7"><a xlink:href="../../d2/d76/classde_1_1tu__clausthal_1_1in_1_1bachelorproject2018_1_1ticktacktoe_1_1model_1_1player_1_1CMinMaxBot.htm#a5bd4bafb99162bb6b4a3c84847799db0" target="_top" xlink:title="de.tu_clausthal.in.bachelorproject2018.ticktacktoe.model.player.\lCMinMaxBot.placeAMove">
<polygon fill="none" stroke="black" points="716,-47.5 716,-75.5 1038,-75.5 1038,-47.5 716,-47.5"/>
<text text-anchor="start" x="724" y="-64.3" font-family="Helvetica,sans-Serif" font-size="9.00">de.tu_clausthal.in.bachelorproject2018.ticktacktoe.model.player.</text>
<text text-anchor="middle" x="877" y="-54.3" font-family="Helvetica,sans-Serif" font-size="9.00">CMinMaxBot.placeAMove</text>
</a>
</g>
</g>
<!-- Node4&#45;&gt;Node8 -->
<g id="edge6" class="edge"><title>Node4&#45;&gt;Node8</title>
<path fill="none" stroke="midnightblue" d="M626.33,-94.4621C668.432,-88.9036 716.957,-82.4973 759.966,-76.8191"/>
<polygon fill="midnightblue" stroke="midnightblue" points="760.455,-80.285 769.911,-75.5061 759.539,-73.3452 760.455,-80.285"/>
</g>
<!-- Node11 -->
<g id="node10" class="node"><title>Node11</title>
<g id="a_node10"><a xlink:href="../../d5/d48/interfacede_1_1tu__clausthal_1_1in_1_1bachelorproject2018_1_1ticktacktoe_1_1model_1_1brett_1_1ISpieleBrett.htm#a4268f46b928360d7dc3eb703d6bbc160" target="_top" xlink:title="de.tu_clausthal.in.bachelorproject2018.ticktacktoe.model.brett.\lISpieleBrett.getM_elements">
<polygon fill="none" stroke="black" points="718.5,-0.5 718.5,-28.5 1035.5,-28.5 1035.5,-0.5 718.5,-0.5"/>
<text text-anchor="start" x="726.5" y="-17.3" font-family="Helvetica,sans-Serif" font-size="9.00">de.tu_clausthal.in.bachelorproject2018.ticktacktoe.model.brett.</text>
<text text-anchor="middle" x="877" y="-7.3" font-family="Helvetica,sans-Serif" font-size="9.00">ISpieleBrett.getM_elements</text>
</a>
</g>
</g>
<!-- Node10&#45;&gt;Node11 -->
<g id="edge9" class="edge"><title>Node10&#45;&gt;Node11</title>
<path fill="none" stroke="midnightblue" d="M680.036,-14.5C689.395,-14.5 698.821,-14.5 708.209,-14.5"/>
<polygon fill="midnightblue" stroke="midnightblue" points="708.376,-18.0001 718.376,-14.5 708.376,-11.0001 708.376,-18.0001"/>
</g>
</g>
</svg>
