<?xml version="1.0" encoding="UTF-8" standalone="no"?>
<!DOCTYPE svg PUBLIC "-//W3C//DTD SVG 1.1//EN"
 "http://www.w3.org/Graphics/SVG/1.1/DTD/svg11.dtd">
<!-- Generated by graphviz version 2.38.0 (20140413.2041)
 -->
<!-- Title: de.tu_clausthal.in.bachelorproject2018.ticktacktoe.model.player.CMinMaxBot.minimax Pages: 1 -->
<svg width="688pt" height="178pt"
 viewBox="0.00 0.00 688.00 178.00" xmlns="http://www.w3.org/2000/svg" xmlns:xlink="http://www.w3.org/1999/xlink">
<g id="graph0" class="graph" transform="scale(1 1) rotate(0) translate(4 174)">
<title>de.tu_clausthal.in.bachelorproject2018.ticktacktoe.model.player.CMinMaxBot.minimax</title>
<!-- Node37 -->
<g id="node1" class="node"><title>Node37</title>
<polygon fill="#bfbfbf" stroke="black" points="0,-70.5 0,-98.5 322,-98.5 322,-70.5 0,-70.5"/>
<text text-anchor="start" x="8" y="-87.3" font-family="Helvetica,sans-Serif" font-size="9.00">de.tu_clausthal.in.bachelorproject2018.ticktacktoe.model.player.</text>
<text text-anchor="middle" x="161" y="-77.3" font-family="Helvetica,sans-Serif" font-size="9.00">CMinMaxBot.minimax</text>
</g>
<!-- Node38 -->
<g id="node2" class="node"><title>Node38</title>
<g id="a_node2"><a xlink:href="../../d2/d76/classde_1_1tu__clausthal_1_1in_1_1bachelorproject2018_1_1ticktacktoe_1_1model_1_1player_1_1CMinMaxBot.htm#a24c9e6c88f1e50f61c242d5d3a93639b" target="_top" xlink:title="de.tu_clausthal.in.bachelorproject2018.ticktacktoe.model.player.\lCMinMaxBot.getAvailableStates">
<polygon fill="none" stroke="black" points="358,-141.5 358,-169.5 680,-169.5 680,-141.5 358,-141.5"/>
<text text-anchor="start" x="366" y="-158.3" font-family="Helvetica,sans-Serif" font-size="9.00">de.tu_clausthal.in.bachelorproject2018.ticktacktoe.model.player.</text>
<text text-anchor="middle" x="519" y="-148.3" font-family="Helvetica,sans-Serif" font-size="9.00">CMinMaxBot.getAvailableStates</text>
</a>
</g>
</g>
<!-- Node37&#45;&gt;Node38 -->
<g id="edge1" class="edge"><title>Node37&#45;&gt;Node38</title>
<path fill="none" stroke="midnightblue" d="M213.282,-98.5107C252.649,-108.912 308.474,-122.9 358,-132.5 371.523,-135.121 385.743,-137.583 399.895,-139.85"/>
<polygon fill="midnightblue" stroke="midnightblue" points="399.755,-143.371 410.177,-141.466 400.842,-136.456 399.755,-143.371"/>
</g>
<!-- Node39 -->
<g id="node3" class="node"><title>Node39</title>
<g id="a_node3"><a xlink:href="../../d2/d76/classde_1_1tu__clausthal_1_1in_1_1bachelorproject2018_1_1ticktacktoe_1_1model_1_1player_1_1CMinMaxBot.htm#a0b5e53061505790c6267984c88548592" target="_top" xlink:title="de.tu_clausthal.in.bachelorproject2018.ticktacktoe.model.player.\lCMinMaxBot.hasOWon">
<polygon fill="none" stroke="black" points="358,-94.5 358,-122.5 680,-122.5 680,-94.5 358,-94.5"/>
<text text-anchor="start" x="366" y="-111.3" font-family="Helvetica,sans-Serif" font-size="9.00">de.tu_clausthal.in.bachelorproject2018.ticktacktoe.model.player.</text>
<text text-anchor="middle" x="519" y="-101.3" font-family="Helvetica,sans-Serif" font-size="9.00">CMinMaxBot.hasOWon</text>
</a>
</g>
</g>
<!-- Node37&#45;&gt;Node39 -->
<g id="edge2" class="edge"><title>Node37&#45;&gt;Node39</title>
<path fill="none" stroke="midnightblue" d="M322.036,-95.2889C330.599,-95.8662 339.217,-96.4472 347.811,-97.0266"/>
<polygon fill="midnightblue" stroke="midnightblue" points="347.671,-100.525 357.884,-97.7057 348.142,-93.5409 347.671,-100.525"/>
</g>
<!-- Node40 -->
<g id="node4" class="node"><title>Node40</title>
<g id="a_node4"><a xlink:href="../../d2/d76/classde_1_1tu__clausthal_1_1in_1_1bachelorproject2018_1_1ticktacktoe_1_1model_1_1player_1_1CMinMaxBot.htm#a127917470634317721182b1a76f5c16a" target="_top" xlink:title="de.tu_clausthal.in.bachelorproject2018.ticktacktoe.model.player.\lCMinMaxBot.hasXWon">
<polygon fill="none" stroke="black" points="358,-47.5 358,-75.5 680,-75.5 680,-47.5 358,-47.5"/>
<text text-anchor="start" x="366" y="-64.3" font-family="Helvetica,sans-Serif" font-size="9.00">de.tu_clausthal.in.bachelorproject2018.ticktacktoe.model.player.</text>
<text text-anchor="middle" x="519" y="-54.3" font-family="Helvetica,sans-Serif" font-size="9.00">CMinMaxBot.hasXWon</text>
</a>
</g>
</g>
<!-- Node37&#45;&gt;Node40 -->
<g id="edge3" class="edge"><title>Node37&#45;&gt;Node40</title>
<path fill="none" stroke="midnightblue" d="M322.036,-74.1606C330.599,-73.6074 339.217,-73.0506 347.811,-72.4953"/>
<polygon fill="midnightblue" stroke="midnightblue" points="348.131,-75.9821 357.884,-71.8446 347.679,-68.9967 348.131,-75.9821"/>
</g>
<!-- Node41 -->
<g id="node5" class="node"><title>Node41</title>
<g id="a_node5"><a xlink:href="../../d2/d76/classde_1_1tu__clausthal_1_1in_1_1bachelorproject2018_1_1ticktacktoe_1_1model_1_1player_1_1CMinMaxBot.htm#a5bd4bafb99162bb6b4a3c84847799db0" target="_top" xlink:title="de.tu_clausthal.in.bachelorproject2018.ticktacktoe.model.player.\lCMinMaxBot.placeAMove">
<polygon fill="none" stroke="black" points="358,-0.5 358,-28.5 680,-28.5 680,-0.5 358,-0.5"/>
<text text-anchor="start" x="366" y="-17.3" font-family="Helvetica,sans-Serif" font-size="9.00">de.tu_clausthal.in.bachelorproject2018.ticktacktoe.model.player.</text>
<text text-anchor="middle" x="519" y="-7.3" font-family="Helvetica,sans-Serif" font-size="9.00">CMinMaxBot.placeAMove</text>
</a>
</g>
</g>
<!-- Node37&#45;&gt;Node41 -->
<g id="edge4" class="edge"><title>Node37&#45;&gt;Node41</title>
<path fill="none" stroke="midnightblue" d="M216.659,-70.4086C255.832,-60.6196 309.945,-47.7274 358,-38.5 373.419,-35.5393 389.734,-32.7272 405.816,-30.1401"/>
<polygon fill="midnightblue" stroke="midnightblue" points="406.462,-33.5816 415.79,-28.559 405.366,-26.6679 406.462,-33.5816"/>
</g>
</g>
</svg>
