<?xml version="1.0" encoding="UTF-8" standalone="no"?>
<!DOCTYPE svg PUBLIC "-//W3C//DTD SVG 1.1//EN"
 "http://www.w3.org/Graphics/SVG/1.1/DTD/svg11.dtd">
<!-- Generated by graphviz version 2.38.0 (20140413.2041)
 -->
<!-- Title: de.tu_clausthal.in.bachelorproject2018.ticktacktoe.model.player.IBasePlayer Pages: 1 -->
<svg width="1690pt" height="405pt"
 viewBox="0.00 0.00 1690.00 405.00" xmlns="http://www.w3.org/2000/svg" xmlns:xlink="http://www.w3.org/1999/xlink">
<g id="graph0" class="graph" transform="scale(1 1) rotate(0) translate(4 401)">
<title>de.tu_clausthal.in.bachelorproject2018.ticktacktoe.model.player.IBasePlayer</title>
<!-- Node0 -->
<g id="node1" class="node"><title>Node0</title>
<polygon fill="#bfbfbf" stroke="black" points="680,-191.5 680,-295.5 1002,-295.5 1002,-191.5 680,-191.5"/>
<text text-anchor="start" x="688" y="-284.3" font-family="Helvetica,sans-Serif" font-size="9.00">de.tu_clausthal.in.bachelorproject2018.ticktacktoe.model.player.</text>
<text text-anchor="middle" x="841" y="-274.3" font-family="Helvetica,sans-Serif" font-size="9.00">IBasePlayer</text>
<polyline fill="none" stroke="black" points="680,-267.5 1002,-267.5 "/>
<text text-anchor="start" x="688" y="-256.3" font-family="Helvetica,sans-Serif" font-size="9.00"># m_value</text>
<text text-anchor="start" x="688" y="-246.3" font-family="Helvetica,sans-Serif" font-size="9.00">&#45; m_name</text>
<polyline fill="none" stroke="black" points="680,-239.5 1002,-239.5 "/>
<text text-anchor="start" x="688" y="-228.3" font-family="Helvetica,sans-Serif" font-size="9.00">+ equals()</text>
<text text-anchor="start" x="688" y="-218.3" font-family="Helvetica,sans-Serif" font-size="9.00">+ hashCode()</text>
<text text-anchor="start" x="688" y="-208.3" font-family="Helvetica,sans-Serif" font-size="9.00">+ name()</text>
<text text-anchor="start" x="688" y="-198.3" font-family="Helvetica,sans-Serif" font-size="9.00"># IBasePlayer()</text>
</g>
<!-- Node2 -->
<g id="node3" class="node"><title>Node2</title>
<g id="a_node3"><a xlink:href="../../d5/d40/classde_1_1tu__clausthal_1_1in_1_1bachelorproject2018_1_1ticktacktoe_1_1model_1_1player_1_1CHardBot.htm" target="_top" xlink:title="{de.tu_clausthal.in.bachelorproject2018.ticktacktoe.model.player.\lCHardBot\n|&#45; m_MinMaxBot\l&#45; m_random\l&#45; m_RandomBot\l|+ CHardBot()\l+ accept()\l}">
<polygon fill="none" stroke="black" points="0,-30.5 0,-124.5 322,-124.5 322,-30.5 0,-30.5"/>
<text text-anchor="start" x="8" y="-113.3" font-family="Helvetica,sans-Serif" font-size="9.00">de.tu_clausthal.in.bachelorproject2018.ticktacktoe.model.player.</text>
<text text-anchor="middle" x="161" y="-103.3" font-family="Helvetica,sans-Serif" font-size="9.00">CHardBot</text>
<polyline fill="none" stroke="black" points="0,-96.5 322,-96.5 "/>
<text text-anchor="start" x="8" y="-85.3" font-family="Helvetica,sans-Serif" font-size="9.00">&#45; m_MinMaxBot</text>
<text text-anchor="start" x="8" y="-75.3" font-family="Helvetica,sans-Serif" font-size="9.00">&#45; m_random</text>
<text text-anchor="start" x="8" y="-65.3" font-family="Helvetica,sans-Serif" font-size="9.00">&#45; m_RandomBot</text>
<polyline fill="none" stroke="black" points="0,-58.5 322,-58.5 "/>
<text text-anchor="start" x="8" y="-47.3" font-family="Helvetica,sans-Serif" font-size="9.00">+ CHardBot()</text>
<text text-anchor="start" x="8" y="-37.3" font-family="Helvetica,sans-Serif" font-size="9.00">+ accept()</text>
</a>
</g>
</g>
<!-- Node0&#45;&gt;Node2 -->
<g id="edge2" class="edge"><title>Node0&#45;&gt;Node2</title>
<path fill="none" stroke="midnightblue" d="M669.87,-224.125C569.657,-210.662 441.485,-188.74 331,-155 304.69,-146.965 277.109,-135.833 252.003,-124.545"/>
<polygon fill="none" stroke="midnightblue" points="669.412,-227.595 679.786,-225.442 670.334,-220.656 669.412,-227.595"/>
</g>
<!-- Node3 -->
<g id="node4" class="node"><title>Node3</title>
<g id="a_node4"><a xlink:href="../../d3/d72/classde_1_1tu__clausthal_1_1in_1_1bachelorproject2018_1_1ticktacktoe_1_1model_1_1player_1_1CHuman.htm" target="_top" xlink:title="Klasse, um einen menschlichen Spieler darzustellen. ">
<polygon fill="none" stroke="black" points="340,-35.5 340,-119.5 662,-119.5 662,-35.5 340,-35.5"/>
<text text-anchor="start" x="348" y="-108.3" font-family="Helvetica,sans-Serif" font-size="9.00">de.tu_clausthal.in.bachelorproject2018.ticktacktoe.model.player.</text>
<text text-anchor="middle" x="501" y="-98.3" font-family="Helvetica,sans-Serif" font-size="9.00">CHuman</text>
<polyline fill="none" stroke="black" points="340,-91.5 662,-91.5 "/>
<text text-anchor="middle" x="501" y="-80.3" font-family="Helvetica,sans-Serif" font-size="9.00"> </text>
<polyline fill="none" stroke="black" points="340,-73.5 662,-73.5 "/>
<text text-anchor="start" x="348" y="-62.3" font-family="Helvetica,sans-Serif" font-size="9.00">+ CHuman()</text>
<text text-anchor="start" x="348" y="-52.3" font-family="Helvetica,sans-Serif" font-size="9.00">+ accept()</text>
<text text-anchor="start" x="348" y="-42.3" font-family="Helvetica,sans-Serif" font-size="9.00">+ accept()</text>
</a>
</g>
</g>
<!-- Node0&#45;&gt;Node3 -->
<g id="edge3" class="edge"><title>Node0&#45;&gt;Node3</title>
<path fill="none" stroke="midnightblue" d="M725.764,-186.915C680.063,-164.872 628.451,-139.976 586.22,-119.606"/>
<polygon fill="none" stroke="midnightblue" points="724.293,-190.092 734.82,-191.284 727.334,-183.787 724.293,-190.092"/>
</g>
<!-- Node4 -->
<g id="node5" class="node"><title>Node4</title>
<g id="a_node5"><a xlink:href="../../de/d85/classde_1_1tu__clausthal_1_1in_1_1bachelorproject2018_1_1ticktacktoe_1_1model_1_1player_1_1CMediumBot.htm" target="_top" xlink:title="Klasse des Medium Bots. ">
<polygon fill="none" stroke="black" points="680,-30.5 680,-124.5 1002,-124.5 1002,-30.5 680,-30.5"/>
<text text-anchor="start" x="688" y="-113.3" font-family="Helvetica,sans-Serif" font-size="9.00">de.tu_clausthal.in.bachelorproject2018.ticktacktoe.model.player.</text>
<text text-anchor="middle" x="841" y="-103.3" font-family="Helvetica,sans-Serif" font-size="9.00">CMediumBot</text>
<polyline fill="none" stroke="black" points="680,-96.5 1002,-96.5 "/>
<text text-anchor="start" x="688" y="-85.3" font-family="Helvetica,sans-Serif" font-size="9.00">&#45; m_MinMaxBot</text>
<text text-anchor="start" x="688" y="-75.3" font-family="Helvetica,sans-Serif" font-size="9.00">&#45; m_random</text>
<text text-anchor="start" x="688" y="-65.3" font-family="Helvetica,sans-Serif" font-size="9.00">&#45; m_RandomBot</text>
<polyline fill="none" stroke="black" points="680,-58.5 1002,-58.5 "/>
<text text-anchor="start" x="688" y="-47.3" font-family="Helvetica,sans-Serif" font-size="9.00">+ CMediumBot()</text>
<text text-anchor="start" x="688" y="-37.3" font-family="Helvetica,sans-Serif" font-size="9.00">+ accept()</text>
</a>
</g>
</g>
<!-- Node0&#45;&gt;Node4 -->
<g id="edge4" class="edge"><title>Node0&#45;&gt;Node4</title>
<path fill="none" stroke="midnightblue" d="M841,-180.901C841,-162.291 841,-142.183 841,-124.754"/>
<polygon fill="none" stroke="midnightblue" points="837.5,-181.059 841,-191.059 844.5,-181.059 837.5,-181.059"/>
</g>
<!-- Node5 -->
<g id="node6" class="node"><title>Node5</title>
<g id="a_node6"><a xlink:href="../../d2/d76/classde_1_1tu__clausthal_1_1in_1_1bachelorproject2018_1_1ticktacktoe_1_1model_1_1player_1_1CMinMaxBot.htm" target="_top" xlink:title="Klasse des Min&#45;Max&#45;Bot. ">
<polygon fill="none" stroke="black" points="1020,-0.5 1020,-154.5 1342,-154.5 1342,-0.5 1020,-0.5"/>
<text text-anchor="start" x="1028" y="-143.3" font-family="Helvetica,sans-Serif" font-size="9.00">de.tu_clausthal.in.bachelorproject2018.ticktacktoe.model.player.</text>
<text text-anchor="middle" x="1181" y="-133.3" font-family="Helvetica,sans-Serif" font-size="9.00">CMinMaxBot</text>
<polyline fill="none" stroke="black" points="1020,-126.5 1342,-126.5 "/>
<text text-anchor="start" x="1028" y="-115.3" font-family="Helvetica,sans-Serif" font-size="9.00">~ availablePoints</text>
<text text-anchor="start" x="1028" y="-105.3" font-family="Helvetica,sans-Serif" font-size="9.00">~ board</text>
<text text-anchor="start" x="1028" y="-95.3" font-family="Helvetica,sans-Serif" font-size="9.00">~ computersMove</text>
<polyline fill="none" stroke="black" points="1020,-88.5 1342,-88.5 "/>
<text text-anchor="start" x="1028" y="-77.3" font-family="Helvetica,sans-Serif" font-size="9.00">+ CMinMaxBot()</text>
<text text-anchor="start" x="1028" y="-67.3" font-family="Helvetica,sans-Serif" font-size="9.00">+ accept()</text>
<text text-anchor="start" x="1028" y="-57.3" font-family="Helvetica,sans-Serif" font-size="9.00">+ getAvailableStates()</text>
<text text-anchor="start" x="1028" y="-47.3" font-family="Helvetica,sans-Serif" font-size="9.00">+ hasOWon()</text>
<text text-anchor="start" x="1028" y="-37.3" font-family="Helvetica,sans-Serif" font-size="9.00">+ hasXWon()</text>
<text text-anchor="start" x="1028" y="-27.3" font-family="Helvetica,sans-Serif" font-size="9.00">+ minimax()</text>
<text text-anchor="start" x="1028" y="-17.3" font-family="Helvetica,sans-Serif" font-size="9.00">+ placeAMove()</text>
<text text-anchor="start" x="1028" y="-7.3" font-family="Helvetica,sans-Serif" font-size="9.00">+ toIntArray()</text>
</a>
</g>
</g>
<!-- Node0&#45;&gt;Node5 -->
<g id="edge5" class="edge"><title>Node0&#45;&gt;Node5</title>
<path fill="none" stroke="midnightblue" d="M956.329,-186.871C977.877,-176.477 1000.74,-165.451 1023.31,-154.564"/>
<polygon fill="none" stroke="midnightblue" points="954.666,-183.787 947.18,-191.284 957.707,-190.092 954.666,-183.787"/>
</g>
<!-- Node6 -->
<g id="node7" class="node"><title>Node6</title>
<g id="a_node7"><a xlink:href="../../d0/d60/classde_1_1tu__clausthal_1_1in_1_1bachelorproject2018_1_1ticktacktoe_1_1model_1_1player_1_1CRandomBot.htm" target="_top" xlink:title="Klasse des Random Bots. ">
<polygon fill="none" stroke="black" points="1360,-40.5 1360,-114.5 1682,-114.5 1682,-40.5 1360,-40.5"/>
<text text-anchor="start" x="1368" y="-103.3" font-family="Helvetica,sans-Serif" font-size="9.00">de.tu_clausthal.in.bachelorproject2018.ticktacktoe.model.player.</text>
<text text-anchor="middle" x="1521" y="-93.3" font-family="Helvetica,sans-Serif" font-size="9.00">CRandomBot</text>
<polyline fill="none" stroke="black" points="1360,-86.5 1682,-86.5 "/>
<text text-anchor="start" x="1368" y="-75.3" font-family="Helvetica,sans-Serif" font-size="9.00">&#45; m_random</text>
<polyline fill="none" stroke="black" points="1360,-68.5 1682,-68.5 "/>
<text text-anchor="start" x="1368" y="-57.3" font-family="Helvetica,sans-Serif" font-size="9.00">+ CRandomBot()</text>
<text text-anchor="start" x="1368" y="-47.3" font-family="Helvetica,sans-Serif" font-size="9.00">+ accept()</text>
</a>
</g>
</g>
<!-- Node0&#45;&gt;Node6 -->
<g id="edge6" class="edge"><title>Node0&#45;&gt;Node6</title>
<path fill="none" stroke="midnightblue" d="M1012.13,-224.125C1112.34,-210.662 1240.51,-188.74 1351,-155 1385.05,-144.602 1421.22,-129.016 1451.41,-114.619"/>
<polygon fill="none" stroke="midnightblue" points="1011.67,-220.656 1002.21,-225.442 1012.59,-227.595 1011.67,-220.656"/>
</g>
<!-- Node1 -->
<g id="node2" class="node"><title>Node1</title>
<g id="a_node2"><a xlink:href="../../dc/d5f/interfacede_1_1tu__clausthal_1_1in_1_1bachelorproject2018_1_1ticktacktoe_1_1model_1_1player_1_1IPlayer.htm" target="_top" xlink:title="Interface für einen Spieler (Bot oder Mensch). ">
<polygon fill="none" stroke="black" points="680,-332.5 680,-396.5 1002,-396.5 1002,-332.5 680,-332.5"/>
<text text-anchor="start" x="688" y="-385.3" font-family="Helvetica,sans-Serif" font-size="9.00">de.tu_clausthal.in.bachelorproject2018.ticktacktoe.model.player.</text>
<text text-anchor="middle" x="841" y="-375.3" font-family="Helvetica,sans-Serif" font-size="9.00">IPlayer</text>
<polyline fill="none" stroke="black" points="680,-368.5 1002,-368.5 "/>
<text text-anchor="middle" x="841" y="-357.3" font-family="Helvetica,sans-Serif" font-size="9.00"> </text>
<polyline fill="none" stroke="black" points="680,-350.5 1002,-350.5 "/>
<text text-anchor="start" x="688" y="-339.3" font-family="Helvetica,sans-Serif" font-size="9.00">+ name()</text>
</a>
</g>
</g>
<!-- Node1&#45;&gt;Node0 -->
<g id="edge1" class="edge"><title>Node1&#45;&gt;Node0</title>
<path fill="none" stroke="midnightblue" d="M841,-322.181C841,-313.673 841,-304.616 841,-295.803"/>
<polygon fill="none" stroke="midnightblue" points="837.5,-322.234 841,-332.234 844.5,-322.234 837.5,-322.234"/>
</g>
</g>
</svg>
