<?xml version="1.0" encoding="UTF-8" standalone="no"?>
<!DOCTYPE svg PUBLIC "-//W3C//DTD SVG 1.1//EN"
 "http://www.w3.org/Graphics/SVG/1.1/DTD/svg11.dtd">
<!-- Generated by graphviz version 2.38.0 (20140413.2041)
 -->
<!-- Title: de.tu_clausthal.in.bachelorproject2018.ticktacktoe.model.player.CHardBot Pages: 1 -->
<!--zoomable 527 -->
<svg id="main" version="1.1" xmlns="http://www.w3.org/2000/svg" xmlns:xlink="http://www.w3.org/1999/xlink" xml:space="preserve" onload="init(evt)">
<style type="text/css"><![CDATA[
.edge:hover path { stroke: red; }
.edge:hover polygon { stroke: red; fill: red; }
]]></style>
<script type="text/javascript"><![CDATA[
var edges = document.getElementsByTagName('g');
if (edges && edges.length) {
  for (var i=0;i<edges.length;i++) {
    if (edges[i].id.substr(0,4)=='edge') {
      edges[i].setAttribute('class','edge');
    }
  }
}
]]></script>
        <defs>
                <circle id="rim" cx="0" cy="0" r="7"/>
                <circle id="rim2" cx="0" cy="0" r="3.5"/>
                <g id="zoomPlus">
                        <use xlink:href="#rim" fill="#404040">
                                <set attributeName="fill" to="#808080" begin="zoomplus.mouseover" end="zoomplus.mouseout"/>
                        </use>
                        <path d="M-4,0h8M0,-4v8" fill="none" stroke="white" stroke-width="1.5" pointer-events="none"/>
                </g>
                <g id="zoomMin">
                        <use xlink:href="#rim" fill="#404040">
                                <set attributeName="fill" to="#808080" begin="zoomminus.mouseover" end="zoomminus.mouseout"/>
                        </use>
                        <path d="M-4,0h8" fill="none" stroke="white" stroke-width="1.5" pointer-events="none"/>
                </g>
                <g id="dirArrow">
                        <path fill="none" stroke="white" stroke-width="1.5" d="M0,-3.0v7 M-2.5,-0.5L0,-3.0L2.5,-0.5"/>
                </g>
               <g id="resetDef">
                       <use xlink:href="#rim2" fill="#404040">
                               <set attributeName="fill" to="#808080" begin="reset.mouseover" end="reset.mouseout"/>
                       </use>
               </g>
        </defs>

<script type="text/javascript">
var viewWidth = 838;
var viewHeight = 527;
var sectionId = 'dynsection-1';
</script>
<script xlink:href="../../svgpan.js"/>
<svg id="graph" class="graph">
<g id="viewport">
<title>de.tu_clausthal.in.bachelorproject2018.ticktacktoe.model.player.CHardBot</title>
<!-- Node3 -->
<g id="node1" class="node"><title>Node3</title>
<polygon fill="#bfbfbf" stroke="black" points="168,-0.5 168,-74.5 490,-74.5 490,-0.5 168,-0.5"/>
<text text-anchor="start" x="176" y="-63.3" font-family="Helvetica,sans-Serif" font-size="9.00">de.tu_clausthal.in.bachelorproject2018.ticktacktoe.model.player.</text>
<text text-anchor="middle" x="329" y="-53.3" font-family="Helvetica,sans-Serif" font-size="9.00">CHardBot</text>
<polyline fill="none" stroke="black" points="168,-46.5 490,-46.5 "/>
<text text-anchor="start" x="176" y="-35.3" font-family="Helvetica,sans-Serif" font-size="9.00">&#45; m_random</text>
<polyline fill="none" stroke="black" points="168,-28.5 490,-28.5 "/>
<text text-anchor="start" x="176" y="-17.3" font-family="Helvetica,sans-Serif" font-size="9.00">+ CHardBot()</text>
<text text-anchor="start" x="176" y="-7.3" font-family="Helvetica,sans-Serif" font-size="9.00">+ accept()</text>
</g>
<!-- Node4 -->
<g id="node2" class="node"><title>Node4</title>
<g id="a_node2"><a xlink:href="../../df/dec/classde_1_1tu__clausthal_1_1in_1_1bachelorproject2018_1_1ticktacktoe_1_1model_1_1player_1_1IBasePlayer.htm" target="_top" xlink:title="abstrakte Klasse eines Spielers, der den Namen und das Item, das er setzen kann enthält ...">
<polygon fill="none" stroke="black" points="168,-313.5 168,-407.5 490,-407.5 490,-313.5 168,-313.5"/>
<text text-anchor="start" x="176" y="-396.3" font-family="Helvetica,sans-Serif" font-size="9.00">de.tu_clausthal.in.bachelorproject2018.ticktacktoe.model.player.</text>
<text text-anchor="middle" x="329" y="-386.3" font-family="Helvetica,sans-Serif" font-size="9.00">IBasePlayer</text>
<polyline fill="none" stroke="black" points="168,-379.5 490,-379.5 "/>
<text text-anchor="start" x="176" y="-368.3" font-family="Helvetica,sans-Serif" font-size="9.00">&#45; m_name</text>
<polyline fill="none" stroke="black" points="168,-361.5 490,-361.5 "/>
<text text-anchor="start" x="176" y="-350.3" font-family="Helvetica,sans-Serif" font-size="9.00">+ equals()</text>
<text text-anchor="start" x="176" y="-340.3" font-family="Helvetica,sans-Serif" font-size="9.00">+ hashCode()</text>
<text text-anchor="start" x="176" y="-330.3" font-family="Helvetica,sans-Serif" font-size="9.00">+ name()</text>
<text text-anchor="start" x="176" y="-320.3" font-family="Helvetica,sans-Serif" font-size="9.00"># IBasePlayer()</text>
</a>
</g>
</g>
<!-- Node4&#45;&gt;Node3 -->
<g id="edge1" class="edge"><title>Node4&#45;&gt;Node3</title>
<path fill="none" stroke="midnightblue" d="M187.343,-307.232C176.26,-298.351 166.485,-288.015 159,-276 122.576,-217.528 122.437,-179.385 159,-121 171.362,-101.259 189.944,-86.1228 210.344,-74.5548"/>
<polygon fill="none" stroke="midnightblue" points="185.53,-310.247 195.631,-313.445 189.729,-304.646 185.53,-310.247"/>
</g>
<!-- Node7 -->
<g id="node5" class="node"><title>Node7</title>
<g id="a_node5"><a xlink:href="../../d0/d60/classde_1_1tu__clausthal_1_1in_1_1bachelorproject2018_1_1ticktacktoe_1_1model_1_1player_1_1CRandomBot.htm" target="_top" xlink:title="Klasse des Random Bots. ">
<polygon fill="none" stroke="black" points="168,-161.5 168,-235.5 490,-235.5 490,-161.5 168,-161.5"/>
<text text-anchor="start" x="176" y="-224.3" font-family="Helvetica,sans-Serif" font-size="9.00">de.tu_clausthal.in.bachelorproject2018.ticktacktoe.model.player.</text>
<text text-anchor="middle" x="329" y="-214.3" font-family="Helvetica,sans-Serif" font-size="9.00">CRandomBot</text>
<polyline fill="none" stroke="black" points="168,-207.5 490,-207.5 "/>
<text text-anchor="start" x="176" y="-196.3" font-family="Helvetica,sans-Serif" font-size="9.00">&#45; m_random</text>
<polyline fill="none" stroke="black" points="168,-189.5 490,-189.5 "/>
<text text-anchor="start" x="176" y="-178.3" font-family="Helvetica,sans-Serif" font-size="9.00">+ CRandomBot()</text>
<text text-anchor="start" x="176" y="-168.3" font-family="Helvetica,sans-Serif" font-size="9.00">+ accept()</text>
</a>
</g>
</g>
<!-- Node4&#45;&gt;Node7 -->
<g id="edge5" class="edge"><title>Node4&#45;&gt;Node7</title>
<path fill="none" stroke="midnightblue" d="M329,-303.116C329,-280.642 329,-255.437 329,-235.513"/>
<polygon fill="none" stroke="midnightblue" points="325.5,-303.221 329,-313.221 332.5,-303.221 325.5,-303.221"/>
</g>
<!-- Node8 -->
<g id="node6" class="node"><title>Node8</title>
<g id="a_node6"><a xlink:href="../../d2/d76/classde_1_1tu__clausthal_1_1in_1_1bachelorproject2018_1_1ticktacktoe_1_1model_1_1player_1_1CMinMaxBot.htm" target="_top" xlink:title="Klasse des Min&#45;Max&#45;Bot. ">
<polygon fill="none" stroke="black" points="508,-121.5 508,-275.5 830,-275.5 830,-121.5 508,-121.5"/>
<text text-anchor="start" x="516" y="-264.3" font-family="Helvetica,sans-Serif" font-size="9.00">de.tu_clausthal.in.bachelorproject2018.ticktacktoe.model.player.</text>
<text text-anchor="middle" x="669" y="-254.3" font-family="Helvetica,sans-Serif" font-size="9.00">CMinMaxBot</text>
<polyline fill="none" stroke="black" points="508,-247.5 830,-247.5 "/>
<text text-anchor="start" x="516" y="-236.3" font-family="Helvetica,sans-Serif" font-size="9.00">~ availablePoints</text>
<text text-anchor="start" x="516" y="-226.3" font-family="Helvetica,sans-Serif" font-size="9.00">~ board</text>
<text text-anchor="start" x="516" y="-216.3" font-family="Helvetica,sans-Serif" font-size="9.00">~ computersMove</text>
<polyline fill="none" stroke="black" points="508,-209.5 830,-209.5 "/>
<text text-anchor="start" x="516" y="-198.3" font-family="Helvetica,sans-Serif" font-size="9.00">+ CMinMaxBot()</text>
<text text-anchor="start" x="516" y="-188.3" font-family="Helvetica,sans-Serif" font-size="9.00">+ accept()</text>
<text text-anchor="start" x="516" y="-178.3" font-family="Helvetica,sans-Serif" font-size="9.00">+ getAvailableStates()</text>
<text text-anchor="start" x="516" y="-168.3" font-family="Helvetica,sans-Serif" font-size="9.00">+ hasOWon()</text>
<text text-anchor="start" x="516" y="-158.3" font-family="Helvetica,sans-Serif" font-size="9.00">+ hasXWon()</text>
<text text-anchor="start" x="516" y="-148.3" font-family="Helvetica,sans-Serif" font-size="9.00">+ minimax()</text>
<text text-anchor="start" x="516" y="-138.3" font-family="Helvetica,sans-Serif" font-size="9.00">+ placeAMove()</text>
<text text-anchor="start" x="516" y="-128.3" font-family="Helvetica,sans-Serif" font-size="9.00">+ toIntArray()</text>
</a>
</g>
</g>
<!-- Node4&#45;&gt;Node8 -->
<g id="edge7" class="edge"><title>Node4&#45;&gt;Node8</title>
<path fill="none" stroke="midnightblue" d="M436.189,-309.058C458.951,-298.347 483.461,-286.812 507.733,-275.39"/>
<polygon fill="none" stroke="midnightblue" points="434.444,-306.011 426.886,-313.436 437.424,-312.345 434.444,-306.011"/>
</g>
<!-- Node5 -->
<g id="node3" class="node"><title>Node5</title>
<g id="a_node3"><a xlink:href="../../dc/d5f/interfacede_1_1tu__clausthal_1_1in_1_1bachelorproject2018_1_1ticktacktoe_1_1model_1_1player_1_1IPlayer.htm" target="_top" xlink:title="Interface für einen Spieler (Bot oder Mensch). ">
<polygon fill="none" stroke="black" points="0,-454.5 0,-518.5 322,-518.5 322,-454.5 0,-454.5"/>
<text text-anchor="start" x="8" y="-507.3" font-family="Helvetica,sans-Serif" font-size="9.00">de.tu_clausthal.in.bachelorproject2018.ticktacktoe.model.player.</text>
<text text-anchor="middle" x="161" y="-497.3" font-family="Helvetica,sans-Serif" font-size="9.00">IPlayer</text>
<polyline fill="none" stroke="black" points="0,-490.5 322,-490.5 "/>
<text text-anchor="middle" x="161" y="-479.3" font-family="Helvetica,sans-Serif" font-size="9.00"> </text>
<polyline fill="none" stroke="black" points="0,-472.5 322,-472.5 "/>
<text text-anchor="start" x="8" y="-461.3" font-family="Helvetica,sans-Serif" font-size="9.00">+ name()</text>
</a>
</g>
</g>
<!-- Node5&#45;&gt;Node4 -->
<g id="edge2" class="edge"><title>Node5&#45;&gt;Node4</title>
<path fill="none" stroke="midnightblue" d="M211.685,-448.09C228.975,-435.328 248.513,-420.907 266.615,-407.546"/>
<polygon fill="none" stroke="midnightblue" points="209.361,-445.455 203.393,-454.21 213.518,-451.087 209.361,-445.455"/>
</g>
<!-- Node6 -->
<g id="node4" class="node"><title>Node6</title>
<g id="a_node4"><a xlink:href="../../dc/de8/enumde_1_1tu__clausthal_1_1in_1_1bachelorproject2018_1_1ticktacktoe_1_1model_1_1item_1_1EItem.htm" target="_top" xlink:title="Factory für ein Item (Kreuz / Kreis Objekt). ">
<polygon fill="none" stroke="black" points="340,-454.5 340,-518.5 654,-518.5 654,-454.5 340,-454.5"/>
<text text-anchor="start" x="348" y="-507.3" font-family="Helvetica,sans-Serif" font-size="9.00">de.tu_clausthal.in.bachelorproject2018.ticktacktoe.model.item.</text>
<text text-anchor="middle" x="497" y="-497.3" font-family="Helvetica,sans-Serif" font-size="9.00">EItem</text>
<polyline fill="none" stroke="black" points="340,-490.5 654,-490.5 "/>
<text text-anchor="start" x="348" y="-479.3" font-family="Helvetica,sans-Serif" font-size="9.00">+ KREIS</text>
<polyline fill="none" stroke="black" points="340,-472.5 654,-472.5 "/>
<text text-anchor="start" x="348" y="-461.3" font-family="Helvetica,sans-Serif" font-size="9.00">+ apply()</text>
</a>
</g>
</g>
<!-- Node6&#45;&gt;Node4 -->
<g id="edge3" class="edge"><title>Node6&#45;&gt;Node4</title>
<path fill="none" stroke="#404040" d="M454.607,-454.21C438.375,-442.229 419.369,-428.201 401.127,-414.736"/>
<polygon fill="none" stroke="#404040" points="401.04,-414.673 393.837,-414.328 391.385,-407.546 398.588,-407.891 401.04,-414.673"/>
<text text-anchor="middle" x="453.5" y="-428.8" font-family="Helvetica,sans-Serif" font-size="9.00"> #m_value</text>
</g>
<!-- Node7&#45;&gt;Node3 -->
<g id="edge4" class="edge"><title>Node7&#45;&gt;Node3</title>
<path fill="none" stroke="#404040" d="M329,-161.42C329,-139.34 329,-110.813 329,-86.7994"/>
<polygon fill="none" stroke="#404040" points="329,-86.7116 325,-80.7117 329,-74.7116 333,-80.7116 329,-86.7116"/>
<text text-anchor="middle" x="365.5" y="-95.8" font-family="Helvetica,sans-Serif" font-size="9.00"> &#45;m_RandomBot</text>
</g>
<!-- Node8&#45;&gt;Node3 -->
<g id="edge6" class="edge"><title>Node8&#45;&gt;Node3</title>
<path fill="none" stroke="#404040" d="M507.961,-122.191C476.595,-107.523 444.822,-92.6636 416.927,-79.6187"/>
<polygon fill="none" stroke="#404040" points="416.904,-79.6079 409.774,-80.6895 406.033,-74.5244 413.163,-73.4428 416.904,-79.6079"/>
<text text-anchor="middle" x="493.5" y="-95.8" font-family="Helvetica,sans-Serif" font-size="9.00"> &#45;m_MinMaxBot</text>
</g>
</g>
</svg>
        <g id="navigator" transform="translate(0 0)" fill="#404254">
                <rect fill="#f2f5e9" fill-opacity="0.5" stroke="#606060" stroke-width=".5" x="0" y="0" width="60" height="60"/>
                <use id="zoomplus" xlink:href="#zoomPlus" x="17" y="9" onmousedown="handleZoom(evt,'in')"/>
                <use id="zoomminus" xlink:href="#zoomMin" x="42" y="9" onmousedown="handleZoom(evt,'out')"/>
                <use id="reset" xlink:href="#resetDef" x="30" y="36" onmousedown="handleReset()"/>
                <g id="arrowUp" xlink:href="#dirArrow" transform="translate(30 24)" onmousedown="handlePan(0,-1)">
                  <use xlink:href="#rim" fill="#404040">
                        <set attributeName="fill" to="#808080" begin="arrowUp.mouseover" end="arrowUp.mouseout"/>
                  </use>
                  <path fill="none" stroke="white" stroke-width="1.5" d="M0,-3.0v7 M-2.5,-0.5L0,-3.0L2.5,-0.5"/>
                </g>
                <g id="arrowRight" xlink:href="#dirArrow" transform="rotate(90) translate(36 -43)" onmousedown="handlePan(1,0)">
                  <use xlink:href="#rim" fill="#404040">
                        <set attributeName="fill" to="#808080" begin="arrowRight.mouseover" end="arrowRight.mouseout"/>
                  </use>
                  <path fill="none" stroke="white" stroke-width="1.5" d="M0,-3.0v7 M-2.5,-0.5L0,-3.0L2.5,-0.5"/>
                </g>
                <g id="arrowDown" xlink:href="#dirArrow" transform="rotate(180) translate(-30 -48)" onmousedown="handlePan(0,1)">
                  <use xlink:href="#rim" fill="#404040">
                        <set attributeName="fill" to="#808080" begin="arrowDown.mouseover" end="arrowDown.mouseout"/>
                  </use>
                  <path fill="none" stroke="white" stroke-width="1.5" d="M0,-3.0v7 M-2.5,-0.5L0,-3.0L2.5,-0.5"/>
                </g>
                <g id="arrowLeft" xlink:href="#dirArrow" transform="rotate(270) translate(-36 17)" onmousedown="handlePan(-1,0)">
                  <use xlink:href="#rim" fill="#404040">
                        <set attributeName="fill" to="#808080" begin="arrowLeft.mouseover" end="arrowLeft.mouseout"/>
                  </use>
                  <path fill="none" stroke="white" stroke-width="1.5" d="M0,-3.0v7 M-2.5,-0.5L0,-3.0L2.5,-0.5"/>
                </g>
        </g>
        <svg viewBox="0 0 15 15" width="100%" height="30px" preserveAspectRatio="xMaxYMin meet">
         <g id="arrow_out" transform="scale(0.3 0.3)">
          <a xlink:href="classde_1_1tu__clausthal_1_1in_1_1bachelorproject2018_1_1ticktacktoe_1_1model_1_1player_1_1CHardBot__coll__graph_org.svg" target="_base">
           <rect id="button" ry="5" rx="5" y="6" x="6" height="38" width="38"
                fill="#f2f5e9" fill-opacity="0.5" stroke="#606060" stroke-width="1.0"/>
           <path id="arrow"
             d="M 11.500037,31.436501 C 11.940474,20.09759 22.043105,11.32322 32.158766,21.979434 L 37.068811,17.246167 C 37.068811,17.246167 37.088388,32 37.088388,32 L 22.160133,31.978069 C 22.160133,31.978069 26.997745,27.140456 26.997745,27.140456 C 18.528582,18.264221 13.291696,25.230495 11.500037,31.436501 z"
             style="fill:#404040;"/>
          </a>
         </g>
        </svg>
</svg>
