<?xml version="1.0" encoding="UTF-8" standalone="no"?>
<!DOCTYPE svg PUBLIC "-//W3C//DTD SVG 1.1//EN"
 "http://www.w3.org/Graphics/SVG/1.1/DTD/svg11.dtd">
<!-- Generated by graphviz version 2.38.0 (20140413.2041)
 -->
<!-- Title: Grafische Darstellung der Klassenhierarchie Pages: 1 -->
<svg width="391pt" height="64pt"
 viewBox="0.00 0.00 391.00 64.00" xmlns="http://www.w3.org/2000/svg" xmlns:xlink="http://www.w3.org/1999/xlink">
<g id="graph0" class="graph" transform="scale(1 1) rotate(0) translate(4 60)">
<title>Grafische Darstellung der Klassenhierarchie</title>
<!-- Node10 -->
<g id="node1" class="node"><title>Node10</title>
<polygon fill="none" stroke="#bfbfbf" points="0,-37.5 0,-55.5 56,-55.5 56,-37.5 0,-37.5"/>
<text text-anchor="middle" x="28" y="-44.3" font-family="Helvetica,sans-Serif" font-size="9.00">Function</text>
</g>
<!-- Node0 -->
<g id="node2" class="node"><title>Node0</title>
<g id="a_node2"><a xlink:href="d6/dad/enumde_1_1tu__clausthal_1_1in_1_1bachelorproject2018_1_1ticktacktoe_1_1model_1_1ESpiele.htm" target="_top" xlink:title="Singleton mit allen Spielen. ">
<polygon fill="none" stroke="black" points="92,-13.5 92,-41.5 383,-41.5 383,-13.5 92,-13.5"/>
<text text-anchor="start" x="100" y="-30.3" font-family="Helvetica,sans-Serif" font-size="9.00">de.tu_clausthal.in.bachelorproject2018.ticktacktoe.model.</text>
<text text-anchor="middle" x="237.5" y="-20.3" font-family="Helvetica,sans-Serif" font-size="9.00">ESpiele</text>
</a>
</g>
</g>
<!-- Node10&#45;&gt;Node0 -->
<g id="edge1" class="edge"><title>Node10&#45;&gt;Node0</title>
<path fill="none" stroke="midnightblue" d="M66.21,-43.0928C74.0253,-42.3772 82.712,-41.5818 91.908,-40.7397"/>
<polygon fill="midnightblue" stroke="midnightblue" points="65.7662,-39.6187 56.127,-44.0161 66.4045,-46.5896 65.7662,-39.6187"/>
</g>
<!-- Node8 -->
<g id="node3" class="node"><title>Node8</title>
<polygon fill="none" stroke="#bfbfbf" points="0.5,-0.5 0.5,-18.5 55.5,-18.5 55.5,-0.5 0.5,-0.5"/>
<text text-anchor="middle" x="28" y="-7.3" font-family="Helvetica,sans-Serif" font-size="9.00">Supplier</text>
</g>
<!-- Node8&#45;&gt;Node0 -->
<g id="edge2" class="edge"><title>Node8&#45;&gt;Node0</title>
<path fill="none" stroke="midnightblue" d="M65.8744,-12.6987C73.7691,-13.3836 82.5641,-14.1465 91.8827,-14.9549"/>
<polygon fill="midnightblue" stroke="midnightblue" points="65.9673,-9.19374 55.7022,-11.8163 65.3623,-16.1676 65.9673,-9.19374"/>
</g>
</g>
</svg>
