<?xml version="1.0" encoding="UTF-8" standalone="no"?>
<!DOCTYPE svg PUBLIC "-//W3C//DTD SVG 1.1//EN"
 "http://www.w3.org/Graphics/SVG/1.1/DTD/svg11.dtd">
<!-- Generated by graphviz version 2.38.0 (20140413.2041)
 -->
<!-- Title: Grafische Darstellung der Klassenhierarchie Pages: 1 -->
<svg width="1146pt" height="225pt"
 viewBox="0.00 0.00 1146.00 225.00" xmlns="http://www.w3.org/2000/svg" xmlns:xlink="http://www.w3.org/1999/xlink">
<g id="graph0" class="graph" transform="scale(1 1) rotate(0) translate(4 221)">
<title>Grafische Darstellung der Klassenhierarchie</title>
<!-- Node11 -->
<g id="node1" class="node"><title>Node11</title>
<polygon fill="none" stroke="#bfbfbf" points="0,-99.5 0,-117.5 64,-117.5 64,-99.5 0,-99.5"/>
<text text-anchor="middle" x="32" y="-106.3" font-family="Helvetica,sans-Serif" font-size="9.00">Consumer</text>
</g>
<!-- Node0 -->
<g id="node2" class="node"><title>Node0</title>
<g id="a_node2"><a xlink:href="dc/d5f/interfacede_1_1tu__clausthal_1_1in_1_1bachelorproject2018_1_1ticktacktoe_1_1model_1_1player_1_1IPlayer.htm" target="_top" xlink:title="Interface für einen Spieler (Bot oder Mensch). ">
<polygon fill="none" stroke="black" points="100,-94.5 100,-122.5 422,-122.5 422,-94.5 100,-94.5"/>
<text text-anchor="start" x="108" y="-111.3" font-family="Helvetica,sans-Serif" font-size="9.00">de.tu_clausthal.in.bachelorproject2018.ticktacktoe.model.player.</text>
<text text-anchor="middle" x="261" y="-101.3" font-family="Helvetica,sans-Serif" font-size="9.00">IPlayer</text>
</a>
</g>
</g>
<!-- Node11&#45;&gt;Node0 -->
<g id="edge1" class="edge"><title>Node11&#45;&gt;Node0</title>
<path fill="none" stroke="midnightblue" d="M74.1864,-108.5C81.9656,-108.5 90.5215,-108.5 99.5594,-108.5"/>
<polygon fill="midnightblue" stroke="midnightblue" points="74.0874,-105 64.0874,-108.5 74.0874,-112 74.0874,-105"/>
</g>
<!-- Node1 -->
<g id="node3" class="node"><title>Node1</title>
<g id="a_node3"><a xlink:href="df/dec/classde_1_1tu__clausthal_1_1in_1_1bachelorproject2018_1_1ticktacktoe_1_1model_1_1player_1_1IBasePlayer.htm" target="_top" xlink:title="abstrakte Klasse eines Spielers, der den Namen und das Item, das er setzen kann enthält ...">
<polygon fill="none" stroke="black" points="458,-94.5 458,-122.5 780,-122.5 780,-94.5 458,-94.5"/>
<text text-anchor="start" x="466" y="-111.3" font-family="Helvetica,sans-Serif" font-size="9.00">de.tu_clausthal.in.bachelorproject2018.ticktacktoe.model.player.</text>
<text text-anchor="middle" x="619" y="-101.3" font-family="Helvetica,sans-Serif" font-size="9.00">IBasePlayer</text>
</a>
</g>
</g>
<!-- Node0&#45;&gt;Node1 -->
<g id="edge2" class="edge"><title>Node0&#45;&gt;Node1</title>
<path fill="none" stroke="midnightblue" d="M432.109,-108.5C440.703,-108.5 449.321,-108.5 457.884,-108.5"/>
<polygon fill="midnightblue" stroke="midnightblue" points="432.036,-105 422.036,-108.5 432.036,-112 432.036,-105"/>
</g>
<!-- Node2 -->
<g id="node4" class="node"><title>Node2</title>
<g id="a_node4"><a xlink:href="d5/d40/classde_1_1tu__clausthal_1_1in_1_1bachelorproject2018_1_1ticktacktoe_1_1model_1_1player_1_1CHardBot.htm" target="_top" xlink:title="de.tu_clausthal.in.bachelorproject2018.ticktacktoe.model.player.\lCHardBot">
<polygon fill="none" stroke="black" points="816,-188.5 816,-216.5 1138,-216.5 1138,-188.5 816,-188.5"/>
<text text-anchor="start" x="824" y="-205.3" font-family="Helvetica,sans-Serif" font-size="9.00">de.tu_clausthal.in.bachelorproject2018.ticktacktoe.model.player.</text>
<text text-anchor="middle" x="977" y="-195.3" font-family="Helvetica,sans-Serif" font-size="9.00">CHardBot</text>
</a>
</g>
</g>
<!-- Node1&#45;&gt;Node2 -->
<g id="edge3" class="edge"><title>Node1&#45;&gt;Node2</title>
<path fill="none" stroke="midnightblue" d="M661.786,-126.471C700.946,-142.628 761.462,-165.855 816,-179.5 829.748,-182.94 844.299,-185.917 858.799,-188.481"/>
<polygon fill="midnightblue" stroke="midnightblue" points="662.884,-123.137 652.307,-122.526 660.194,-129.6 662.884,-123.137"/>
</g>
<!-- Node3 -->
<g id="node5" class="node"><title>Node3</title>
<g id="a_node5"><a xlink:href="d3/d72/classde_1_1tu__clausthal_1_1in_1_1bachelorproject2018_1_1ticktacktoe_1_1model_1_1player_1_1CHuman.htm" target="_top" xlink:title="Klasse, um einen menschlichen Spieler darzustellen. ">
<polygon fill="none" stroke="black" points="816,-141.5 816,-169.5 1138,-169.5 1138,-141.5 816,-141.5"/>
<text text-anchor="start" x="824" y="-158.3" font-family="Helvetica,sans-Serif" font-size="9.00">de.tu_clausthal.in.bachelorproject2018.ticktacktoe.model.player.</text>
<text text-anchor="middle" x="977" y="-148.3" font-family="Helvetica,sans-Serif" font-size="9.00">CHuman</text>
</a>
</g>
</g>
<!-- Node1&#45;&gt;Node3 -->
<g id="edge4" class="edge"><title>Node1&#45;&gt;Node3</title>
<path fill="none" stroke="midnightblue" d="M736.279,-123.852C779.31,-129.533 827.833,-135.939 869.911,-141.494"/>
<polygon fill="midnightblue" stroke="midnightblue" points="736.702,-120.377 726.33,-122.538 735.785,-127.317 736.702,-120.377"/>
</g>
<!-- Node4 -->
<g id="node6" class="node"><title>Node4</title>
<g id="a_node6"><a xlink:href="de/d85/classde_1_1tu__clausthal_1_1in_1_1bachelorproject2018_1_1ticktacktoe_1_1model_1_1player_1_1CMediumBot.htm" target="_top" xlink:title="Klasse des Medium Bots. ">
<polygon fill="none" stroke="black" points="816,-94.5 816,-122.5 1138,-122.5 1138,-94.5 816,-94.5"/>
<text text-anchor="start" x="824" y="-111.3" font-family="Helvetica,sans-Serif" font-size="9.00">de.tu_clausthal.in.bachelorproject2018.ticktacktoe.model.player.</text>
<text text-anchor="middle" x="977" y="-101.3" font-family="Helvetica,sans-Serif" font-size="9.00">CMediumBot</text>
</a>
</g>
</g>
<!-- Node1&#45;&gt;Node4 -->
<g id="edge5" class="edge"><title>Node1&#45;&gt;Node4</title>
<path fill="none" stroke="midnightblue" d="M790.109,-108.5C798.703,-108.5 807.321,-108.5 815.884,-108.5"/>
<polygon fill="midnightblue" stroke="midnightblue" points="790.036,-105 780.036,-108.5 790.036,-112 790.036,-105"/>
</g>
<!-- Node5 -->
<g id="node7" class="node"><title>Node5</title>
<g id="a_node7"><a xlink:href="d2/d76/classde_1_1tu__clausthal_1_1in_1_1bachelorproject2018_1_1ticktacktoe_1_1model_1_1player_1_1CMinMaxBot.htm" target="_top" xlink:title="Klasse des Min&#45;Max&#45;Bot. ">
<polygon fill="none" stroke="black" points="816,-47.5 816,-75.5 1138,-75.5 1138,-47.5 816,-47.5"/>
<text text-anchor="start" x="824" y="-64.3" font-family="Helvetica,sans-Serif" font-size="9.00">de.tu_clausthal.in.bachelorproject2018.ticktacktoe.model.player.</text>
<text text-anchor="middle" x="977" y="-54.3" font-family="Helvetica,sans-Serif" font-size="9.00">CMinMaxBot</text>
</a>
</g>
</g>
<!-- Node1&#45;&gt;Node5 -->
<g id="edge6" class="edge"><title>Node1&#45;&gt;Node5</title>
<path fill="none" stroke="midnightblue" d="M736.279,-93.1485C779.31,-87.4675 827.833,-81.0614 869.911,-75.5061"/>
<polygon fill="midnightblue" stroke="midnightblue" points="735.785,-89.6833 726.33,-94.4621 736.702,-96.6231 735.785,-89.6833"/>
</g>
<!-- Node6 -->
<g id="node8" class="node"><title>Node6</title>
<g id="a_node8"><a xlink:href="d0/d60/classde_1_1tu__clausthal_1_1in_1_1bachelorproject2018_1_1ticktacktoe_1_1model_1_1player_1_1CRandomBot.htm" target="_top" xlink:title="Klasse des Random Bots. ">
<polygon fill="none" stroke="black" points="816,-0.5 816,-28.5 1138,-28.5 1138,-0.5 816,-0.5"/>
<text text-anchor="start" x="824" y="-17.3" font-family="Helvetica,sans-Serif" font-size="9.00">de.tu_clausthal.in.bachelorproject2018.ticktacktoe.model.player.</text>
<text text-anchor="middle" x="977" y="-7.3" font-family="Helvetica,sans-Serif" font-size="9.00">CRandomBot</text>
</a>
</g>
</g>
<!-- Node1&#45;&gt;Node6 -->
<g id="edge7" class="edge"><title>Node1&#45;&gt;Node6</title>
<path fill="none" stroke="midnightblue" d="M662.532,-90.5976C701.742,-74.7494 761.885,-52.085 816,-38.5 831.256,-34.6701 847.494,-31.3673 863.554,-28.5444"/>
<polygon fill="midnightblue" stroke="midnightblue" points="660.97,-87.4547 653.031,-94.4703 663.612,-93.9369 660.97,-87.4547"/>
</g>
</g>
</svg>
