<?xml version="1.0" encoding="UTF-8" standalone="no"?>
<!DOCTYPE svg PUBLIC "-//W3C//DTD SVG 1.1//EN"
 "http://www.w3.org/Graphics/SVG/1.1/DTD/svg11.dtd">
<!-- Generated by graphviz version 2.38.0 (20140413.2041)
 -->
<!-- Title: de.tu_clausthal.in.bachelorproject2018.ticktacktoe.controller.CSpielebrettController.set Pages: 1 -->
<svg width="1747pt" height="319pt"
 viewBox="0.00 0.00 1747.00 319.00" xmlns="http://www.w3.org/2000/svg" xmlns:xlink="http://www.w3.org/1999/xlink">
<g id="graph0" class="graph" transform="scale(1 1) rotate(0) translate(4 315)">
<title>de.tu_clausthal.in.bachelorproject2018.ticktacktoe.controller.CSpielebrettController.set</title>
<!-- Node4 -->
<g id="node1" class="node"><title>Node4</title>
<polygon fill="#bfbfbf" stroke="black" points="0,-141.5 0,-169.5 307,-169.5 307,-141.5 0,-141.5"/>
<text text-anchor="start" x="8" y="-158.3" font-family="Helvetica,sans-Serif" font-size="9.00">de.tu_clausthal.in.bachelorproject2018.ticktacktoe.controller.</text>
<text text-anchor="middle" x="153.5" y="-148.3" font-family="Helvetica,sans-Serif" font-size="9.00">CSpielebrettController.set</text>
</g>
<!-- Node5 -->
<g id="node2" class="node"><title>Node5</title>
<g id="a_node2"><a xlink:href="../../d3/d72/classde_1_1tu__clausthal_1_1in_1_1bachelorproject2018_1_1ticktacktoe_1_1model_1_1player_1_1CHuman.htm#acd4ed453c8b899debbc73f0e9d593670" target="_top" xlink:title="de.tu_clausthal.in.bachelorproject2018.ticktacktoe.model.player.\lCHuman.accept">
<polygon fill="none" stroke="black" points="343,-227.5 343,-255.5 665,-255.5 665,-227.5 343,-227.5"/>
<text text-anchor="start" x="351" y="-244.3" font-family="Helvetica,sans-Serif" font-size="9.00">de.tu_clausthal.in.bachelorproject2018.ticktacktoe.model.player.</text>
<text text-anchor="middle" x="504" y="-234.3" font-family="Helvetica,sans-Serif" font-size="9.00">CHuman.accept</text>
</a>
</g>
</g>
<!-- Node4&#45;&gt;Node5 -->
<g id="edge1" class="edge"><title>Node4&#45;&gt;Node5</title>
<path fill="none" stroke="midnightblue" d="M196.05,-169.561C233.997,-182.044 291.814,-200.165 343,-212.5 363.048,-217.331 384.681,-221.766 405.364,-225.638"/>
<polygon fill="midnightblue" stroke="midnightblue" points="404.961,-229.123 415.43,-227.493 406.229,-222.239 404.961,-229.123"/>
</g>
<!-- Node6 -->
<g id="node3" class="node"><title>Node6</title>
<g id="a_node3"><a xlink:href="../../d5/d40/classde_1_1tu__clausthal_1_1in_1_1bachelorproject2018_1_1ticktacktoe_1_1model_1_1player_1_1CHardBot.htm#abf6ed3b27a4b8aeb27485a3c3c064528" target="_top" xlink:title="de.tu_clausthal.in.bachelorproject2018.ticktacktoe.model.player.\lCHardBot.accept">
<polygon fill="none" stroke="black" points="343,-94.5 343,-122.5 665,-122.5 665,-94.5 343,-94.5"/>
<text text-anchor="start" x="351" y="-111.3" font-family="Helvetica,sans-Serif" font-size="9.00">de.tu_clausthal.in.bachelorproject2018.ticktacktoe.model.player.</text>
<text text-anchor="middle" x="504" y="-101.3" font-family="Helvetica,sans-Serif" font-size="9.00">CHardBot.accept</text>
</a>
</g>
</g>
<!-- Node4&#45;&gt;Node6 -->
<g id="edge2" class="edge"><title>Node4&#45;&gt;Node6</title>
<path fill="none" stroke="midnightblue" d="M258.589,-141.462C299.718,-135.915 347.107,-129.524 389.145,-123.855"/>
<polygon fill="midnightblue" stroke="midnightblue" points="389.703,-127.311 399.146,-122.506 388.768,-120.374 389.703,-127.311"/>
</g>
<!-- Node7 -->
<g id="node4" class="node"><title>Node7</title>
<g id="a_node4"><a xlink:href="../../d2/d76/classde_1_1tu__clausthal_1_1in_1_1bachelorproject2018_1_1ticktacktoe_1_1model_1_1player_1_1CMinMaxBot.htm#aa2c4f55ddf22413c3dc42d47df3891af" target="_top" xlink:title="de.tu_clausthal.in.bachelorproject2018.ticktacktoe.model.player.\lCMinMaxBot.accept">
<polygon fill="none" stroke="black" points="701,-141.5 701,-169.5 1023,-169.5 1023,-141.5 701,-141.5"/>
<text text-anchor="start" x="709" y="-158.3" font-family="Helvetica,sans-Serif" font-size="9.00">de.tu_clausthal.in.bachelorproject2018.ticktacktoe.model.player.</text>
<text text-anchor="middle" x="862" y="-148.3" font-family="Helvetica,sans-Serif" font-size="9.00">CMinMaxBot.accept</text>
</a>
</g>
</g>
<!-- Node4&#45;&gt;Node7 -->
<g id="edge22" class="edge"><title>Node4&#45;&gt;Node7</title>
<path fill="none" stroke="midnightblue" d="M250.673,-169.519C280.222,-173.21 312.889,-176.67 343,-178.5 485.847,-187.183 522.133,-186.854 665,-178.5 692.873,-176.87 722.861,-173.947 750.794,-170.72"/>
<polygon fill="midnightblue" stroke="midnightblue" points="751.463,-174.165 760.985,-169.519 750.644,-167.213 751.463,-174.165"/>
</g>
<!-- Node17 -->
<g id="node14" class="node"><title>Node17</title>
<g id="a_node14"><a xlink:href="../../d0/d60/classde_1_1tu__clausthal_1_1in_1_1bachelorproject2018_1_1ticktacktoe_1_1model_1_1player_1_1CRandomBot.htm#a68e29b68b4e55525001175a7537628ad" target="_top" xlink:title="de.tu_clausthal.in.bachelorproject2018.ticktacktoe.model.player.\lCRandomBot.accept">
<polygon fill="none" stroke="black" points="701,-94.5 701,-122.5 1023,-122.5 1023,-94.5 701,-94.5"/>
<text text-anchor="start" x="709" y="-111.3" font-family="Helvetica,sans-Serif" font-size="9.00">de.tu_clausthal.in.bachelorproject2018.ticktacktoe.model.player.</text>
<text text-anchor="middle" x="862" y="-101.3" font-family="Helvetica,sans-Serif" font-size="9.00">CRandomBot.accept</text>
</a>
</g>
</g>
<!-- Node4&#45;&gt;Node17 -->
<g id="edge21" class="edge"><title>Node4&#45;&gt;Node17</title>
<path fill="none" stroke="midnightblue" d="M182.326,-141.367C218.321,-123.952 283.48,-95.3376 343,-84.5 493.432,-57.1086 672.263,-76.6272 775.595,-92.8674"/>
<polygon fill="midnightblue" stroke="midnightblue" points="775.235,-96.3543 785.663,-94.477 776.341,-89.4421 775.235,-96.3543"/>
</g>
<!-- Node20 -->
<g id="node17" class="node"><title>Node20</title>
<g id="a_node17"><a xlink:href="../../de/d85/classde_1_1tu__clausthal_1_1in_1_1bachelorproject2018_1_1ticktacktoe_1_1model_1_1player_1_1CMediumBot.htm#a8b431ea082074110bef61bf64cbd154e" target="_top" xlink:title="de.tu_clausthal.in.bachelorproject2018.ticktacktoe.model.player.\lCMediumBot.accept">
<polygon fill="none" stroke="black" points="343,-141.5 343,-169.5 665,-169.5 665,-141.5 343,-141.5"/>
<text text-anchor="start" x="351" y="-158.3" font-family="Helvetica,sans-Serif" font-size="9.00">de.tu_clausthal.in.bachelorproject2018.ticktacktoe.model.player.</text>
<text text-anchor="middle" x="504" y="-148.3" font-family="Helvetica,sans-Serif" font-size="9.00">CMediumBot.accept</text>
</a>
</g>
</g>
<!-- Node4&#45;&gt;Node20 -->
<g id="edge18" class="edge"><title>Node4&#45;&gt;Node20</title>
<path fill="none" stroke="midnightblue" d="M307.104,-155.5C315.654,-155.5 324.275,-155.5 332.883,-155.5"/>
<polygon fill="midnightblue" stroke="midnightblue" points="332.977,-159 342.977,-155.5 332.976,-152 332.977,-159"/>
</g>
<!-- Node6&#45;&gt;Node7 -->
<g id="edge3" class="edge"><title>Node6&#45;&gt;Node7</title>
<path fill="none" stroke="midnightblue" d="M611.33,-122.538C653.432,-128.096 701.957,-134.503 744.966,-140.181"/>
<polygon fill="midnightblue" stroke="midnightblue" points="744.539,-143.655 754.911,-141.494 745.455,-136.715 744.539,-143.655"/>
</g>
<!-- Node6&#45;&gt;Node17 -->
<g id="edge13" class="edge"><title>Node6&#45;&gt;Node17</title>
<path fill="none" stroke="midnightblue" d="M665.036,-108.5C673.599,-108.5 682.217,-108.5 690.811,-108.5"/>
<polygon fill="midnightblue" stroke="midnightblue" points="690.884,-112 700.884,-108.5 690.884,-105 690.884,-112"/>
</g>
<!-- Node8 -->
<g id="node5" class="node"><title>Node8</title>
<g id="a_node5"><a xlink:href="../../d2/d76/classde_1_1tu__clausthal_1_1in_1_1bachelorproject2018_1_1ticktacktoe_1_1model_1_1player_1_1CMinMaxBot.htm#a28eb67c76e1e35cb5899be58c846d93c" target="_top" xlink:title="de.tu_clausthal.in.bachelorproject2018.ticktacktoe.model.player.\lCMinMaxBot.toIntArray">
<polygon fill="none" stroke="black" points="1059,-258.5 1059,-286.5 1381,-286.5 1381,-258.5 1059,-258.5"/>
<text text-anchor="start" x="1067" y="-275.3" font-family="Helvetica,sans-Serif" font-size="9.00">de.tu_clausthal.in.bachelorproject2018.ticktacktoe.model.player.</text>
<text text-anchor="middle" x="1220" y="-265.3" font-family="Helvetica,sans-Serif" font-size="9.00">CMinMaxBot.toIntArray</text>
</a>
</g>
</g>
<!-- Node7&#45;&gt;Node8 -->
<g id="edge4" class="edge"><title>Node7&#45;&gt;Node8</title>
<path fill="none" stroke="midnightblue" d="M900.356,-169.562C939.631,-184.176 1003.33,-207.4 1059,-225.5 1091.65,-236.117 1128.39,-246.984 1158.42,-255.59"/>
<polygon fill="midnightblue" stroke="midnightblue" points="1157.75,-259.04 1168.33,-258.419 1159.67,-252.309 1157.75,-259.04"/>
</g>
<!-- Node10 -->
<g id="node7" class="node"><title>Node10</title>
<g id="a_node7"><a xlink:href="../../d2/d76/classde_1_1tu__clausthal_1_1in_1_1bachelorproject2018_1_1ticktacktoe_1_1model_1_1player_1_1CMinMaxBot.htm#ac3fcc2ef4bf46696791d254643fe3012" target="_top" xlink:title="de.tu_clausthal.in.bachelorproject2018.ticktacktoe.model.player.\lCMinMaxBot.minimax">
<polygon fill="none" stroke="black" points="1059,-188.5 1059,-216.5 1381,-216.5 1381,-188.5 1059,-188.5"/>
<text text-anchor="start" x="1067" y="-205.3" font-family="Helvetica,sans-Serif" font-size="9.00">de.tu_clausthal.in.bachelorproject2018.ticktacktoe.model.player.</text>
<text text-anchor="middle" x="1220" y="-195.3" font-family="Helvetica,sans-Serif" font-size="9.00">CMinMaxBot.minimax</text>
</a>
</g>
</g>
<!-- Node7&#45;&gt;Node10 -->
<g id="edge6" class="edge"><title>Node7&#45;&gt;Node10</title>
<path fill="none" stroke="midnightblue" d="M969.33,-169.538C1011.43,-175.096 1059.96,-181.503 1102.97,-187.181"/>
<polygon fill="midnightblue" stroke="midnightblue" points="1102.54,-190.655 1112.91,-188.494 1103.46,-183.715 1102.54,-190.655"/>
</g>
<!-- Node15 -->
<g id="node12" class="node"><title>Node15</title>
<g id="a_node12"><a xlink:href="../../d5/d48/interfacede_1_1tu__clausthal_1_1in_1_1bachelorproject2018_1_1ticktacktoe_1_1model_1_1brett_1_1ISpieleBrett.htm#abde84410b9665938a28238a0ee9043eb" target="_top" xlink:title="prüft ob das Feld in das gesetzt werden soll leer ist und setzt wenn dies der Fall ist prüft nach dem...">
<polygon fill="none" stroke="black" points="1061.5,-141.5 1061.5,-169.5 1378.5,-169.5 1378.5,-141.5 1061.5,-141.5"/>
<text text-anchor="start" x="1069.5" y="-158.3" font-family="Helvetica,sans-Serif" font-size="9.00">de.tu_clausthal.in.bachelorproject2018.ticktacktoe.model.brett.</text>
<text text-anchor="middle" x="1220" y="-148.3" font-family="Helvetica,sans-Serif" font-size="9.00">ISpieleBrett.set</text>
</a>
</g>
</g>
<!-- Node7&#45;&gt;Node15 -->
<g id="edge11" class="edge"><title>Node7&#45;&gt;Node15</title>
<path fill="none" stroke="midnightblue" d="M1023.04,-155.5C1032.4,-155.5 1041.82,-155.5 1051.21,-155.5"/>
<polygon fill="midnightblue" stroke="midnightblue" points="1051.38,-159 1061.38,-155.5 1051.38,-152 1051.38,-159"/>
</g>
<!-- Node16 -->
<g id="node13" class="node"><title>Node16</title>
<g id="a_node13"><a xlink:href="../../dc/de8/enumde_1_1tu__clausthal_1_1in_1_1bachelorproject2018_1_1ticktacktoe_1_1model_1_1item_1_1EItem.htm#a0234b7a68e995c175debdd4b7ec85767" target="_top" xlink:title="erzeugt ein neues Objekt (Factory) ">
<polygon fill="none" stroke="black" points="1063,-94.5 1063,-122.5 1377,-122.5 1377,-94.5 1063,-94.5"/>
<text text-anchor="start" x="1071" y="-111.3" font-family="Helvetica,sans-Serif" font-size="9.00">de.tu_clausthal.in.bachelorproject2018.ticktacktoe.model.item.</text>
<text text-anchor="middle" x="1220" y="-101.3" font-family="Helvetica,sans-Serif" font-size="9.00">EItem.apply</text>
</a>
</g>
</g>
<!-- Node7&#45;&gt;Node16 -->
<g id="edge12" class="edge"><title>Node7&#45;&gt;Node16</title>
<path fill="none" stroke="midnightblue" d="M969.33,-141.462C1011.43,-135.904 1059.96,-129.497 1102.97,-123.819"/>
<polygon fill="midnightblue" stroke="midnightblue" points="1103.46,-127.285 1112.91,-122.506 1102.54,-120.345 1103.46,-127.285"/>
</g>
<!-- Node9 -->
<g id="node6" class="node"><title>Node9</title>
<g id="a_node6"><a xlink:href="../../d5/d48/interfacede_1_1tu__clausthal_1_1in_1_1bachelorproject2018_1_1ticktacktoe_1_1model_1_1brett_1_1ISpieleBrett.htm#a4268f46b928360d7dc3eb703d6bbc160" target="_top" xlink:title="de.tu_clausthal.in.bachelorproject2018.ticktacktoe.model.brett.\lISpieleBrett.getM_elements">
<polygon fill="none" stroke="black" points="1419.5,-282.5 1419.5,-310.5 1736.5,-310.5 1736.5,-282.5 1419.5,-282.5"/>
<text text-anchor="start" x="1427.5" y="-299.3" font-family="Helvetica,sans-Serif" font-size="9.00">de.tu_clausthal.in.bachelorproject2018.ticktacktoe.model.brett.</text>
<text text-anchor="middle" x="1578" y="-289.3" font-family="Helvetica,sans-Serif" font-size="9.00">ISpieleBrett.getM_elements</text>
</a>
</g>
</g>
<!-- Node8&#45;&gt;Node9 -->
<g id="edge5" class="edge"><title>Node8&#45;&gt;Node9</title>
<path fill="none" stroke="midnightblue" d="M1381.04,-283.289C1390.4,-283.92 1399.82,-284.555 1409.21,-285.188"/>
<polygon fill="midnightblue" stroke="midnightblue" points="1409.16,-288.693 1419.38,-285.874 1409.63,-281.709 1409.16,-288.693"/>
</g>
<!-- Node11 -->
<g id="node8" class="node"><title>Node11</title>
<g id="a_node8"><a xlink:href="../../d2/d76/classde_1_1tu__clausthal_1_1in_1_1bachelorproject2018_1_1ticktacktoe_1_1model_1_1player_1_1CMinMaxBot.htm#a0b5e53061505790c6267984c88548592" target="_top" xlink:title="de.tu_clausthal.in.bachelorproject2018.ticktacktoe.model.player.\lCMinMaxBot.hasOWon">
<polygon fill="none" stroke="black" points="1417,-94.5 1417,-122.5 1739,-122.5 1739,-94.5 1417,-94.5"/>
<text text-anchor="start" x="1425" y="-111.3" font-family="Helvetica,sans-Serif" font-size="9.00">de.tu_clausthal.in.bachelorproject2018.ticktacktoe.model.player.</text>
<text text-anchor="middle" x="1578" y="-101.3" font-family="Helvetica,sans-Serif" font-size="9.00">CMinMaxBot.hasOWon</text>
</a>
</g>
</g>
<!-- Node10&#45;&gt;Node11 -->
<g id="edge7" class="edge"><title>Node10&#45;&gt;Node11</title>
<path fill="none" stroke="midnightblue" d="M1360.36,-188.496C1367.53,-185.661 1374.47,-182.354 1381,-178.5 1403.66,-165.13 1394.3,-144.801 1417,-131.5 1419.91,-129.798 1422.89,-128.204 1425.94,-126.714"/>
<polygon fill="midnightblue" stroke="midnightblue" points="1427.57,-129.818 1435.27,-122.543 1424.72,-123.428 1427.57,-129.818"/>
</g>
<!-- Node12 -->
<g id="node9" class="node"><title>Node12</title>
<g id="a_node9"><a xlink:href="../../d2/d76/classde_1_1tu__clausthal_1_1in_1_1bachelorproject2018_1_1ticktacktoe_1_1model_1_1player_1_1CMinMaxBot.htm#a127917470634317721182b1a76f5c16a" target="_top" xlink:title="de.tu_clausthal.in.bachelorproject2018.ticktacktoe.model.player.\lCMinMaxBot.hasXWon">
<polygon fill="none" stroke="black" points="1417,-235.5 1417,-263.5 1739,-263.5 1739,-235.5 1417,-235.5"/>
<text text-anchor="start" x="1425" y="-252.3" font-family="Helvetica,sans-Serif" font-size="9.00">de.tu_clausthal.in.bachelorproject2018.ticktacktoe.model.player.</text>
<text text-anchor="middle" x="1578" y="-242.3" font-family="Helvetica,sans-Serif" font-size="9.00">CMinMaxBot.hasXWon</text>
</a>
</g>
</g>
<!-- Node10&#45;&gt;Node12 -->
<g id="edge8" class="edge"><title>Node10&#45;&gt;Node12</title>
<path fill="none" stroke="midnightblue" d="M1327.33,-216.538C1369.43,-222.096 1417.96,-228.503 1460.97,-234.181"/>
<polygon fill="midnightblue" stroke="midnightblue" points="1460.54,-237.655 1470.91,-235.494 1461.46,-230.715 1460.54,-237.655"/>
</g>
<!-- Node13 -->
<g id="node10" class="node"><title>Node13</title>
<g id="a_node10"><a xlink:href="../../d2/d76/classde_1_1tu__clausthal_1_1in_1_1bachelorproject2018_1_1ticktacktoe_1_1model_1_1player_1_1CMinMaxBot.htm#a24c9e6c88f1e50f61c242d5d3a93639b" target="_top" xlink:title="de.tu_clausthal.in.bachelorproject2018.ticktacktoe.model.player.\lCMinMaxBot.getAvailableStates">
<polygon fill="none" stroke="black" points="1417,-188.5 1417,-216.5 1739,-216.5 1739,-188.5 1417,-188.5"/>
<text text-anchor="start" x="1425" y="-205.3" font-family="Helvetica,sans-Serif" font-size="9.00">de.tu_clausthal.in.bachelorproject2018.ticktacktoe.model.player.</text>
<text text-anchor="middle" x="1578" y="-195.3" font-family="Helvetica,sans-Serif" font-size="9.00">CMinMaxBot.getAvailableStates</text>
</a>
</g>
</g>
<!-- Node10&#45;&gt;Node13 -->
<g id="edge9" class="edge"><title>Node10&#45;&gt;Node13</title>
<path fill="none" stroke="midnightblue" d="M1381.04,-202.5C1389.6,-202.5 1398.22,-202.5 1406.81,-202.5"/>
<polygon fill="midnightblue" stroke="midnightblue" points="1406.88,-206 1416.88,-202.5 1406.88,-199 1406.88,-206"/>
</g>
<!-- Node14 -->
<g id="node11" class="node"><title>Node14</title>
<g id="a_node11"><a xlink:href="../../d2/d76/classde_1_1tu__clausthal_1_1in_1_1bachelorproject2018_1_1ticktacktoe_1_1model_1_1player_1_1CMinMaxBot.htm#a5bd4bafb99162bb6b4a3c84847799db0" target="_top" xlink:title="de.tu_clausthal.in.bachelorproject2018.ticktacktoe.model.player.\lCMinMaxBot.placeAMove">
<polygon fill="none" stroke="black" points="1417,-141.5 1417,-169.5 1739,-169.5 1739,-141.5 1417,-141.5"/>
<text text-anchor="start" x="1425" y="-158.3" font-family="Helvetica,sans-Serif" font-size="9.00">de.tu_clausthal.in.bachelorproject2018.ticktacktoe.model.player.</text>
<text text-anchor="middle" x="1578" y="-148.3" font-family="Helvetica,sans-Serif" font-size="9.00">CMinMaxBot.placeAMove</text>
</a>
</g>
</g>
<!-- Node10&#45;&gt;Node14 -->
<g id="edge10" class="edge"><title>Node10&#45;&gt;Node14</title>
<path fill="none" stroke="midnightblue" d="M1327.33,-188.462C1369.43,-182.904 1417.96,-176.497 1460.97,-170.819"/>
<polygon fill="midnightblue" stroke="midnightblue" points="1461.46,-174.285 1470.91,-169.506 1460.54,-167.345 1461.46,-174.285"/>
</g>
<!-- Node17&#45;&gt;Node15 -->
<g id="edge16" class="edge"><title>Node17&#45;&gt;Node15</title>
<path fill="none" stroke="midnightblue" d="M969.33,-122.538C1011.43,-128.096 1059.96,-134.503 1102.97,-140.181"/>
<polygon fill="midnightblue" stroke="midnightblue" points="1102.54,-143.655 1112.91,-141.494 1103.46,-136.715 1102.54,-143.655"/>
</g>
<!-- Node17&#45;&gt;Node16 -->
<g id="edge17" class="edge"><title>Node17&#45;&gt;Node16</title>
<path fill="none" stroke="midnightblue" d="M1023.04,-108.5C1032.84,-108.5 1042.71,-108.5 1052.54,-108.5"/>
<polygon fill="midnightblue" stroke="midnightblue" points="1052.76,-112 1062.76,-108.5 1052.76,-105 1052.76,-112"/>
</g>
<!-- Node18 -->
<g id="node15" class="node"><title>Node18</title>
<g id="a_node15"><a xlink:href="../../d5/d48/interfacede_1_1tu__clausthal_1_1in_1_1bachelorproject2018_1_1ticktacktoe_1_1model_1_1brett_1_1ISpieleBrett.htm#a943a74de94cf92086e0a0283f2cc1af9" target="_top" xlink:title="liefert die Breite des Spielefelds ">
<polygon fill="none" stroke="black" points="1061.5,-47.5 1061.5,-75.5 1378.5,-75.5 1378.5,-47.5 1061.5,-47.5"/>
<text text-anchor="start" x="1069.5" y="-64.3" font-family="Helvetica,sans-Serif" font-size="9.00">de.tu_clausthal.in.bachelorproject2018.ticktacktoe.model.brett.</text>
<text text-anchor="middle" x="1220" y="-54.3" font-family="Helvetica,sans-Serif" font-size="9.00">ISpieleBrett.width</text>
</a>
</g>
</g>
<!-- Node17&#45;&gt;Node18 -->
<g id="edge14" class="edge"><title>Node17&#45;&gt;Node18</title>
<path fill="none" stroke="midnightblue" d="M969.33,-94.4621C1011.43,-88.9036 1059.96,-82.4973 1102.97,-76.8191"/>
<polygon fill="midnightblue" stroke="midnightblue" points="1103.46,-80.285 1112.91,-75.5061 1102.54,-73.3452 1103.46,-80.285"/>
</g>
<!-- Node19 -->
<g id="node16" class="node"><title>Node19</title>
<g id="a_node16"><a xlink:href="../../d5/d48/interfacede_1_1tu__clausthal_1_1in_1_1bachelorproject2018_1_1ticktacktoe_1_1model_1_1brett_1_1ISpieleBrett.htm#a23b2374a742c938f67f7d830d4b6a8fd" target="_top" xlink:title="liefert die Höhe des Spielefelds ">
<polygon fill="none" stroke="black" points="1061.5,-0.5 1061.5,-28.5 1378.5,-28.5 1378.5,-0.5 1061.5,-0.5"/>
<text text-anchor="start" x="1069.5" y="-17.3" font-family="Helvetica,sans-Serif" font-size="9.00">de.tu_clausthal.in.bachelorproject2018.ticktacktoe.model.brett.</text>
<text text-anchor="middle" x="1220" y="-7.3" font-family="Helvetica,sans-Serif" font-size="9.00">ISpieleBrett.height</text>
</a>
</g>
</g>
<!-- Node17&#45;&gt;Node19 -->
<g id="edge15" class="edge"><title>Node17&#45;&gt;Node19</title>
<path fill="none" stroke="midnightblue" d="M895.307,-94.4738C933.646,-78.3773 999.841,-52.301 1059,-37.5 1069.63,-34.8396 1080.75,-32.4557 1091.95,-30.3257"/>
<polygon fill="midnightblue" stroke="midnightblue" points="1092.59,-33.7651 1101.8,-28.5187 1091.33,-26.8799 1092.59,-33.7651"/>
</g>
<!-- Node20&#45;&gt;Node7 -->
<g id="edge19" class="edge"><title>Node20&#45;&gt;Node7</title>
<path fill="none" stroke="midnightblue" d="M665.036,-155.5C673.599,-155.5 682.217,-155.5 690.811,-155.5"/>
<polygon fill="midnightblue" stroke="midnightblue" points="690.884,-159 700.884,-155.5 690.884,-152 690.884,-159"/>
</g>
<!-- Node20&#45;&gt;Node17 -->
<g id="edge20" class="edge"><title>Node20&#45;&gt;Node17</title>
<path fill="none" stroke="midnightblue" d="M611.33,-141.462C653.432,-135.904 701.957,-129.497 744.966,-123.819"/>
<polygon fill="midnightblue" stroke="midnightblue" points="745.455,-127.285 754.911,-122.506 744.539,-120.345 745.455,-127.285"/>
</g>
</g>
</svg>
