<?xml version="1.0" encoding="UTF-8" standalone="no"?>
<!DOCTYPE svg PUBLIC "-//W3C//DTD SVG 1.1//EN"
 "http://www.w3.org/Graphics/SVG/1.1/DTD/svg11.dtd">
<!-- Generated by graphviz version 2.38.0 (20140413.2041)
 -->
<!-- Title: de.tu_clausthal.in.bachelorproject2018.ticktacktoe.model.player.CHardBot Pages: 1 -->
<svg width="330pt" height="345pt"
 viewBox="0.00 0.00 330.00 345.00" xmlns="http://www.w3.org/2000/svg" xmlns:xlink="http://www.w3.org/1999/xlink">
<g id="graph0" class="graph" transform="scale(1 1) rotate(0) translate(4 341)">
<title>de.tu_clausthal.in.bachelorproject2018.ticktacktoe.model.player.CHardBot</title>
<!-- Node0 -->
<g id="node1" class="node"><title>Node0</title>
<polygon fill="#bfbfbf" stroke="black" points="0,-0.5 0,-94.5 322,-94.5 322,-0.5 0,-0.5"/>
<text text-anchor="start" x="8" y="-83.3" font-family="Helvetica,sans-Serif" font-size="9.00">de.tu_clausthal.in.bachelorproject2018.ticktacktoe.model.player.</text>
<text text-anchor="middle" x="161" y="-73.3" font-family="Helvetica,sans-Serif" font-size="9.00">CHardBot</text>
<polyline fill="none" stroke="black" points="0,-66.5 322,-66.5 "/>
<text text-anchor="start" x="8" y="-55.3" font-family="Helvetica,sans-Serif" font-size="9.00">&#45; m_MinMaxBot</text>
<text text-anchor="start" x="8" y="-45.3" font-family="Helvetica,sans-Serif" font-size="9.00">&#45; m_random</text>
<text text-anchor="start" x="8" y="-35.3" font-family="Helvetica,sans-Serif" font-size="9.00">&#45; m_RandomBot</text>
<polyline fill="none" stroke="black" points="0,-28.5 322,-28.5 "/>
<text text-anchor="start" x="8" y="-17.3" font-family="Helvetica,sans-Serif" font-size="9.00">+ CHardBot()</text>
<text text-anchor="start" x="8" y="-7.3" font-family="Helvetica,sans-Serif" font-size="9.00">+ accept()</text>
</g>
<!-- Node1 -->
<g id="node2" class="node"><title>Node1</title>
<g id="a_node2"><a xlink:href="../../df/dec/classde_1_1tu__clausthal_1_1in_1_1bachelorproject2018_1_1ticktacktoe_1_1model_1_1player_1_1IBasePlayer.htm" target="_top" xlink:title="abstrakte Klasse eines Spielers, der den Namen und das Item, das er setzen kann enthält ...">
<polygon fill="none" stroke="black" points="0,-131.5 0,-235.5 322,-235.5 322,-131.5 0,-131.5"/>
<text text-anchor="start" x="8" y="-224.3" font-family="Helvetica,sans-Serif" font-size="9.00">de.tu_clausthal.in.bachelorproject2018.ticktacktoe.model.player.</text>
<text text-anchor="middle" x="161" y="-214.3" font-family="Helvetica,sans-Serif" font-size="9.00">IBasePlayer</text>
<polyline fill="none" stroke="black" points="0,-207.5 322,-207.5 "/>
<text text-anchor="start" x="8" y="-196.3" font-family="Helvetica,sans-Serif" font-size="9.00"># m_value</text>
<text text-anchor="start" x="8" y="-186.3" font-family="Helvetica,sans-Serif" font-size="9.00">&#45; m_name</text>
<polyline fill="none" stroke="black" points="0,-179.5 322,-179.5 "/>
<text text-anchor="start" x="8" y="-168.3" font-family="Helvetica,sans-Serif" font-size="9.00">+ equals()</text>
<text text-anchor="start" x="8" y="-158.3" font-family="Helvetica,sans-Serif" font-size="9.00">+ hashCode()</text>
<text text-anchor="start" x="8" y="-148.3" font-family="Helvetica,sans-Serif" font-size="9.00">+ name()</text>
<text text-anchor="start" x="8" y="-138.3" font-family="Helvetica,sans-Serif" font-size="9.00"># IBasePlayer()</text>
</a>
</g>
</g>
<!-- Node1&#45;&gt;Node0 -->
<g id="edge1" class="edge"><title>Node1&#45;&gt;Node0</title>
<path fill="none" stroke="midnightblue" d="M161,-121.377C161,-112.363 161,-103.206 161,-94.5654"/>
<polygon fill="none" stroke="midnightblue" points="157.5,-121.458 161,-131.458 164.5,-121.458 157.5,-121.458"/>
</g>
<!-- Node2 -->
<g id="node3" class="node"><title>Node2</title>
<g id="a_node3"><a xlink:href="../../dc/d5f/interfacede_1_1tu__clausthal_1_1in_1_1bachelorproject2018_1_1ticktacktoe_1_1model_1_1player_1_1IPlayer.htm" target="_top" xlink:title="Interface für einen Spieler (Bot oder Mensch). ">
<polygon fill="none" stroke="black" points="0,-272.5 0,-336.5 322,-336.5 322,-272.5 0,-272.5"/>
<text text-anchor="start" x="8" y="-325.3" font-family="Helvetica,sans-Serif" font-size="9.00">de.tu_clausthal.in.bachelorproject2018.ticktacktoe.model.player.</text>
<text text-anchor="middle" x="161" y="-315.3" font-family="Helvetica,sans-Serif" font-size="9.00">IPlayer</text>
<polyline fill="none" stroke="black" points="0,-308.5 322,-308.5 "/>
<text text-anchor="middle" x="161" y="-297.3" font-family="Helvetica,sans-Serif" font-size="9.00"> </text>
<polyline fill="none" stroke="black" points="0,-290.5 322,-290.5 "/>
<text text-anchor="start" x="8" y="-279.3" font-family="Helvetica,sans-Serif" font-size="9.00">+ name()</text>
</a>
</g>
</g>
<!-- Node2&#45;&gt;Node1 -->
<g id="edge2" class="edge"><title>Node2&#45;&gt;Node1</title>
<path fill="none" stroke="midnightblue" d="M161,-262.181C161,-253.673 161,-244.616 161,-235.803"/>
<polygon fill="none" stroke="midnightblue" points="157.5,-262.234 161,-272.234 164.5,-262.234 157.5,-262.234"/>
</g>
</g>
</svg>
