<?xml version="1.0" encoding="UTF-8" standalone="no"?>
<!DOCTYPE svg PUBLIC "-//W3C//DTD SVG 1.1//EN"
 "http://www.w3.org/Graphics/SVG/1.1/DTD/svg11.dtd">
<!-- Generated by graphviz version 2.38.0 (20140413.2041)
 -->
<!-- Title: de.tu_clausthal.in.bachelorproject2018.ticktacktoe.model.player.CMinMaxBot Pages: 1 -->
<svg width="330pt" height="405pt"
 viewBox="0.00 0.00 330.00 405.00" xmlns="http://www.w3.org/2000/svg" xmlns:xlink="http://www.w3.org/1999/xlink">
<g id="graph0" class="graph" transform="scale(1 1) rotate(0) translate(4 401)">
<title>de.tu_clausthal.in.bachelorproject2018.ticktacktoe.model.player.CMinMaxBot</title>
<!-- Node0 -->
<g id="node1" class="node"><title>Node0</title>
<polygon fill="#bfbfbf" stroke="black" points="0,-0.5 0,-154.5 322,-154.5 322,-0.5 0,-0.5"/>
<text text-anchor="start" x="8" y="-143.3" font-family="Helvetica,sans-Serif" font-size="9.00">de.tu_clausthal.in.bachelorproject2018.ticktacktoe.model.player.</text>
<text text-anchor="middle" x="161" y="-133.3" font-family="Helvetica,sans-Serif" font-size="9.00">CMinMaxBot</text>
<polyline fill="none" stroke="black" points="0,-126.5 322,-126.5 "/>
<text text-anchor="start" x="8" y="-115.3" font-family="Helvetica,sans-Serif" font-size="9.00">~ availablePoints</text>
<text text-anchor="start" x="8" y="-105.3" font-family="Helvetica,sans-Serif" font-size="9.00">~ board</text>
<text text-anchor="start" x="8" y="-95.3" font-family="Helvetica,sans-Serif" font-size="9.00">~ computersMove</text>
<polyline fill="none" stroke="black" points="0,-88.5 322,-88.5 "/>
<text text-anchor="start" x="8" y="-77.3" font-family="Helvetica,sans-Serif" font-size="9.00">+ CMinMaxBot()</text>
<text text-anchor="start" x="8" y="-67.3" font-family="Helvetica,sans-Serif" font-size="9.00">+ accept()</text>
<text text-anchor="start" x="8" y="-57.3" font-family="Helvetica,sans-Serif" font-size="9.00">+ getAvailableStates()</text>
<text text-anchor="start" x="8" y="-47.3" font-family="Helvetica,sans-Serif" font-size="9.00">+ hasOWon()</text>
<text text-anchor="start" x="8" y="-37.3" font-family="Helvetica,sans-Serif" font-size="9.00">+ hasXWon()</text>
<text text-anchor="start" x="8" y="-27.3" font-family="Helvetica,sans-Serif" font-size="9.00">+ minimax()</text>
<text text-anchor="start" x="8" y="-17.3" font-family="Helvetica,sans-Serif" font-size="9.00">+ placeAMove()</text>
<text text-anchor="start" x="8" y="-7.3" font-family="Helvetica,sans-Serif" font-size="9.00">+ toIntArray()</text>
</g>
<!-- Node1 -->
<g id="node2" class="node"><title>Node1</title>
<g id="a_node2"><a xlink:href="../../df/dec/classde_1_1tu__clausthal_1_1in_1_1bachelorproject2018_1_1ticktacktoe_1_1model_1_1player_1_1IBasePlayer.htm" target="_top" xlink:title="abstrakte Klasse eines Spielers, der den Namen und das Item, das er setzen kann enthält ...">
<polygon fill="none" stroke="black" points="0,-191.5 0,-295.5 322,-295.5 322,-191.5 0,-191.5"/>
<text text-anchor="start" x="8" y="-284.3" font-family="Helvetica,sans-Serif" font-size="9.00">de.tu_clausthal.in.bachelorproject2018.ticktacktoe.model.player.</text>
<text text-anchor="middle" x="161" y="-274.3" font-family="Helvetica,sans-Serif" font-size="9.00">IBasePlayer</text>
<polyline fill="none" stroke="black" points="0,-267.5 322,-267.5 "/>
<text text-anchor="start" x="8" y="-256.3" font-family="Helvetica,sans-Serif" font-size="9.00"># m_value</text>
<text text-anchor="start" x="8" y="-246.3" font-family="Helvetica,sans-Serif" font-size="9.00">&#45; m_name</text>
<polyline fill="none" stroke="black" points="0,-239.5 322,-239.5 "/>
<text text-anchor="start" x="8" y="-228.3" font-family="Helvetica,sans-Serif" font-size="9.00">+ equals()</text>
<text text-anchor="start" x="8" y="-218.3" font-family="Helvetica,sans-Serif" font-size="9.00">+ hashCode()</text>
<text text-anchor="start" x="8" y="-208.3" font-family="Helvetica,sans-Serif" font-size="9.00">+ name()</text>
<text text-anchor="start" x="8" y="-198.3" font-family="Helvetica,sans-Serif" font-size="9.00"># IBasePlayer()</text>
</a>
</g>
</g>
<!-- Node1&#45;&gt;Node0 -->
<g id="edge1" class="edge"><title>Node1&#45;&gt;Node0</title>
<path fill="none" stroke="midnightblue" d="M161,-180.83C161,-172.294 161,-163.444 161,-154.683"/>
<polygon fill="none" stroke="midnightblue" points="157.5,-181.059 161,-191.059 164.5,-181.059 157.5,-181.059"/>
</g>
<!-- Node2 -->
<g id="node3" class="node"><title>Node2</title>
<g id="a_node3"><a xlink:href="../../dc/d5f/interfacede_1_1tu__clausthal_1_1in_1_1bachelorproject2018_1_1ticktacktoe_1_1model_1_1player_1_1IPlayer.htm" target="_top" xlink:title="Interface für einen Spieler (Bot oder Mensch). ">
<polygon fill="none" stroke="black" points="0,-332.5 0,-396.5 322,-396.5 322,-332.5 0,-332.5"/>
<text text-anchor="start" x="8" y="-385.3" font-family="Helvetica,sans-Serif" font-size="9.00">de.tu_clausthal.in.bachelorproject2018.ticktacktoe.model.player.</text>
<text text-anchor="middle" x="161" y="-375.3" font-family="Helvetica,sans-Serif" font-size="9.00">IPlayer</text>
<polyline fill="none" stroke="black" points="0,-368.5 322,-368.5 "/>
<text text-anchor="middle" x="161" y="-357.3" font-family="Helvetica,sans-Serif" font-size="9.00"> </text>
<polyline fill="none" stroke="black" points="0,-350.5 322,-350.5 "/>
<text text-anchor="start" x="8" y="-339.3" font-family="Helvetica,sans-Serif" font-size="9.00">+ name()</text>
</a>
</g>
</g>
<!-- Node2&#45;&gt;Node1 -->
<g id="edge2" class="edge"><title>Node2&#45;&gt;Node1</title>
<path fill="none" stroke="midnightblue" d="M161,-322.181C161,-313.673 161,-304.616 161,-295.803"/>
<polygon fill="none" stroke="midnightblue" points="157.5,-322.234 161,-332.234 164.5,-322.234 157.5,-322.234"/>
</g>
</g>
</svg>
