<?xml version="1.0" encoding="UTF-8" standalone="no"?>
<!DOCTYPE svg PUBLIC "-//W3C//DTD SVG 1.1//EN"
 "http://www.w3.org/Graphics/SVG/1.1/DTD/svg11.dtd">
<!-- Generated by graphviz version 2.38.0 (20140413.2041)
 -->
<!-- Title: de.tu_clausthal.in.bachelorproject2018.ticktacktoe.model.player.IBasePlayer Pages: 1 -->
<svg width="662pt" height="214pt"
 viewBox="0.00 0.00 662.00 214.00" xmlns="http://www.w3.org/2000/svg" xmlns:xlink="http://www.w3.org/1999/xlink">
<g id="graph0" class="graph" transform="scale(1 1) rotate(0) translate(4 210)">
<title>de.tu_clausthal.in.bachelorproject2018.ticktacktoe.model.player.IBasePlayer</title>
<!-- Node7 -->
<g id="node1" class="node"><title>Node7</title>
<polygon fill="#bfbfbf" stroke="black" points="168,-0.5 168,-94.5 490,-94.5 490,-0.5 168,-0.5"/>
<text text-anchor="start" x="176" y="-83.3" font-family="Helvetica,sans-Serif" font-size="9.00">de.tu_clausthal.in.bachelorproject2018.ticktacktoe.model.player.</text>
<text text-anchor="middle" x="329" y="-73.3" font-family="Helvetica,sans-Serif" font-size="9.00">IBasePlayer</text>
<polyline fill="none" stroke="black" points="168,-66.5 490,-66.5 "/>
<text text-anchor="start" x="176" y="-55.3" font-family="Helvetica,sans-Serif" font-size="9.00">&#45; m_name</text>
<polyline fill="none" stroke="black" points="168,-48.5 490,-48.5 "/>
<text text-anchor="start" x="176" y="-37.3" font-family="Helvetica,sans-Serif" font-size="9.00">+ equals()</text>
<text text-anchor="start" x="176" y="-27.3" font-family="Helvetica,sans-Serif" font-size="9.00">+ hashCode()</text>
<text text-anchor="start" x="176" y="-17.3" font-family="Helvetica,sans-Serif" font-size="9.00">+ name()</text>
<text text-anchor="start" x="176" y="-7.3" font-family="Helvetica,sans-Serif" font-size="9.00"># IBasePlayer()</text>
</g>
<!-- Node8 -->
<g id="node2" class="node"><title>Node8</title>
<g id="a_node2"><a xlink:href="../../dc/d5f/interfacede_1_1tu__clausthal_1_1in_1_1bachelorproject2018_1_1ticktacktoe_1_1model_1_1player_1_1IPlayer.htm" target="_top" xlink:title="Interface für einen Spieler (Bot oder Mensch). ">
<polygon fill="none" stroke="black" points="0,-141.5 0,-205.5 322,-205.5 322,-141.5 0,-141.5"/>
<text text-anchor="start" x="8" y="-194.3" font-family="Helvetica,sans-Serif" font-size="9.00">de.tu_clausthal.in.bachelorproject2018.ticktacktoe.model.player.</text>
<text text-anchor="middle" x="161" y="-184.3" font-family="Helvetica,sans-Serif" font-size="9.00">IPlayer</text>
<polyline fill="none" stroke="black" points="0,-177.5 322,-177.5 "/>
<text text-anchor="middle" x="161" y="-166.3" font-family="Helvetica,sans-Serif" font-size="9.00"> </text>
<polyline fill="none" stroke="black" points="0,-159.5 322,-159.5 "/>
<text text-anchor="start" x="8" y="-148.3" font-family="Helvetica,sans-Serif" font-size="9.00">+ name()</text>
</a>
</g>
</g>
<!-- Node8&#45;&gt;Node7 -->
<g id="edge1" class="edge"><title>Node8&#45;&gt;Node7</title>
<path fill="none" stroke="midnightblue" d="M211.685,-135.09C228.975,-122.328 248.513,-107.907 266.615,-94.5464"/>
<polygon fill="none" stroke="midnightblue" points="209.361,-132.455 203.393,-141.21 213.518,-138.087 209.361,-132.455"/>
</g>
<!-- Node9 -->
<g id="node3" class="node"><title>Node9</title>
<g id="a_node3"><a xlink:href="../../dc/de8/enumde_1_1tu__clausthal_1_1in_1_1bachelorproject2018_1_1ticktacktoe_1_1model_1_1item_1_1EItem.htm" target="_top" xlink:title="Factory für ein Item (Kreuz / Kreis Objekt). ">
<polygon fill="none" stroke="black" points="340,-141.5 340,-205.5 654,-205.5 654,-141.5 340,-141.5"/>
<text text-anchor="start" x="348" y="-194.3" font-family="Helvetica,sans-Serif" font-size="9.00">de.tu_clausthal.in.bachelorproject2018.ticktacktoe.model.item.</text>
<text text-anchor="middle" x="497" y="-184.3" font-family="Helvetica,sans-Serif" font-size="9.00">EItem</text>
<polyline fill="none" stroke="black" points="340,-177.5 654,-177.5 "/>
<text text-anchor="start" x="348" y="-166.3" font-family="Helvetica,sans-Serif" font-size="9.00">+ KREIS</text>
<polyline fill="none" stroke="black" points="340,-159.5 654,-159.5 "/>
<text text-anchor="start" x="348" y="-148.3" font-family="Helvetica,sans-Serif" font-size="9.00">+ apply()</text>
</a>
</g>
</g>
<!-- Node9&#45;&gt;Node7 -->
<g id="edge2" class="edge"><title>Node9&#45;&gt;Node7</title>
<path fill="none" stroke="#404040" d="M454.607,-141.21C438.375,-129.229 419.369,-115.201 401.127,-101.736"/>
<polygon fill="none" stroke="#404040" points="401.04,-101.673 393.837,-101.328 391.385,-94.5464 398.588,-94.8912 401.04,-101.673"/>
<text text-anchor="middle" x="453.5" y="-115.8" font-family="Helvetica,sans-Serif" font-size="9.00"> #m_value</text>
</g>
</g>
</svg>
