<?xml version="1.0" encoding="UTF-8" standalone="no"?>
<!DOCTYPE svg PUBLIC "-//W3C//DTD SVG 1.1//EN"
 "http://www.w3.org/Graphics/SVG/1.1/DTD/svg11.dtd">
<!-- Generated by graphviz version 2.38.0 (20140413.2041)
 -->
<!-- Title: de.tu_clausthal.in.bachelorproject2018.ticktacktoe.model.player.CMediumBot Pages: 1 -->
<svg width="838pt" height="527pt"
 viewBox="0.00 0.00 838.00 527.00" xmlns="http://www.w3.org/2000/svg" xmlns:xlink="http://www.w3.org/1999/xlink">
<g id="graph0" class="graph" transform="scale(1 1) rotate(0) translate(4 523)">
<title>de.tu_clausthal.in.bachelorproject2018.ticktacktoe.model.player.CMediumBot</title>
<!-- Node3 -->
<g id="node1" class="node"><title>Node3</title>
<polygon fill="#bfbfbf" stroke="black" points="168,-0.5 168,-74.5 490,-74.5 490,-0.5 168,-0.5"/>
<text text-anchor="start" x="176" y="-63.3" font-family="Helvetica,sans-Serif" font-size="9.00">de.tu_clausthal.in.bachelorproject2018.ticktacktoe.model.player.</text>
<text text-anchor="middle" x="329" y="-53.3" font-family="Helvetica,sans-Serif" font-size="9.00">CMediumBot</text>
<polyline fill="none" stroke="black" points="168,-46.5 490,-46.5 "/>
<text text-anchor="start" x="176" y="-35.3" font-family="Helvetica,sans-Serif" font-size="9.00">&#45; m_random</text>
<polyline fill="none" stroke="black" points="168,-28.5 490,-28.5 "/>
<text text-anchor="start" x="176" y="-17.3" font-family="Helvetica,sans-Serif" font-size="9.00">+ CMediumBot()</text>
<text text-anchor="start" x="176" y="-7.3" font-family="Helvetica,sans-Serif" font-size="9.00">+ accept()</text>
</g>
<!-- Node4 -->
<g id="node2" class="node"><title>Node4</title>
<g id="a_node2"><a xlink:href="../../df/dec/classde_1_1tu__clausthal_1_1in_1_1bachelorproject2018_1_1ticktacktoe_1_1model_1_1player_1_1IBasePlayer.htm" target="_top" xlink:title="abstrakte Klasse eines Spielers, der den Namen und das Item, das er setzen kann enthält ...">
<polygon fill="none" stroke="black" points="168,-313.5 168,-407.5 490,-407.5 490,-313.5 168,-313.5"/>
<text text-anchor="start" x="176" y="-396.3" font-family="Helvetica,sans-Serif" font-size="9.00">de.tu_clausthal.in.bachelorproject2018.ticktacktoe.model.player.</text>
<text text-anchor="middle" x="329" y="-386.3" font-family="Helvetica,sans-Serif" font-size="9.00">IBasePlayer</text>
<polyline fill="none" stroke="black" points="168,-379.5 490,-379.5 "/>
<text text-anchor="start" x="176" y="-368.3" font-family="Helvetica,sans-Serif" font-size="9.00">&#45; m_name</text>
<polyline fill="none" stroke="black" points="168,-361.5 490,-361.5 "/>
<text text-anchor="start" x="176" y="-350.3" font-family="Helvetica,sans-Serif" font-size="9.00">+ equals()</text>
<text text-anchor="start" x="176" y="-340.3" font-family="Helvetica,sans-Serif" font-size="9.00">+ hashCode()</text>
<text text-anchor="start" x="176" y="-330.3" font-family="Helvetica,sans-Serif" font-size="9.00">+ name()</text>
<text text-anchor="start" x="176" y="-320.3" font-family="Helvetica,sans-Serif" font-size="9.00"># IBasePlayer()</text>
</a>
</g>
</g>
<!-- Node4&#45;&gt;Node3 -->
<g id="edge1" class="edge"><title>Node4&#45;&gt;Node3</title>
<path fill="none" stroke="midnightblue" d="M187.343,-307.232C176.26,-298.351 166.485,-288.015 159,-276 122.576,-217.528 122.437,-179.385 159,-121 171.362,-101.259 189.944,-86.1228 210.344,-74.5548"/>
<polygon fill="none" stroke="midnightblue" points="185.53,-310.247 195.631,-313.445 189.729,-304.646 185.53,-310.247"/>
</g>
<!-- Node7 -->
<g id="node5" class="node"><title>Node7</title>
<g id="a_node5"><a xlink:href="../../d0/d60/classde_1_1tu__clausthal_1_1in_1_1bachelorproject2018_1_1ticktacktoe_1_1model_1_1player_1_1CRandomBot.htm" target="_top" xlink:title="Klasse des Random Bots. ">
<polygon fill="none" stroke="black" points="168,-161.5 168,-235.5 490,-235.5 490,-161.5 168,-161.5"/>
<text text-anchor="start" x="176" y="-224.3" font-family="Helvetica,sans-Serif" font-size="9.00">de.tu_clausthal.in.bachelorproject2018.ticktacktoe.model.player.</text>
<text text-anchor="middle" x="329" y="-214.3" font-family="Helvetica,sans-Serif" font-size="9.00">CRandomBot</text>
<polyline fill="none" stroke="black" points="168,-207.5 490,-207.5 "/>
<text text-anchor="start" x="176" y="-196.3" font-family="Helvetica,sans-Serif" font-size="9.00">&#45; m_random</text>
<polyline fill="none" stroke="black" points="168,-189.5 490,-189.5 "/>
<text text-anchor="start" x="176" y="-178.3" font-family="Helvetica,sans-Serif" font-size="9.00">+ CRandomBot()</text>
<text text-anchor="start" x="176" y="-168.3" font-family="Helvetica,sans-Serif" font-size="9.00">+ accept()</text>
</a>
</g>
</g>
<!-- Node4&#45;&gt;Node7 -->
<g id="edge5" class="edge"><title>Node4&#45;&gt;Node7</title>
<path fill="none" stroke="midnightblue" d="M329,-303.116C329,-280.642 329,-255.437 329,-235.513"/>
<polygon fill="none" stroke="midnightblue" points="325.5,-303.221 329,-313.221 332.5,-303.221 325.5,-303.221"/>
</g>
<!-- Node8 -->
<g id="node6" class="node"><title>Node8</title>
<g id="a_node6"><a xlink:href="../../d2/d76/classde_1_1tu__clausthal_1_1in_1_1bachelorproject2018_1_1ticktacktoe_1_1model_1_1player_1_1CMinMaxBot.htm" target="_top" xlink:title="Klasse des Min&#45;Max&#45;Bot. ">
<polygon fill="none" stroke="black" points="508,-121.5 508,-275.5 830,-275.5 830,-121.5 508,-121.5"/>
<text text-anchor="start" x="516" y="-264.3" font-family="Helvetica,sans-Serif" font-size="9.00">de.tu_clausthal.in.bachelorproject2018.ticktacktoe.model.player.</text>
<text text-anchor="middle" x="669" y="-254.3" font-family="Helvetica,sans-Serif" font-size="9.00">CMinMaxBot</text>
<polyline fill="none" stroke="black" points="508,-247.5 830,-247.5 "/>
<text text-anchor="start" x="516" y="-236.3" font-family="Helvetica,sans-Serif" font-size="9.00">~ availablePoints</text>
<text text-anchor="start" x="516" y="-226.3" font-family="Helvetica,sans-Serif" font-size="9.00">~ board</text>
<text text-anchor="start" x="516" y="-216.3" font-family="Helvetica,sans-Serif" font-size="9.00">~ computersMove</text>
<polyline fill="none" stroke="black" points="508,-209.5 830,-209.5 "/>
<text text-anchor="start" x="516" y="-198.3" font-family="Helvetica,sans-Serif" font-size="9.00">+ CMinMaxBot()</text>
<text text-anchor="start" x="516" y="-188.3" font-family="Helvetica,sans-Serif" font-size="9.00">+ accept()</text>
<text text-anchor="start" x="516" y="-178.3" font-family="Helvetica,sans-Serif" font-size="9.00">+ getAvailableStates()</text>
<text text-anchor="start" x="516" y="-168.3" font-family="Helvetica,sans-Serif" font-size="9.00">+ hasOWon()</text>
<text text-anchor="start" x="516" y="-158.3" font-family="Helvetica,sans-Serif" font-size="9.00">+ hasXWon()</text>
<text text-anchor="start" x="516" y="-148.3" font-family="Helvetica,sans-Serif" font-size="9.00">+ minimax()</text>
<text text-anchor="start" x="516" y="-138.3" font-family="Helvetica,sans-Serif" font-size="9.00">+ placeAMove()</text>
<text text-anchor="start" x="516" y="-128.3" font-family="Helvetica,sans-Serif" font-size="9.00">+ toIntArray()</text>
</a>
</g>
</g>
<!-- Node4&#45;&gt;Node8 -->
<g id="edge7" class="edge"><title>Node4&#45;&gt;Node8</title>
<path fill="none" stroke="midnightblue" d="M436.189,-309.058C458.951,-298.347 483.461,-286.812 507.733,-275.39"/>
<polygon fill="none" stroke="midnightblue" points="434.444,-306.011 426.886,-313.436 437.424,-312.345 434.444,-306.011"/>
</g>
<!-- Node5 -->
<g id="node3" class="node"><title>Node5</title>
<g id="a_node3"><a xlink:href="../../dc/d5f/interfacede_1_1tu__clausthal_1_1in_1_1bachelorproject2018_1_1ticktacktoe_1_1model_1_1player_1_1IPlayer.htm" target="_top" xlink:title="Interface für einen Spieler (Bot oder Mensch). ">
<polygon fill="none" stroke="black" points="0,-454.5 0,-518.5 322,-518.5 322,-454.5 0,-454.5"/>
<text text-anchor="start" x="8" y="-507.3" font-family="Helvetica,sans-Serif" font-size="9.00">de.tu_clausthal.in.bachelorproject2018.ticktacktoe.model.player.</text>
<text text-anchor="middle" x="161" y="-497.3" font-family="Helvetica,sans-Serif" font-size="9.00">IPlayer</text>
<polyline fill="none" stroke="black" points="0,-490.5 322,-490.5 "/>
<text text-anchor="middle" x="161" y="-479.3" font-family="Helvetica,sans-Serif" font-size="9.00"> </text>
<polyline fill="none" stroke="black" points="0,-472.5 322,-472.5 "/>
<text text-anchor="start" x="8" y="-461.3" font-family="Helvetica,sans-Serif" font-size="9.00">+ name()</text>
</a>
</g>
</g>
<!-- Node5&#45;&gt;Node4 -->
<g id="edge2" class="edge"><title>Node5&#45;&gt;Node4</title>
<path fill="none" stroke="midnightblue" d="M211.685,-448.09C228.975,-435.328 248.513,-420.907 266.615,-407.546"/>
<polygon fill="none" stroke="midnightblue" points="209.361,-445.455 203.393,-454.21 213.518,-451.087 209.361,-445.455"/>
</g>
<!-- Node6 -->
<g id="node4" class="node"><title>Node6</title>
<g id="a_node4"><a xlink:href="../../dc/de8/enumde_1_1tu__clausthal_1_1in_1_1bachelorproject2018_1_1ticktacktoe_1_1model_1_1item_1_1EItem.htm" target="_top" xlink:title="Factory für ein Item (Kreuz / Kreis Objekt). ">
<polygon fill="none" stroke="black" points="340,-454.5 340,-518.5 654,-518.5 654,-454.5 340,-454.5"/>
<text text-anchor="start" x="348" y="-507.3" font-family="Helvetica,sans-Serif" font-size="9.00">de.tu_clausthal.in.bachelorproject2018.ticktacktoe.model.item.</text>
<text text-anchor="middle" x="497" y="-497.3" font-family="Helvetica,sans-Serif" font-size="9.00">EItem</text>
<polyline fill="none" stroke="black" points="340,-490.5 654,-490.5 "/>
<text text-anchor="start" x="348" y="-479.3" font-family="Helvetica,sans-Serif" font-size="9.00">+ KREIS</text>
<polyline fill="none" stroke="black" points="340,-472.5 654,-472.5 "/>
<text text-anchor="start" x="348" y="-461.3" font-family="Helvetica,sans-Serif" font-size="9.00">+ apply()</text>
</a>
</g>
</g>
<!-- Node6&#45;&gt;Node4 -->
<g id="edge3" class="edge"><title>Node6&#45;&gt;Node4</title>
<path fill="none" stroke="#404040" d="M454.607,-454.21C438.375,-442.229 419.369,-428.201 401.127,-414.736"/>
<polygon fill="none" stroke="#404040" points="401.04,-414.673 393.837,-414.328 391.385,-407.546 398.588,-407.891 401.04,-414.673"/>
<text text-anchor="middle" x="453.5" y="-428.8" font-family="Helvetica,sans-Serif" font-size="9.00"> #m_value</text>
</g>
<!-- Node7&#45;&gt;Node3 -->
<g id="edge4" class="edge"><title>Node7&#45;&gt;Node3</title>
<path fill="none" stroke="#404040" d="M329,-161.42C329,-139.34 329,-110.813 329,-86.7994"/>
<polygon fill="none" stroke="#404040" points="329,-86.7116 325,-80.7117 329,-74.7116 333,-80.7116 329,-86.7116"/>
<text text-anchor="middle" x="365.5" y="-95.8" font-family="Helvetica,sans-Serif" font-size="9.00"> &#45;m_RandomBot</text>
</g>
<!-- Node8&#45;&gt;Node3 -->
<g id="edge6" class="edge"><title>Node8&#45;&gt;Node3</title>
<path fill="none" stroke="#404040" d="M507.961,-122.191C476.595,-107.523 444.822,-92.6636 416.927,-79.6187"/>
<polygon fill="none" stroke="#404040" points="416.904,-79.6079 409.774,-80.6895 406.033,-74.5244 413.163,-73.4428 416.904,-79.6079"/>
<text text-anchor="middle" x="493.5" y="-95.8" font-family="Helvetica,sans-Serif" font-size="9.00"> &#45;m_MinMaxBot</text>
</g>
</g>
</svg>
