<?xml version="1.0" encoding="UTF-8" standalone="no"?>
<!DOCTYPE svg PUBLIC "-//W3C//DTD SVG 1.1//EN"
 "http://www.w3.org/Graphics/SVG/1.1/DTD/svg11.dtd">
<!-- Generated by graphviz version 2.38.0 (20140413.2041)
 -->
<!-- Title: de.tu_clausthal.in.bachelorproject2018.ticktacktoe.model.player.CRandomBot.accept Pages: 1 -->
<svg width="683pt" height="178pt"
 viewBox="0.00 0.00 683.00 178.00" xmlns="http://www.w3.org/2000/svg" xmlns:xlink="http://www.w3.org/1999/xlink">
<g id="graph0" class="graph" transform="scale(1 1) rotate(0) translate(4 174)">
<title>de.tu_clausthal.in.bachelorproject2018.ticktacktoe.model.player.CRandomBot.accept</title>
<!-- Node2 -->
<g id="node1" class="node"><title>Node2</title>
<polygon fill="#bfbfbf" stroke="black" points="0,-70.5 0,-98.5 322,-98.5 322,-70.5 0,-70.5"/>
<text text-anchor="start" x="8" y="-87.3" font-family="Helvetica,sans-Serif" font-size="9.00">de.tu_clausthal.in.bachelorproject2018.ticktacktoe.model.player.</text>
<text text-anchor="middle" x="161" y="-77.3" font-family="Helvetica,sans-Serif" font-size="9.00">CRandomBot.accept</text>
</g>
<!-- Node3 -->
<g id="node2" class="node"><title>Node3</title>
<g id="a_node2"><a xlink:href="../../dc/de8/enumde_1_1tu__clausthal_1_1in_1_1bachelorproject2018_1_1ticktacktoe_1_1model_1_1item_1_1EItem.htm#a0234b7a68e995c175debdd4b7ec85767" target="_top" xlink:title="erzeugt ein neues Objekt (Factory) ">
<polygon fill="none" stroke="black" points="359.5,-141.5 359.5,-169.5 673.5,-169.5 673.5,-141.5 359.5,-141.5"/>
<text text-anchor="start" x="367.5" y="-158.3" font-family="Helvetica,sans-Serif" font-size="9.00">de.tu_clausthal.in.bachelorproject2018.ticktacktoe.model.item.</text>
<text text-anchor="middle" x="516.5" y="-148.3" font-family="Helvetica,sans-Serif" font-size="9.00">EItem.apply</text>
</a>
</g>
</g>
<!-- Node2&#45;&gt;Node3 -->
<g id="edge1" class="edge"><title>Node2&#45;&gt;Node3</title>
<path fill="none" stroke="midnightblue" d="M213.699,-98.5872C253.046,-108.961 308.657,-122.878 358,-132.5 371.423,-135.117 385.542,-137.583 399.586,-139.856"/>
<polygon fill="midnightblue" stroke="midnightblue" points="399.363,-143.365 409.788,-141.477 400.461,-136.451 399.363,-143.365"/>
</g>
<!-- Node4 -->
<g id="node3" class="node"><title>Node4</title>
<g id="a_node3"><a xlink:href="../../d5/d48/interfacede_1_1tu__clausthal_1_1in_1_1bachelorproject2018_1_1ticktacktoe_1_1model_1_1brett_1_1ISpieleBrett.htm#a23b2374a742c938f67f7d830d4b6a8fd" target="_top" xlink:title="liefert die Höhe des Spielefelds ">
<polygon fill="none" stroke="black" points="358,-94.5 358,-122.5 675,-122.5 675,-94.5 358,-94.5"/>
<text text-anchor="start" x="366" y="-111.3" font-family="Helvetica,sans-Serif" font-size="9.00">de.tu_clausthal.in.bachelorproject2018.ticktacktoe.model.brett.</text>
<text text-anchor="middle" x="516.5" y="-101.3" font-family="Helvetica,sans-Serif" font-size="9.00">ISpieleBrett.height</text>
</a>
</g>
</g>
<!-- Node2&#45;&gt;Node4 -->
<g id="edge2" class="edge"><title>Node2&#45;&gt;Node4</title>
<path fill="none" stroke="midnightblue" d="M322.201,-95.3765C330.736,-95.9559 339.322,-96.5389 347.88,-97.1199"/>
<polygon fill="midnightblue" stroke="midnightblue" points="347.694,-100.615 357.908,-97.8007 348.168,-93.6313 347.694,-100.615"/>
</g>
<!-- Node5 -->
<g id="node4" class="node"><title>Node5</title>
<g id="a_node4"><a xlink:href="../../d5/d48/interfacede_1_1tu__clausthal_1_1in_1_1bachelorproject2018_1_1ticktacktoe_1_1model_1_1brett_1_1ISpieleBrett.htm#abde84410b9665938a28238a0ee9043eb" target="_top" xlink:title="prüft ob das Feld in das gesetzt werden soll leer ist und setzt wenn dies der Fall ist prüft nach dem...">
<polygon fill="none" stroke="black" points="358,-47.5 358,-75.5 675,-75.5 675,-47.5 358,-47.5"/>
<text text-anchor="start" x="366" y="-64.3" font-family="Helvetica,sans-Serif" font-size="9.00">de.tu_clausthal.in.bachelorproject2018.ticktacktoe.model.brett.</text>
<text text-anchor="middle" x="516.5" y="-54.3" font-family="Helvetica,sans-Serif" font-size="9.00">ISpieleBrett.set</text>
</a>
</g>
</g>
<!-- Node2&#45;&gt;Node5 -->
<g id="edge3" class="edge"><title>Node2&#45;&gt;Node5</title>
<path fill="none" stroke="midnightblue" d="M322.201,-74.0767C330.736,-73.5214 339.322,-72.9628 347.88,-72.406"/>
<polygon fill="midnightblue" stroke="midnightblue" points="348.157,-75.8955 357.908,-71.7535 347.702,-68.9102 348.157,-75.8955"/>
</g>
<!-- Node6 -->
<g id="node5" class="node"><title>Node6</title>
<g id="a_node5"><a xlink:href="../../d5/d48/interfacede_1_1tu__clausthal_1_1in_1_1bachelorproject2018_1_1ticktacktoe_1_1model_1_1brett_1_1ISpieleBrett.htm#a943a74de94cf92086e0a0283f2cc1af9" target="_top" xlink:title="liefert die Breite des Spielefelds ">
<polygon fill="none" stroke="black" points="358,-0.5 358,-28.5 675,-28.5 675,-0.5 358,-0.5"/>
<text text-anchor="start" x="366" y="-17.3" font-family="Helvetica,sans-Serif" font-size="9.00">de.tu_clausthal.in.bachelorproject2018.ticktacktoe.model.brett.</text>
<text text-anchor="middle" x="516.5" y="-7.3" font-family="Helvetica,sans-Serif" font-size="9.00">ISpieleBrett.width</text>
</a>
</g>
</g>
<!-- Node2&#45;&gt;Node6 -->
<g id="edge4" class="edge"><title>Node2&#45;&gt;Node6</title>
<path fill="none" stroke="midnightblue" d="M216.665,-70.4431C255.841,-60.6703 309.955,-47.7833 358,-38.5 373.293,-35.5451 389.479,-32.7289 405.425,-30.1333"/>
<polygon fill="midnightblue" stroke="midnightblue" points="405.993,-33.587 415.312,-28.5465 404.884,-26.6754 405.993,-33.587"/>
</g>
</g>
</svg>
