<?xml version="1.0" encoding="UTF-8" standalone="no"?>
<!DOCTYPE svg PUBLIC "-//W3C//DTD SVG 1.1//EN"
 "http://www.w3.org/Graphics/SVG/1.1/DTD/svg11.dtd">
<!-- Generated by graphviz version 2.38.0 (20140413.2041)
 -->
<!-- Title: de.tu_clausthal.in.bachelorproject2018.ticktacktoe.model.player.CMediumBot.accept Pages: 1 -->
<svg width="1404pt" height="389pt"
 viewBox="0.00 0.00 1404.00 389.00" xmlns="http://www.w3.org/2000/svg" xmlns:xlink="http://www.w3.org/1999/xlink">
<g id="graph0" class="graph" transform="scale(1 1) rotate(0) translate(4 385)">
<title>de.tu_clausthal.in.bachelorproject2018.ticktacktoe.model.player.CMediumBot.accept</title>
<!-- Node2 -->
<g id="node1" class="node"><title>Node2</title>
<polygon fill="#bfbfbf" stroke="black" points="0,-234.5 0,-262.5 322,-262.5 322,-234.5 0,-234.5"/>
<text text-anchor="start" x="8" y="-251.3" font-family="Helvetica,sans-Serif" font-size="9.00">de.tu_clausthal.in.bachelorproject2018.ticktacktoe.model.player.</text>
<text text-anchor="middle" x="161" y="-241.3" font-family="Helvetica,sans-Serif" font-size="9.00">CMediumBot.accept</text>
</g>
<!-- Node3 -->
<g id="node2" class="node"><title>Node3</title>
<g id="a_node2"><a xlink:href="../../d0/d60/classde_1_1tu__clausthal_1_1in_1_1bachelorproject2018_1_1ticktacktoe_1_1model_1_1player_1_1CRandomBot.htm#a68e29b68b4e55525001175a7537628ad" target="_top" xlink:title="de.tu_clausthal.in.bachelorproject2018.ticktacktoe.model.player.\lCRandomBot.accept">
<polygon fill="none" stroke="black" points="358,-258.5 358,-286.5 680,-286.5 680,-258.5 358,-258.5"/>
<text text-anchor="start" x="366" y="-275.3" font-family="Helvetica,sans-Serif" font-size="9.00">de.tu_clausthal.in.bachelorproject2018.ticktacktoe.model.player.</text>
<text text-anchor="middle" x="519" y="-265.3" font-family="Helvetica,sans-Serif" font-size="9.00">CRandomBot.accept</text>
</a>
</g>
</g>
<!-- Node2&#45;&gt;Node3 -->
<g id="edge1" class="edge"><title>Node2&#45;&gt;Node3</title>
<path fill="none" stroke="midnightblue" d="M322.036,-259.289C330.599,-259.866 339.217,-260.447 347.811,-261.027"/>
<polygon fill="midnightblue" stroke="midnightblue" points="347.671,-264.525 357.884,-261.706 348.142,-257.541 347.671,-264.525"/>
</g>
<!-- Node8 -->
<g id="node7" class="node"><title>Node8</title>
<g id="a_node7"><a xlink:href="../../d2/d76/classde_1_1tu__clausthal_1_1in_1_1bachelorproject2018_1_1ticktacktoe_1_1model_1_1player_1_1CMinMaxBot.htm#aa2c4f55ddf22413c3dc42d47df3891af" target="_top" xlink:title="de.tu_clausthal.in.bachelorproject2018.ticktacktoe.model.player.\lCMinMaxBot.accept">
<polygon fill="none" stroke="black" points="358,-211.5 358,-239.5 680,-239.5 680,-211.5 358,-211.5"/>
<text text-anchor="start" x="366" y="-228.3" font-family="Helvetica,sans-Serif" font-size="9.00">de.tu_clausthal.in.bachelorproject2018.ticktacktoe.model.player.</text>
<text text-anchor="middle" x="519" y="-218.3" font-family="Helvetica,sans-Serif" font-size="9.00">CMinMaxBot.accept</text>
</a>
</g>
</g>
<!-- Node2&#45;&gt;Node8 -->
<g id="edge6" class="edge"><title>Node2&#45;&gt;Node8</title>
<path fill="none" stroke="midnightblue" d="M322.036,-238.161C330.599,-237.607 339.217,-237.051 347.811,-236.495"/>
<polygon fill="midnightblue" stroke="midnightblue" points="348.131,-239.982 357.884,-235.845 347.679,-232.997 348.131,-239.982"/>
</g>
<!-- Node4 -->
<g id="node3" class="node"><title>Node4</title>
<g id="a_node3"><a xlink:href="../../d5/d48/interfacede_1_1tu__clausthal_1_1in_1_1bachelorproject2018_1_1ticktacktoe_1_1model_1_1brett_1_1ISpieleBrett.htm#a943a74de94cf92086e0a0283f2cc1af9" target="_top" xlink:title="liefert die Breite des Spielefelds ">
<polygon fill="none" stroke="black" points="718.5,-352.5 718.5,-380.5 1035.5,-380.5 1035.5,-352.5 718.5,-352.5"/>
<text text-anchor="start" x="726.5" y="-369.3" font-family="Helvetica,sans-Serif" font-size="9.00">de.tu_clausthal.in.bachelorproject2018.ticktacktoe.model.brett.</text>
<text text-anchor="middle" x="877" y="-359.3" font-family="Helvetica,sans-Serif" font-size="9.00">ISpieleBrett.width</text>
</a>
</g>
</g>
<!-- Node3&#45;&gt;Node4 -->
<g id="edge2" class="edge"><title>Node3&#45;&gt;Node4</title>
<path fill="none" stroke="midnightblue" d="M552.307,-286.526C590.646,-302.623 656.841,-328.699 716,-343.5 726.633,-346.16 737.747,-348.544 748.946,-350.674"/>
<polygon fill="midnightblue" stroke="midnightblue" points="748.332,-354.12 758.799,-352.481 749.595,-347.235 748.332,-354.12"/>
</g>
<!-- Node5 -->
<g id="node4" class="node"><title>Node5</title>
<g id="a_node4"><a xlink:href="../../d5/d48/interfacede_1_1tu__clausthal_1_1in_1_1bachelorproject2018_1_1ticktacktoe_1_1model_1_1brett_1_1ISpieleBrett.htm#a23b2374a742c938f67f7d830d4b6a8fd" target="_top" xlink:title="liefert die Höhe des Spielefelds ">
<polygon fill="none" stroke="black" points="718.5,-305.5 718.5,-333.5 1035.5,-333.5 1035.5,-305.5 718.5,-305.5"/>
<text text-anchor="start" x="726.5" y="-322.3" font-family="Helvetica,sans-Serif" font-size="9.00">de.tu_clausthal.in.bachelorproject2018.ticktacktoe.model.brett.</text>
<text text-anchor="middle" x="877" y="-312.3" font-family="Helvetica,sans-Serif" font-size="9.00">ISpieleBrett.height</text>
</a>
</g>
</g>
<!-- Node3&#45;&gt;Node5 -->
<g id="edge3" class="edge"><title>Node3&#45;&gt;Node5</title>
<path fill="none" stroke="midnightblue" d="M626.33,-286.538C668.432,-292.096 716.957,-298.503 759.966,-304.181"/>
<polygon fill="midnightblue" stroke="midnightblue" points="759.539,-307.655 769.911,-305.494 760.455,-300.715 759.539,-307.655"/>
</g>
<!-- Node6 -->
<g id="node5" class="node"><title>Node6</title>
<g id="a_node5"><a xlink:href="../../d5/d48/interfacede_1_1tu__clausthal_1_1in_1_1bachelorproject2018_1_1ticktacktoe_1_1model_1_1brett_1_1ISpieleBrett.htm#abde84410b9665938a28238a0ee9043eb" target="_top" xlink:title="prüft ob das Feld in das gesetzt werden soll leer ist und setzt wenn dies der Fall ist prüft nach dem...">
<polygon fill="none" stroke="black" points="718.5,-258.5 718.5,-286.5 1035.5,-286.5 1035.5,-258.5 718.5,-258.5"/>
<text text-anchor="start" x="726.5" y="-275.3" font-family="Helvetica,sans-Serif" font-size="9.00">de.tu_clausthal.in.bachelorproject2018.ticktacktoe.model.brett.</text>
<text text-anchor="middle" x="877" y="-265.3" font-family="Helvetica,sans-Serif" font-size="9.00">ISpieleBrett.set</text>
</a>
</g>
</g>
<!-- Node3&#45;&gt;Node6 -->
<g id="edge4" class="edge"><title>Node3&#45;&gt;Node6</title>
<path fill="none" stroke="midnightblue" d="M680.036,-272.5C689.395,-272.5 698.821,-272.5 708.209,-272.5"/>
<polygon fill="midnightblue" stroke="midnightblue" points="708.376,-276 718.376,-272.5 708.376,-269 708.376,-276"/>
</g>
<!-- Node7 -->
<g id="node6" class="node"><title>Node7</title>
<g id="a_node6"><a xlink:href="../../dc/de8/enumde_1_1tu__clausthal_1_1in_1_1bachelorproject2018_1_1ticktacktoe_1_1model_1_1item_1_1EItem.htm#a0234b7a68e995c175debdd4b7ec85767" target="_top" xlink:title="erzeugt ein neues Objekt (Factory) ">
<polygon fill="none" stroke="black" points="720,-211.5 720,-239.5 1034,-239.5 1034,-211.5 720,-211.5"/>
<text text-anchor="start" x="728" y="-228.3" font-family="Helvetica,sans-Serif" font-size="9.00">de.tu_clausthal.in.bachelorproject2018.ticktacktoe.model.item.</text>
<text text-anchor="middle" x="877" y="-218.3" font-family="Helvetica,sans-Serif" font-size="9.00">EItem.apply</text>
</a>
</g>
</g>
<!-- Node3&#45;&gt;Node7 -->
<g id="edge5" class="edge"><title>Node3&#45;&gt;Node7</title>
<path fill="none" stroke="midnightblue" d="M626.33,-258.462C668.432,-252.904 716.957,-246.497 759.966,-240.819"/>
<polygon fill="midnightblue" stroke="midnightblue" points="760.455,-244.285 769.911,-239.506 759.539,-237.345 760.455,-244.285"/>
</g>
<!-- Node8&#45;&gt;Node6 -->
<g id="edge14" class="edge"><title>Node8&#45;&gt;Node6</title>
<path fill="none" stroke="midnightblue" d="M626.33,-239.538C668.432,-245.096 716.957,-251.503 759.966,-257.181"/>
<polygon fill="midnightblue" stroke="midnightblue" points="759.539,-260.655 769.911,-258.494 760.455,-253.715 759.539,-260.655"/>
</g>
<!-- Node8&#45;&gt;Node7 -->
<g id="edge15" class="edge"><title>Node8&#45;&gt;Node7</title>
<path fill="none" stroke="midnightblue" d="M680.036,-225.5C689.837,-225.5 699.712,-225.5 709.54,-225.5"/>
<polygon fill="midnightblue" stroke="midnightblue" points="709.759,-229 719.759,-225.5 709.759,-222 709.759,-229"/>
</g>
<!-- Node9 -->
<g id="node8" class="node"><title>Node9</title>
<g id="a_node8"><a xlink:href="../../d2/d76/classde_1_1tu__clausthal_1_1in_1_1bachelorproject2018_1_1ticktacktoe_1_1model_1_1player_1_1CMinMaxBot.htm#a28eb67c76e1e35cb5899be58c846d93c" target="_top" xlink:title="de.tu_clausthal.in.bachelorproject2018.ticktacktoe.model.player.\lCMinMaxBot.toIntArray">
<polygon fill="none" stroke="black" points="716,-164.5 716,-192.5 1038,-192.5 1038,-164.5 716,-164.5"/>
<text text-anchor="start" x="724" y="-181.3" font-family="Helvetica,sans-Serif" font-size="9.00">de.tu_clausthal.in.bachelorproject2018.ticktacktoe.model.player.</text>
<text text-anchor="middle" x="877" y="-171.3" font-family="Helvetica,sans-Serif" font-size="9.00">CMinMaxBot.toIntArray</text>
</a>
</g>
</g>
<!-- Node8&#45;&gt;Node9 -->
<g id="edge7" class="edge"><title>Node8&#45;&gt;Node9</title>
<path fill="none" stroke="midnightblue" d="M626.33,-211.462C668.432,-205.904 716.957,-199.497 759.966,-193.819"/>
<polygon fill="midnightblue" stroke="midnightblue" points="760.455,-197.285 769.911,-192.506 759.539,-190.345 760.455,-197.285"/>
</g>
<!-- Node11 -->
<g id="node10" class="node"><title>Node11</title>
<g id="a_node10"><a xlink:href="../../d2/d76/classde_1_1tu__clausthal_1_1in_1_1bachelorproject2018_1_1ticktacktoe_1_1model_1_1player_1_1CMinMaxBot.htm#ac3fcc2ef4bf46696791d254643fe3012" target="_top" xlink:title="de.tu_clausthal.in.bachelorproject2018.ticktacktoe.model.player.\lCMinMaxBot.minimax">
<polygon fill="none" stroke="black" points="716,-94.5 716,-122.5 1038,-122.5 1038,-94.5 716,-94.5"/>
<text text-anchor="start" x="724" y="-111.3" font-family="Helvetica,sans-Serif" font-size="9.00">de.tu_clausthal.in.bachelorproject2018.ticktacktoe.model.player.</text>
<text text-anchor="middle" x="877" y="-101.3" font-family="Helvetica,sans-Serif" font-size="9.00">CMinMaxBot.minimax</text>
</a>
</g>
</g>
<!-- Node8&#45;&gt;Node11 -->
<g id="edge9" class="edge"><title>Node8&#45;&gt;Node11</title>
<path fill="none" stroke="midnightblue" d="M557.356,-211.438C596.631,-196.824 660.334,-173.6 716,-155.5 748.652,-144.883 785.388,-134.016 815.418,-125.41"/>
<polygon fill="midnightblue" stroke="midnightblue" points="816.674,-128.691 825.329,-122.581 814.752,-121.96 816.674,-128.691"/>
</g>
<!-- Node10 -->
<g id="node9" class="node"><title>Node10</title>
<g id="a_node9"><a xlink:href="../../d5/d48/interfacede_1_1tu__clausthal_1_1in_1_1bachelorproject2018_1_1ticktacktoe_1_1model_1_1brett_1_1ISpieleBrett.htm#a4268f46b928360d7dc3eb703d6bbc160" target="_top" xlink:title="de.tu_clausthal.in.bachelorproject2018.ticktacktoe.model.brett.\lISpieleBrett.getM_elements">
<polygon fill="none" stroke="black" points="1076.5,-188.5 1076.5,-216.5 1393.5,-216.5 1393.5,-188.5 1076.5,-188.5"/>
<text text-anchor="start" x="1084.5" y="-205.3" font-family="Helvetica,sans-Serif" font-size="9.00">de.tu_clausthal.in.bachelorproject2018.ticktacktoe.model.brett.</text>
<text text-anchor="middle" x="1235" y="-195.3" font-family="Helvetica,sans-Serif" font-size="9.00">ISpieleBrett.getM_elements</text>
</a>
</g>
</g>
<!-- Node9&#45;&gt;Node10 -->
<g id="edge8" class="edge"><title>Node9&#45;&gt;Node10</title>
<path fill="none" stroke="midnightblue" d="M1038.04,-189.289C1047.4,-189.92 1056.82,-190.555 1066.21,-191.188"/>
<polygon fill="midnightblue" stroke="midnightblue" points="1066.16,-194.693 1076.38,-191.874 1066.63,-187.709 1066.16,-194.693"/>
</g>
<!-- Node12 -->
<g id="node11" class="node"><title>Node12</title>
<g id="a_node11"><a xlink:href="../../d2/d76/classde_1_1tu__clausthal_1_1in_1_1bachelorproject2018_1_1ticktacktoe_1_1model_1_1player_1_1CMinMaxBot.htm#a0b5e53061505790c6267984c88548592" target="_top" xlink:title="de.tu_clausthal.in.bachelorproject2018.ticktacktoe.model.player.\lCMinMaxBot.hasOWon">
<polygon fill="none" stroke="black" points="1074,-0.5 1074,-28.5 1396,-28.5 1396,-0.5 1074,-0.5"/>
<text text-anchor="start" x="1082" y="-17.3" font-family="Helvetica,sans-Serif" font-size="9.00">de.tu_clausthal.in.bachelorproject2018.ticktacktoe.model.player.</text>
<text text-anchor="middle" x="1235" y="-7.3" font-family="Helvetica,sans-Serif" font-size="9.00">CMinMaxBot.hasOWon</text>
</a>
</g>
</g>
<!-- Node11&#45;&gt;Node12 -->
<g id="edge10" class="edge"><title>Node11&#45;&gt;Node12</title>
<path fill="none" stroke="midnightblue" d="M910.307,-94.4738C948.646,-78.3773 1014.84,-52.301 1074,-37.5 1084.63,-34.8396 1095.75,-32.4557 1106.95,-30.3257"/>
<polygon fill="midnightblue" stroke="midnightblue" points="1107.59,-33.7651 1116.8,-28.5187 1106.33,-26.8799 1107.59,-33.7651"/>
</g>
<!-- Node13 -->
<g id="node12" class="node"><title>Node13</title>
<g id="a_node12"><a xlink:href="../../d2/d76/classde_1_1tu__clausthal_1_1in_1_1bachelorproject2018_1_1ticktacktoe_1_1model_1_1player_1_1CMinMaxBot.htm#a127917470634317721182b1a76f5c16a" target="_top" xlink:title="de.tu_clausthal.in.bachelorproject2018.ticktacktoe.model.player.\lCMinMaxBot.hasXWon">
<polygon fill="none" stroke="black" points="1074,-141.5 1074,-169.5 1396,-169.5 1396,-141.5 1074,-141.5"/>
<text text-anchor="start" x="1082" y="-158.3" font-family="Helvetica,sans-Serif" font-size="9.00">de.tu_clausthal.in.bachelorproject2018.ticktacktoe.model.player.</text>
<text text-anchor="middle" x="1235" y="-148.3" font-family="Helvetica,sans-Serif" font-size="9.00">CMinMaxBot.hasXWon</text>
</a>
</g>
</g>
<!-- Node11&#45;&gt;Node13 -->
<g id="edge11" class="edge"><title>Node11&#45;&gt;Node13</title>
<path fill="none" stroke="midnightblue" d="M984.33,-122.538C1026.43,-128.096 1074.96,-134.503 1117.97,-140.181"/>
<polygon fill="midnightblue" stroke="midnightblue" points="1117.54,-143.655 1127.91,-141.494 1118.46,-136.715 1117.54,-143.655"/>
</g>
<!-- Node14 -->
<g id="node13" class="node"><title>Node14</title>
<g id="a_node13"><a xlink:href="../../d2/d76/classde_1_1tu__clausthal_1_1in_1_1bachelorproject2018_1_1ticktacktoe_1_1model_1_1player_1_1CMinMaxBot.htm#a24c9e6c88f1e50f61c242d5d3a93639b" target="_top" xlink:title="de.tu_clausthal.in.bachelorproject2018.ticktacktoe.model.player.\lCMinMaxBot.getAvailableStates">
<polygon fill="none" stroke="black" points="1074,-94.5 1074,-122.5 1396,-122.5 1396,-94.5 1074,-94.5"/>
<text text-anchor="start" x="1082" y="-111.3" font-family="Helvetica,sans-Serif" font-size="9.00">de.tu_clausthal.in.bachelorproject2018.ticktacktoe.model.player.</text>
<text text-anchor="middle" x="1235" y="-101.3" font-family="Helvetica,sans-Serif" font-size="9.00">CMinMaxBot.getAvailableStates</text>
</a>
</g>
</g>
<!-- Node11&#45;&gt;Node14 -->
<g id="edge12" class="edge"><title>Node11&#45;&gt;Node14</title>
<path fill="none" stroke="midnightblue" d="M1038.04,-108.5C1046.6,-108.5 1055.22,-108.5 1063.81,-108.5"/>
<polygon fill="midnightblue" stroke="midnightblue" points="1063.88,-112 1073.88,-108.5 1063.88,-105 1063.88,-112"/>
</g>
<!-- Node15 -->
<g id="node14" class="node"><title>Node15</title>
<g id="a_node14"><a xlink:href="../../d2/d76/classde_1_1tu__clausthal_1_1in_1_1bachelorproject2018_1_1ticktacktoe_1_1model_1_1player_1_1CMinMaxBot.htm#a5bd4bafb99162bb6b4a3c84847799db0" target="_top" xlink:title="de.tu_clausthal.in.bachelorproject2018.ticktacktoe.model.player.\lCMinMaxBot.placeAMove">
<polygon fill="none" stroke="black" points="1074,-47.5 1074,-75.5 1396,-75.5 1396,-47.5 1074,-47.5"/>
<text text-anchor="start" x="1082" y="-64.3" font-family="Helvetica,sans-Serif" font-size="9.00">de.tu_clausthal.in.bachelorproject2018.ticktacktoe.model.player.</text>
<text text-anchor="middle" x="1235" y="-54.3" font-family="Helvetica,sans-Serif" font-size="9.00">CMinMaxBot.placeAMove</text>
</a>
</g>
</g>
<!-- Node11&#45;&gt;Node15 -->
<g id="edge13" class="edge"><title>Node11&#45;&gt;Node15</title>
<path fill="none" stroke="midnightblue" d="M984.33,-94.4621C1026.43,-88.9036 1074.96,-82.4973 1117.97,-76.8191"/>
<polygon fill="midnightblue" stroke="midnightblue" points="1118.46,-80.285 1127.91,-75.5061 1117.54,-73.3452 1118.46,-80.285"/>
</g>
</g>
</svg>
