<?xml version="1.0" encoding="UTF-8" standalone="no"?>
<!DOCTYPE svg PUBLIC "-//W3C//DTD SVG 1.1//EN"
 "http://www.w3.org/Graphics/SVG/1.1/DTD/svg11.dtd">
<!-- Generated by graphviz version 2.38.0 (20140413.2041)
 -->
<!-- Title: de.tu_clausthal.in.bachelorproject2018.ticktacktoe.model.player.CRandomBot Pages: 1 -->
<svg width="662pt" height="326pt"
 viewBox="0.00 0.00 662.00 326.00" xmlns="http://www.w3.org/2000/svg" xmlns:xlink="http://www.w3.org/1999/xlink">
<g id="graph0" class="graph" transform="scale(1 1) rotate(0) translate(4 322)">
<title>de.tu_clausthal.in.bachelorproject2018.ticktacktoe.model.player.CRandomBot</title>
<!-- Node3 -->
<g id="node1" class="node"><title>Node3</title>
<polygon fill="#bfbfbf" stroke="black" points="168,-0.5 168,-74.5 490,-74.5 490,-0.5 168,-0.5"/>
<text text-anchor="start" x="176" y="-63.3" font-family="Helvetica,sans-Serif" font-size="9.00">de.tu_clausthal.in.bachelorproject2018.ticktacktoe.model.player.</text>
<text text-anchor="middle" x="329" y="-53.3" font-family="Helvetica,sans-Serif" font-size="9.00">CRandomBot</text>
<polyline fill="none" stroke="black" points="168,-46.5 490,-46.5 "/>
<text text-anchor="start" x="176" y="-35.3" font-family="Helvetica,sans-Serif" font-size="9.00">&#45; m_random</text>
<polyline fill="none" stroke="black" points="168,-28.5 490,-28.5 "/>
<text text-anchor="start" x="176" y="-17.3" font-family="Helvetica,sans-Serif" font-size="9.00">+ CRandomBot()</text>
<text text-anchor="start" x="176" y="-7.3" font-family="Helvetica,sans-Serif" font-size="9.00">+ accept()</text>
</g>
<!-- Node4 -->
<g id="node2" class="node"><title>Node4</title>
<g id="a_node2"><a xlink:href="../../df/dec/classde_1_1tu__clausthal_1_1in_1_1bachelorproject2018_1_1ticktacktoe_1_1model_1_1player_1_1IBasePlayer.htm" target="_top" xlink:title="abstrakte Klasse eines Spielers, der den Namen und das Item, das er setzen kann enthält ...">
<polygon fill="none" stroke="black" points="168,-112.5 168,-206.5 490,-206.5 490,-112.5 168,-112.5"/>
<text text-anchor="start" x="176" y="-195.3" font-family="Helvetica,sans-Serif" font-size="9.00">de.tu_clausthal.in.bachelorproject2018.ticktacktoe.model.player.</text>
<text text-anchor="middle" x="329" y="-185.3" font-family="Helvetica,sans-Serif" font-size="9.00">IBasePlayer</text>
<polyline fill="none" stroke="black" points="168,-178.5 490,-178.5 "/>
<text text-anchor="start" x="176" y="-167.3" font-family="Helvetica,sans-Serif" font-size="9.00">&#45; m_name</text>
<polyline fill="none" stroke="black" points="168,-160.5 490,-160.5 "/>
<text text-anchor="start" x="176" y="-149.3" font-family="Helvetica,sans-Serif" font-size="9.00">+ equals()</text>
<text text-anchor="start" x="176" y="-139.3" font-family="Helvetica,sans-Serif" font-size="9.00">+ hashCode()</text>
<text text-anchor="start" x="176" y="-129.3" font-family="Helvetica,sans-Serif" font-size="9.00">+ name()</text>
<text text-anchor="start" x="176" y="-119.3" font-family="Helvetica,sans-Serif" font-size="9.00"># IBasePlayer()</text>
</a>
</g>
</g>
<!-- Node4&#45;&gt;Node3 -->
<g id="edge1" class="edge"><title>Node4&#45;&gt;Node3</title>
<path fill="none" stroke="midnightblue" d="M329,-102.303C329,-92.8664 329,-83.3043 329,-74.5548"/>
<polygon fill="none" stroke="midnightblue" points="325.5,-102.448 329,-112.448 332.5,-102.448 325.5,-102.448"/>
</g>
<!-- Node5 -->
<g id="node3" class="node"><title>Node5</title>
<g id="a_node3"><a xlink:href="../../dc/d5f/interfacede_1_1tu__clausthal_1_1in_1_1bachelorproject2018_1_1ticktacktoe_1_1model_1_1player_1_1IPlayer.htm" target="_top" xlink:title="Interface für einen Spieler (Bot oder Mensch). ">
<polygon fill="none" stroke="black" points="0,-253.5 0,-317.5 322,-317.5 322,-253.5 0,-253.5"/>
<text text-anchor="start" x="8" y="-306.3" font-family="Helvetica,sans-Serif" font-size="9.00">de.tu_clausthal.in.bachelorproject2018.ticktacktoe.model.player.</text>
<text text-anchor="middle" x="161" y="-296.3" font-family="Helvetica,sans-Serif" font-size="9.00">IPlayer</text>
<polyline fill="none" stroke="black" points="0,-289.5 322,-289.5 "/>
<text text-anchor="middle" x="161" y="-278.3" font-family="Helvetica,sans-Serif" font-size="9.00"> </text>
<polyline fill="none" stroke="black" points="0,-271.5 322,-271.5 "/>
<text text-anchor="start" x="8" y="-260.3" font-family="Helvetica,sans-Serif" font-size="9.00">+ name()</text>
</a>
</g>
</g>
<!-- Node5&#45;&gt;Node4 -->
<g id="edge2" class="edge"><title>Node5&#45;&gt;Node4</title>
<path fill="none" stroke="midnightblue" d="M211.685,-247.09C228.975,-234.328 248.513,-219.907 266.615,-206.546"/>
<polygon fill="none" stroke="midnightblue" points="209.361,-244.455 203.393,-253.21 213.518,-250.087 209.361,-244.455"/>
</g>
<!-- Node6 -->
<g id="node4" class="node"><title>Node6</title>
<g id="a_node4"><a xlink:href="../../dc/de8/enumde_1_1tu__clausthal_1_1in_1_1bachelorproject2018_1_1ticktacktoe_1_1model_1_1item_1_1EItem.htm" target="_top" xlink:title="Factory für ein Item (Kreuz / Kreis Objekt). ">
<polygon fill="none" stroke="black" points="340,-253.5 340,-317.5 654,-317.5 654,-253.5 340,-253.5"/>
<text text-anchor="start" x="348" y="-306.3" font-family="Helvetica,sans-Serif" font-size="9.00">de.tu_clausthal.in.bachelorproject2018.ticktacktoe.model.item.</text>
<text text-anchor="middle" x="497" y="-296.3" font-family="Helvetica,sans-Serif" font-size="9.00">EItem</text>
<polyline fill="none" stroke="black" points="340,-289.5 654,-289.5 "/>
<text text-anchor="start" x="348" y="-278.3" font-family="Helvetica,sans-Serif" font-size="9.00">+ KREIS</text>
<polyline fill="none" stroke="black" points="340,-271.5 654,-271.5 "/>
<text text-anchor="start" x="348" y="-260.3" font-family="Helvetica,sans-Serif" font-size="9.00">+ apply()</text>
</a>
</g>
</g>
<!-- Node6&#45;&gt;Node4 -->
<g id="edge3" class="edge"><title>Node6&#45;&gt;Node4</title>
<path fill="none" stroke="#404040" d="M454.607,-253.21C438.375,-241.229 419.369,-227.201 401.127,-213.736"/>
<polygon fill="none" stroke="#404040" points="401.04,-213.673 393.837,-213.328 391.385,-206.546 398.588,-206.891 401.04,-213.673"/>
<text text-anchor="middle" x="453.5" y="-227.8" font-family="Helvetica,sans-Serif" font-size="9.00"> #m_value</text>
</g>
</g>
</svg>
