<?xml version="1.0" encoding="UTF-8" standalone="no"?>
<!DOCTYPE svg PUBLIC "-//W3C//DTD SVG 1.1//EN"
 "http://www.w3.org/Graphics/SVG/1.1/DTD/svg11.dtd">
<!-- Generated by graphviz version 2.38.0 (20140413.2041)
 -->
<!-- Title: de.tu_clausthal.in.bachelorproject2018.ticktacktoe.model.item.CItem Pages: 1 -->
<svg width="654pt" height="284pt"
 viewBox="0.00 0.00 654.00 284.00" xmlns="http://www.w3.org/2000/svg" xmlns:xlink="http://www.w3.org/1999/xlink">
<g id="graph0" class="graph" transform="scale(1 1) rotate(0) translate(4 280)">
<title>de.tu_clausthal.in.bachelorproject2018.ticktacktoe.model.item.CItem</title>
<!-- Node2 -->
<g id="node1" class="node"><title>Node2</title>
<polygon fill="#bfbfbf" stroke="black" points="166,-0.5 166,-124.5 480,-124.5 480,-0.5 166,-0.5"/>
<text text-anchor="start" x="174" y="-113.3" font-family="Helvetica,sans-Serif" font-size="9.00">de.tu_clausthal.in.bachelorproject2018.ticktacktoe.model.item.</text>
<text text-anchor="middle" x="323" y="-103.3" font-family="Helvetica,sans-Serif" font-size="9.00">CItem</text>
<polyline fill="none" stroke="black" points="166,-96.5 480,-96.5 "/>
<text text-anchor="start" x="174" y="-85.3" font-family="Helvetica,sans-Serif" font-size="9.00">&#45; x</text>
<text text-anchor="start" x="174" y="-75.3" font-family="Helvetica,sans-Serif" font-size="9.00">&#45; y</text>
<polyline fill="none" stroke="black" points="166,-68.5 480,-68.5 "/>
<text text-anchor="start" x="174" y="-57.3" font-family="Helvetica,sans-Serif" font-size="9.00">+ CItem()</text>
<text text-anchor="start" x="174" y="-47.3" font-family="Helvetica,sans-Serif" font-size="9.00">+ getM_item()</text>
<text text-anchor="start" x="174" y="-37.3" font-family="Helvetica,sans-Serif" font-size="9.00">+ getX()</text>
<text text-anchor="start" x="174" y="-27.3" font-family="Helvetica,sans-Serif" font-size="9.00">+ getY()</text>
<text text-anchor="start" x="174" y="-17.3" font-family="Helvetica,sans-Serif" font-size="9.00">+ x()</text>
<text text-anchor="start" x="174" y="-7.3" font-family="Helvetica,sans-Serif" font-size="9.00">+ y()</text>
</g>
<!-- Node3 -->
<g id="node2" class="node"><title>Node3</title>
<g id="a_node2"><a xlink:href="../../d9/d88/interfacede_1_1tu__clausthal_1_1in_1_1bachelorproject2018_1_1ticktacktoe_1_1model_1_1item_1_1IItem.htm" target="_top" xlink:title="{de.tu_clausthal.in.bachelorproject2018.ticktacktoe.model.item.\lIItem\n||+ getM_item()\l+ getX()\l+ getY()\l+ x()\l+ y()\l}">
<polygon fill="none" stroke="black" points="0,-171.5 0,-275.5 314,-275.5 314,-171.5 0,-171.5"/>
<text text-anchor="start" x="8" y="-264.3" font-family="Helvetica,sans-Serif" font-size="9.00">de.tu_clausthal.in.bachelorproject2018.ticktacktoe.model.item.</text>
<text text-anchor="middle" x="157" y="-254.3" font-family="Helvetica,sans-Serif" font-size="9.00">IItem</text>
<polyline fill="none" stroke="black" points="0,-247.5 314,-247.5 "/>
<text text-anchor="middle" x="157" y="-236.3" font-family="Helvetica,sans-Serif" font-size="9.00"> </text>
<polyline fill="none" stroke="black" points="0,-229.5 314,-229.5 "/>
<text text-anchor="start" x="8" y="-218.3" font-family="Helvetica,sans-Serif" font-size="9.00">+ getM_item()</text>
<text text-anchor="start" x="8" y="-208.3" font-family="Helvetica,sans-Serif" font-size="9.00">+ getX()</text>
<text text-anchor="start" x="8" y="-198.3" font-family="Helvetica,sans-Serif" font-size="9.00">+ getY()</text>
<text text-anchor="start" x="8" y="-188.3" font-family="Helvetica,sans-Serif" font-size="9.00">+ x()</text>
<text text-anchor="start" x="8" y="-178.3" font-family="Helvetica,sans-Serif" font-size="9.00">+ y()</text>
</a>
</g>
</g>
<!-- Node3&#45;&gt;Node2 -->
<g id="edge1" class="edge"><title>Node3&#45;&gt;Node2</title>
<path fill="none" stroke="midnightblue" d="M217.83,-164.235C231.311,-151.323 245.634,-137.604 259.228,-124.583"/>
<polygon fill="none" stroke="midnightblue" points="215.238,-161.871 210.437,-171.316 220.08,-166.927 215.238,-161.871"/>
</g>
<!-- Node4 -->
<g id="node3" class="node"><title>Node4</title>
<g id="a_node3"><a xlink:href="../../dc/de8/enumde_1_1tu__clausthal_1_1in_1_1bachelorproject2018_1_1ticktacktoe_1_1model_1_1item_1_1EItem.htm" target="_top" xlink:title="Factory für ein Item (Kreuz / Kreis Objekt). ">
<polygon fill="none" stroke="black" points="332,-191.5 332,-255.5 646,-255.5 646,-191.5 332,-191.5"/>
<text text-anchor="start" x="340" y="-244.3" font-family="Helvetica,sans-Serif" font-size="9.00">de.tu_clausthal.in.bachelorproject2018.ticktacktoe.model.item.</text>
<text text-anchor="middle" x="489" y="-234.3" font-family="Helvetica,sans-Serif" font-size="9.00">EItem</text>
<polyline fill="none" stroke="black" points="332,-227.5 646,-227.5 "/>
<text text-anchor="start" x="340" y="-216.3" font-family="Helvetica,sans-Serif" font-size="9.00">+ KREIS</text>
<polyline fill="none" stroke="black" points="332,-209.5 646,-209.5 "/>
<text text-anchor="start" x="340" y="-198.3" font-family="Helvetica,sans-Serif" font-size="9.00">+ apply()</text>
</a>
</g>
</g>
<!-- Node4&#45;&gt;Node2 -->
<g id="edge2" class="edge"><title>Node4&#45;&gt;Node2</title>
<path fill="none" stroke="#404040" d="M456.599,-191.466C439.185,-174.785 416.964,-153.502 395.665,-133.101"/>
<polygon fill="none" stroke="#404040" points="395.596,-133.034 388.496,-131.773 386.93,-124.734 394.029,-125.995 395.596,-133.034"/>
<text text-anchor="middle" x="436" y="-145.8" font-family="Helvetica,sans-Serif" font-size="9.00"> &#45;m_item</text>
</g>
</g>
</svg>
