<?xml version="1.0" encoding="UTF-8" standalone="no"?>
<!DOCTYPE svg PUBLIC "-//W3C//DTD SVG 1.1//EN"
 "http://www.w3.org/Graphics/SVG/1.1/DTD/svg11.dtd">
<!-- Generated by graphviz version 2.38.0 (20140413.2041)
 -->
<!-- Title: de.tu_clausthal.in.bachelorproject2018.ticktacktoe.model.brett.ISpieleBrett.getM_elements Pages: 1 -->
<svg width="1742pt" height="123pt"
 viewBox="0.00 0.00 1742.00 123.00" xmlns="http://www.w3.org/2000/svg" xmlns:xlink="http://www.w3.org/1999/xlink">
<g id="graph0" class="graph" transform="scale(1 1) rotate(0) translate(4 119)">
<title>de.tu_clausthal.in.bachelorproject2018.ticktacktoe.model.brett.ISpieleBrett.getM_elements</title>
<!-- Node7 -->
<g id="node1" class="node"><title>Node7</title>
<polygon fill="#bfbfbf" stroke="black" points="0,-43.5 0,-71.5 317,-71.5 317,-43.5 0,-43.5"/>
<text text-anchor="start" x="8" y="-60.3" font-family="Helvetica,sans-Serif" font-size="9.00">de.tu_clausthal.in.bachelorproject2018.ticktacktoe.model.brett.</text>
<text text-anchor="middle" x="158.5" y="-50.3" font-family="Helvetica,sans-Serif" font-size="9.00">ISpieleBrett.getM_elements</text>
</g>
<!-- Node8 -->
<g id="node2" class="node"><title>Node8</title>
<g id="a_node2"><a xlink:href="../../d2/d76/classde_1_1tu__clausthal_1_1in_1_1bachelorproject2018_1_1ticktacktoe_1_1model_1_1player_1_1CMinMaxBot.htm#a28eb67c76e1e35cb5899be58c846d93c" target="_top" xlink:title="de.tu_clausthal.in.bachelorproject2018.ticktacktoe.model.player.\lCMinMaxBot.toIntArray">
<polygon fill="none" stroke="black" points="353,-43.5 353,-71.5 675,-71.5 675,-43.5 353,-43.5"/>
<text text-anchor="start" x="361" y="-60.3" font-family="Helvetica,sans-Serif" font-size="9.00">de.tu_clausthal.in.bachelorproject2018.ticktacktoe.model.player.</text>
<text text-anchor="middle" x="514" y="-50.3" font-family="Helvetica,sans-Serif" font-size="9.00">CMinMaxBot.toIntArray</text>
</a>
</g>
</g>
<!-- Node7&#45;&gt;Node8 -->
<g id="edge1" class="edge"><title>Node7&#45;&gt;Node8</title>
<path fill="none" stroke="midnightblue" d="M327.167,-57.5C335.737,-57.5 344.335,-57.5 352.882,-57.5"/>
<polygon fill="midnightblue" stroke="midnightblue" points="327.124,-54.0001 317.124,-57.5 327.124,-61.0001 327.124,-54.0001"/>
</g>
<!-- Node9 -->
<g id="node3" class="node"><title>Node9</title>
<g id="a_node3"><a xlink:href="../../d2/d76/classde_1_1tu__clausthal_1_1in_1_1bachelorproject2018_1_1ticktacktoe_1_1model_1_1player_1_1CMinMaxBot.htm#aa2c4f55ddf22413c3dc42d47df3891af" target="_top" xlink:title="de.tu_clausthal.in.bachelorproject2018.ticktacktoe.model.player.\lCMinMaxBot.accept">
<polygon fill="none" stroke="black" points="711,-43.5 711,-71.5 1033,-71.5 1033,-43.5 711,-43.5"/>
<text text-anchor="start" x="719" y="-60.3" font-family="Helvetica,sans-Serif" font-size="9.00">de.tu_clausthal.in.bachelorproject2018.ticktacktoe.model.player.</text>
<text text-anchor="middle" x="872" y="-50.3" font-family="Helvetica,sans-Serif" font-size="9.00">CMinMaxBot.accept</text>
</a>
</g>
</g>
<!-- Node8&#45;&gt;Node9 -->
<g id="edge2" class="edge"><title>Node8&#45;&gt;Node9</title>
<path fill="none" stroke="midnightblue" d="M685.109,-57.5C693.703,-57.5 702.321,-57.5 710.884,-57.5"/>
<polygon fill="midnightblue" stroke="midnightblue" points="685.036,-54.0001 675.036,-57.5 685.036,-61.0001 685.036,-54.0001"/>
</g>
<!-- Node10 -->
<g id="node4" class="node"><title>Node10</title>
<g id="a_node4"><a xlink:href="../../d5/d40/classde_1_1tu__clausthal_1_1in_1_1bachelorproject2018_1_1ticktacktoe_1_1model_1_1player_1_1CHardBot.htm#abf6ed3b27a4b8aeb27485a3c3c064528" target="_top" xlink:title="de.tu_clausthal.in.bachelorproject2018.ticktacktoe.model.player.\lCHardBot.accept">
<polygon fill="none" stroke="black" points="1069,-86.5 1069,-114.5 1391,-114.5 1391,-86.5 1069,-86.5"/>
<text text-anchor="start" x="1077" y="-103.3" font-family="Helvetica,sans-Serif" font-size="9.00">de.tu_clausthal.in.bachelorproject2018.ticktacktoe.model.player.</text>
<text text-anchor="middle" x="1230" y="-93.3" font-family="Helvetica,sans-Serif" font-size="9.00">CHardBot.accept</text>
</a>
</g>
</g>
<!-- Node9&#45;&gt;Node10 -->
<g id="edge3" class="edge"><title>Node9&#45;&gt;Node10</title>
<path fill="none" stroke="midnightblue" d="M999.427,-72.7706C1036.45,-77.2431 1076.74,-82.1093 1113.08,-86.4987"/>
<polygon fill="midnightblue" stroke="midnightblue" points="999.423,-69.2448 989.075,-71.5203 998.583,-76.1943 999.423,-69.2448"/>
</g>
<!-- Node11 -->
<g id="node5" class="node"><title>Node11</title>
<g id="a_node5"><a xlink:href="../../d8/d52/classde_1_1tu__clausthal_1_1in_1_1bachelorproject2018_1_1ticktacktoe_1_1controller_1_1CSpielebrettController.htm#a9566e9c3e6da6ec5f9eb5b89a2a1b2b2" target="_top" xlink:title="de.tu_clausthal.in.bachelorproject2018.ticktacktoe.controller.\lCSpielebrettController.set">
<polygon fill="none" stroke="black" points="1427,-43.5 1427,-71.5 1734,-71.5 1734,-43.5 1427,-43.5"/>
<text text-anchor="start" x="1435" y="-60.3" font-family="Helvetica,sans-Serif" font-size="9.00">de.tu_clausthal.in.bachelorproject2018.ticktacktoe.controller.</text>
<text text-anchor="middle" x="1580.5" y="-50.3" font-family="Helvetica,sans-Serif" font-size="9.00">CSpielebrettController.set</text>
</a>
</g>
</g>
<!-- Node9&#45;&gt;Node11 -->
<g id="edge7" class="edge"><title>Node9&#45;&gt;Node11</title>
<path fill="none" stroke="midnightblue" d="M1043.44,-57.5C1160.27,-57.5 1313.94,-57.5 1426.78,-57.5"/>
<polygon fill="midnightblue" stroke="midnightblue" points="1043.32,-54.0001 1033.32,-57.5 1043.32,-61.0001 1043.32,-54.0001"/>
</g>
<!-- Node12 -->
<g id="node6" class="node"><title>Node12</title>
<g id="a_node6"><a xlink:href="../../de/d85/classde_1_1tu__clausthal_1_1in_1_1bachelorproject2018_1_1ticktacktoe_1_1model_1_1player_1_1CMediumBot.htm#a8b431ea082074110bef61bf64cbd154e" target="_top" xlink:title="de.tu_clausthal.in.bachelorproject2018.ticktacktoe.model.player.\lCMediumBot.accept">
<polygon fill="none" stroke="black" points="1069,-0.5 1069,-28.5 1391,-28.5 1391,-0.5 1069,-0.5"/>
<text text-anchor="start" x="1077" y="-17.3" font-family="Helvetica,sans-Serif" font-size="9.00">de.tu_clausthal.in.bachelorproject2018.ticktacktoe.model.player.</text>
<text text-anchor="middle" x="1230" y="-7.3" font-family="Helvetica,sans-Serif" font-size="9.00">CMediumBot.accept</text>
</a>
</g>
</g>
<!-- Node9&#45;&gt;Node12 -->
<g id="edge5" class="edge"><title>Node9&#45;&gt;Node12</title>
<path fill="none" stroke="midnightblue" d="M999.427,-42.2294C1036.45,-37.7569 1076.74,-32.8907 1113.08,-28.5013"/>
<polygon fill="midnightblue" stroke="midnightblue" points="998.583,-38.8057 989.075,-43.4797 999.423,-45.7552 998.583,-38.8057"/>
</g>
<!-- Node10&#45;&gt;Node11 -->
<g id="edge4" class="edge"><title>Node10&#45;&gt;Node11</title>
<path fill="none" stroke="midnightblue" d="M1354.76,-85.2294C1391.01,-80.7569 1430.45,-75.8907 1466.02,-71.5013"/>
<polygon fill="midnightblue" stroke="midnightblue" points="1354.13,-81.7814 1344.63,-86.4797 1354.98,-88.7287 1354.13,-81.7814"/>
</g>
<!-- Node12&#45;&gt;Node11 -->
<g id="edge6" class="edge"><title>Node12&#45;&gt;Node11</title>
<path fill="none" stroke="midnightblue" d="M1354.76,-29.7706C1391.01,-34.2431 1430.45,-39.1093 1466.02,-43.4987"/>
<polygon fill="midnightblue" stroke="midnightblue" points="1354.98,-26.2713 1344.63,-28.5203 1354.13,-33.2186 1354.98,-26.2713"/>
</g>
</g>
</svg>
