<?xml version="1.0" encoding="UTF-8" standalone="no"?>
<!DOCTYPE svg PUBLIC "-//W3C//DTD SVG 1.1//EN"
 "http://www.w3.org/Graphics/SVG/1.1/DTD/svg11.dtd">
<!-- Generated by graphviz version 2.38.0 (20140413.2041)
 -->
<!-- Title: de.tu_clausthal.in.bachelorproject2018.ticktacktoe.model.brett.ISpieleBrett.set Pages: 1 -->
<svg width="1384pt" height="149pt"
 viewBox="0.00 0.00 1384.00 149.27" xmlns="http://www.w3.org/2000/svg" xmlns:xlink="http://www.w3.org/1999/xlink">
<g id="graph0" class="graph" transform="scale(1 1) rotate(0) translate(4 145.27)">
<title>de.tu_clausthal.in.bachelorproject2018.ticktacktoe.model.brett.ISpieleBrett.set</title>
<!-- Node28 -->
<g id="node1" class="node"><title>Node28</title>
<polygon fill="#bfbfbf" stroke="black" points="0,-65.7696 0,-93.7696 317,-93.7696 317,-65.7696 0,-65.7696"/>
<text text-anchor="start" x="8" y="-82.5696" font-family="Helvetica,sans-Serif" font-size="9.00">de.tu_clausthal.in.bachelorproject2018.ticktacktoe.model.brett.</text>
<text text-anchor="middle" x="158.5" y="-72.5696" font-family="Helvetica,sans-Serif" font-size="9.00">ISpieleBrett.set</text>
</g>
<!-- Node29 -->
<g id="node2" class="node"><title>Node29</title>
<g id="a_node2"><a xlink:href="../../d3/d72/classde_1_1tu__clausthal_1_1in_1_1bachelorproject2018_1_1ticktacktoe_1_1model_1_1player_1_1CHuman.htm#a226239a089a34d940ad86f5ac7f6e80b" target="_top" xlink:title="de.tu_clausthal.in.bachelorproject2018.ticktacktoe.model.player.\lCHuman.accept">
<polygon fill="none" stroke="black" points="353,-112.77 353,-140.77 675,-140.77 675,-112.77 353,-112.77"/>
<text text-anchor="start" x="361" y="-129.57" font-family="Helvetica,sans-Serif" font-size="9.00">de.tu_clausthal.in.bachelorproject2018.ticktacktoe.model.player.</text>
<text text-anchor="middle" x="514" y="-119.57" font-family="Helvetica,sans-Serif" font-size="9.00">CHuman.accept</text>
</a>
</g>
</g>
<!-- Node28&#45;&gt;Node29 -->
<g id="edge1" class="edge"><title>Node28&#45;&gt;Node29</title>
<path fill="none" stroke="midnightblue" d="M275.233,-95.157C317.894,-100.829 365.961,-107.22 407.656,-112.763"/>
<polygon fill="midnightblue" stroke="midnightblue" points="275.457,-91.6561 265.083,-93.8075 274.534,-98.595 275.457,-91.6561"/>
</g>
<!-- Node30 -->
<g id="node3" class="node"><title>Node30</title>
<g id="a_node3"><a xlink:href="../../d0/d60/classde_1_1tu__clausthal_1_1in_1_1bachelorproject2018_1_1ticktacktoe_1_1model_1_1player_1_1CRandomBot.htm#a68e29b68b4e55525001175a7537628ad" target="_top" xlink:title="de.tu_clausthal.in.bachelorproject2018.ticktacktoe.model.player.\lCRandomBot.accept">
<polygon fill="none" stroke="black" points="353,-65.7696 353,-93.7696 675,-93.7696 675,-65.7696 353,-65.7696"/>
<text text-anchor="start" x="361" y="-82.5696" font-family="Helvetica,sans-Serif" font-size="9.00">de.tu_clausthal.in.bachelorproject2018.ticktacktoe.model.player.</text>
<text text-anchor="middle" x="514" y="-72.5696" font-family="Helvetica,sans-Serif" font-size="9.00">CRandomBot.accept</text>
</a>
</g>
</g>
<!-- Node28&#45;&gt;Node30 -->
<g id="edge2" class="edge"><title>Node28&#45;&gt;Node30</title>
<path fill="none" stroke="midnightblue" d="M327.167,-79.7696C335.737,-79.7696 344.335,-79.7696 352.882,-79.7696"/>
<polygon fill="midnightblue" stroke="midnightblue" points="327.124,-76.2697 317.124,-79.7696 327.124,-83.2697 327.124,-76.2697"/>
</g>
<!-- Node34 -->
<g id="node7" class="node"><title>Node34</title>
<g id="a_node7"><a xlink:href="../../d2/d76/classde_1_1tu__clausthal_1_1in_1_1bachelorproject2018_1_1ticktacktoe_1_1model_1_1player_1_1CMinMaxBot.htm#aa2c4f55ddf22413c3dc42d47df3891af" target="_top" xlink:title="de.tu_clausthal.in.bachelorproject2018.ticktacktoe.model.player.\lCMinMaxBot.accept">
<polygon fill="none" stroke="black" points="353,-18.7696 353,-46.7696 675,-46.7696 675,-18.7696 353,-18.7696"/>
<text text-anchor="start" x="361" y="-35.5696" font-family="Helvetica,sans-Serif" font-size="9.00">de.tu_clausthal.in.bachelorproject2018.ticktacktoe.model.player.</text>
<text text-anchor="middle" x="514" y="-25.5696" font-family="Helvetica,sans-Serif" font-size="9.00">CMinMaxBot.accept</text>
</a>
</g>
</g>
<!-- Node28&#45;&gt;Node34 -->
<g id="edge8" class="edge"><title>Node28&#45;&gt;Node34</title>
<path fill="none" stroke="midnightblue" d="M275.233,-64.3822C317.894,-58.7101 365.961,-52.3193 407.656,-46.7757"/>
<polygon fill="midnightblue" stroke="midnightblue" points="274.534,-60.9442 265.083,-65.7317 275.457,-67.8831 274.534,-60.9442"/>
</g>
<!-- Node31 -->
<g id="node4" class="node"><title>Node31</title>
<g id="a_node4"><a xlink:href="../../d5/d40/classde_1_1tu__clausthal_1_1in_1_1bachelorproject2018_1_1ticktacktoe_1_1model_1_1player_1_1CHardBot.htm#abf6ed3b27a4b8aeb27485a3c3c064528" target="_top" xlink:title="de.tu_clausthal.in.bachelorproject2018.ticktacktoe.model.player.\lCHardBot.accept">
<polygon fill="none" stroke="black" points="711,-65.7696 711,-93.7696 1033,-93.7696 1033,-65.7696 711,-65.7696"/>
<text text-anchor="start" x="719" y="-82.5696" font-family="Helvetica,sans-Serif" font-size="9.00">de.tu_clausthal.in.bachelorproject2018.ticktacktoe.model.player.</text>
<text text-anchor="middle" x="872" y="-72.5696" font-family="Helvetica,sans-Serif" font-size="9.00">CHardBot.accept</text>
</a>
</g>
</g>
<!-- Node30&#45;&gt;Node31 -->
<g id="edge3" class="edge"><title>Node30&#45;&gt;Node31</title>
<path fill="none" stroke="midnightblue" d="M685.109,-79.7696C693.703,-79.7696 702.321,-79.7696 710.884,-79.7696"/>
<polygon fill="midnightblue" stroke="midnightblue" points="685.036,-76.2697 675.036,-79.7696 685.036,-83.2697 685.036,-76.2697"/>
</g>
<!-- Node32 -->
<g id="node5" class="node"><title>Node32</title>
<g id="a_node5"><a xlink:href="../../d8/d52/classde_1_1tu__clausthal_1_1in_1_1bachelorproject2018_1_1ticktacktoe_1_1controller_1_1CSpielebrettController.htm#a9566e9c3e6da6ec5f9eb5b89a2a1b2b2" target="_top" xlink:title="de.tu_clausthal.in.bachelorproject2018.ticktacktoe.controller.\lCSpielebrettController.set">
<polygon fill="none" stroke="black" points="1069,-41.7696 1069,-69.7696 1376,-69.7696 1376,-41.7696 1069,-41.7696"/>
<text text-anchor="start" x="1077" y="-58.5696" font-family="Helvetica,sans-Serif" font-size="9.00">de.tu_clausthal.in.bachelorproject2018.ticktacktoe.controller.</text>
<text text-anchor="middle" x="1222.5" y="-48.5696" font-family="Helvetica,sans-Serif" font-size="9.00">CSpielebrettController.set</text>
</a>
</g>
</g>
<!-- Node30&#45;&gt;Node32 -->
<g id="edge7" class="edge"><title>Node30&#45;&gt;Node32</title>
<path fill="none" stroke="midnightblue" d="M619.386,-95.0162C724.292,-107.897 890.431,-121.637 1033,-103.77 1084.1,-97.3657 1141.21,-81.5581 1179.04,-69.8229"/>
<polygon fill="midnightblue" stroke="midnightblue" points="619.785,-91.5389 609.428,-93.7735 618.918,-98.485 619.785,-91.5389"/>
</g>
<!-- Node33 -->
<g id="node6" class="node"><title>Node33</title>
<g id="a_node6"><a xlink:href="../../de/d85/classde_1_1tu__clausthal_1_1in_1_1bachelorproject2018_1_1ticktacktoe_1_1model_1_1player_1_1CMediumBot.htm#a8b431ea082074110bef61bf64cbd154e" target="_top" xlink:title="de.tu_clausthal.in.bachelorproject2018.ticktacktoe.model.player.\lCMediumBot.accept">
<polygon fill="none" stroke="black" points="711,-18.7696 711,-46.7696 1033,-46.7696 1033,-18.7696 711,-18.7696"/>
<text text-anchor="start" x="719" y="-35.5696" font-family="Helvetica,sans-Serif" font-size="9.00">de.tu_clausthal.in.bachelorproject2018.ticktacktoe.model.player.</text>
<text text-anchor="middle" x="872" y="-25.5696" font-family="Helvetica,sans-Serif" font-size="9.00">CMediumBot.accept</text>
</a>
</g>
</g>
<!-- Node30&#45;&gt;Node33 -->
<g id="edge5" class="edge"><title>Node30&#45;&gt;Node33</title>
<path fill="none" stroke="midnightblue" d="M631.279,-64.4181C674.31,-58.7371 722.833,-52.331 764.911,-46.7757"/>
<polygon fill="midnightblue" stroke="midnightblue" points="630.785,-60.9529 621.33,-65.7317 631.702,-67.8926 630.785,-60.9529"/>
</g>
<!-- Node31&#45;&gt;Node32 -->
<g id="edge4" class="edge"><title>Node31&#45;&gt;Node32</title>
<path fill="none" stroke="midnightblue" d="M1043.27,-68.0435C1051.84,-67.4535 1060.42,-66.8625 1068.93,-66.2764"/>
<polygon fill="midnightblue" stroke="midnightblue" points="1042.96,-64.5566 1033.22,-68.7355 1043.44,-71.5401 1042.96,-64.5566"/>
</g>
<!-- Node33&#45;&gt;Node32 -->
<g id="edge6" class="edge"><title>Node33&#45;&gt;Node32</title>
<path fill="none" stroke="midnightblue" d="M1043.27,-44.0071C1051.84,-44.5726 1060.42,-45.1389 1068.93,-45.7006"/>
<polygon fill="midnightblue" stroke="midnightblue" points="1043.43,-40.5102 1033.22,-43.344 1042.97,-47.495 1043.43,-40.5102"/>
</g>
<!-- Node34&#45;&gt;Node31 -->
<g id="edge9" class="edge"><title>Node34&#45;&gt;Node31</title>
<path fill="none" stroke="midnightblue" d="M631.279,-48.1211C674.31,-53.8021 722.833,-60.2082 764.911,-65.7635"/>
<polygon fill="midnightblue" stroke="midnightblue" points="631.702,-44.6465 621.33,-46.8075 630.785,-51.5863 631.702,-44.6465"/>
</g>
<!-- Node34&#45;&gt;Node32 -->
<g id="edge11" class="edge"><title>Node34&#45;&gt;Node32</title>
<path fill="none" stroke="midnightblue" d="M620.804,-17.4999C725.771,-4.7863 891.036,8.66202 1033,-8.7696 1083.55,-14.9765 1140.05,-30.2132 1177.89,-41.6679"/>
<polygon fill="midnightblue" stroke="midnightblue" points="620.334,-14.0312 610.837,-18.7268 621.19,-20.9787 620.334,-14.0312"/>
</g>
<!-- Node34&#45;&gt;Node33 -->
<g id="edge10" class="edge"><title>Node34&#45;&gt;Node33</title>
<path fill="none" stroke="midnightblue" d="M685.109,-32.7696C693.703,-32.7696 702.321,-32.7696 710.884,-32.7696"/>
<polygon fill="midnightblue" stroke="midnightblue" points="685.036,-29.2697 675.036,-32.7696 685.036,-36.2697 685.036,-29.2697"/>
</g>
</g>
</svg>
