<?xml version="1.0" encoding="UTF-8" standalone="no"?>
<!DOCTYPE svg PUBLIC "-//W3C//DTD SVG 1.1//EN"
 "http://www.w3.org/Graphics/SVG/1.1/DTD/svg11.dtd">
<!-- Generated by graphviz version 2.38.0 (20140413.2041)
 -->
<!-- Title: de.tu_clausthal.in.bachelorproject2018.ticktacktoe.model.brett.ISpieleBrett.height Pages: 1 -->
<svg width="1384pt" height="123pt"
 viewBox="0.00 0.00 1384.00 123.00" xmlns="http://www.w3.org/2000/svg" xmlns:xlink="http://www.w3.org/1999/xlink">
<g id="graph0" class="graph" transform="scale(1 1) rotate(0) translate(4 119)">
<title>de.tu_clausthal.in.bachelorproject2018.ticktacktoe.model.brett.ISpieleBrett.height</title>
<!-- Node16 -->
<g id="node1" class="node"><title>Node16</title>
<polygon fill="#bfbfbf" stroke="black" points="0,-43.5 0,-71.5 317,-71.5 317,-43.5 0,-43.5"/>
<text text-anchor="start" x="8" y="-60.3" font-family="Helvetica,sans-Serif" font-size="9.00">de.tu_clausthal.in.bachelorproject2018.ticktacktoe.model.brett.</text>
<text text-anchor="middle" x="158.5" y="-50.3" font-family="Helvetica,sans-Serif" font-size="9.00">ISpieleBrett.height</text>
</g>
<!-- Node17 -->
<g id="node2" class="node"><title>Node17</title>
<g id="a_node2"><a xlink:href="../../d0/d60/classde_1_1tu__clausthal_1_1in_1_1bachelorproject2018_1_1ticktacktoe_1_1model_1_1player_1_1CRandomBot.htm#a68e29b68b4e55525001175a7537628ad" target="_top" xlink:title="de.tu_clausthal.in.bachelorproject2018.ticktacktoe.model.player.\lCRandomBot.accept">
<polygon fill="none" stroke="black" points="353,-43.5 353,-71.5 675,-71.5 675,-43.5 353,-43.5"/>
<text text-anchor="start" x="361" y="-60.3" font-family="Helvetica,sans-Serif" font-size="9.00">de.tu_clausthal.in.bachelorproject2018.ticktacktoe.model.player.</text>
<text text-anchor="middle" x="514" y="-50.3" font-family="Helvetica,sans-Serif" font-size="9.00">CRandomBot.accept</text>
</a>
</g>
</g>
<!-- Node16&#45;&gt;Node17 -->
<g id="edge1" class="edge"><title>Node16&#45;&gt;Node17</title>
<path fill="none" stroke="midnightblue" d="M327.167,-57.5C335.737,-57.5 344.335,-57.5 352.882,-57.5"/>
<polygon fill="midnightblue" stroke="midnightblue" points="327.124,-54.0001 317.124,-57.5 327.124,-61.0001 327.124,-54.0001"/>
</g>
<!-- Node18 -->
<g id="node3" class="node"><title>Node18</title>
<g id="a_node3"><a xlink:href="../../d5/d40/classde_1_1tu__clausthal_1_1in_1_1bachelorproject2018_1_1ticktacktoe_1_1model_1_1player_1_1CHardBot.htm#abf6ed3b27a4b8aeb27485a3c3c064528" target="_top" xlink:title="de.tu_clausthal.in.bachelorproject2018.ticktacktoe.model.player.\lCHardBot.accept">
<polygon fill="none" stroke="black" points="711,-86.5 711,-114.5 1033,-114.5 1033,-86.5 711,-86.5"/>
<text text-anchor="start" x="719" y="-103.3" font-family="Helvetica,sans-Serif" font-size="9.00">de.tu_clausthal.in.bachelorproject2018.ticktacktoe.model.player.</text>
<text text-anchor="middle" x="872" y="-93.3" font-family="Helvetica,sans-Serif" font-size="9.00">CHardBot.accept</text>
</a>
</g>
</g>
<!-- Node17&#45;&gt;Node18 -->
<g id="edge2" class="edge"><title>Node17&#45;&gt;Node18</title>
<path fill="none" stroke="midnightblue" d="M641.427,-72.7706C678.455,-77.2431 718.742,-82.1093 755.083,-86.4987"/>
<polygon fill="midnightblue" stroke="midnightblue" points="641.423,-69.2448 631.075,-71.5203 640.583,-76.1943 641.423,-69.2448"/>
</g>
<!-- Node19 -->
<g id="node4" class="node"><title>Node19</title>
<g id="a_node4"><a xlink:href="../../d8/d52/classde_1_1tu__clausthal_1_1in_1_1bachelorproject2018_1_1ticktacktoe_1_1controller_1_1CSpielebrettController.htm#a9566e9c3e6da6ec5f9eb5b89a2a1b2b2" target="_top" xlink:title="de.tu_clausthal.in.bachelorproject2018.ticktacktoe.controller.\lCSpielebrettController.set">
<polygon fill="none" stroke="black" points="1069,-43.5 1069,-71.5 1376,-71.5 1376,-43.5 1069,-43.5"/>
<text text-anchor="start" x="1077" y="-60.3" font-family="Helvetica,sans-Serif" font-size="9.00">de.tu_clausthal.in.bachelorproject2018.ticktacktoe.controller.</text>
<text text-anchor="middle" x="1222.5" y="-50.3" font-family="Helvetica,sans-Serif" font-size="9.00">CSpielebrettController.set</text>
</a>
</g>
</g>
<!-- Node17&#45;&gt;Node19 -->
<g id="edge6" class="edge"><title>Node17&#45;&gt;Node19</title>
<path fill="none" stroke="midnightblue" d="M685.436,-57.5C802.272,-57.5 955.939,-57.5 1068.78,-57.5"/>
<polygon fill="midnightblue" stroke="midnightblue" points="685.316,-54.0001 675.316,-57.5 685.316,-61.0001 685.316,-54.0001"/>
</g>
<!-- Node20 -->
<g id="node5" class="node"><title>Node20</title>
<g id="a_node5"><a xlink:href="../../de/d85/classde_1_1tu__clausthal_1_1in_1_1bachelorproject2018_1_1ticktacktoe_1_1model_1_1player_1_1CMediumBot.htm#a8b431ea082074110bef61bf64cbd154e" target="_top" xlink:title="de.tu_clausthal.in.bachelorproject2018.ticktacktoe.model.player.\lCMediumBot.accept">
<polygon fill="none" stroke="black" points="711,-0.5 711,-28.5 1033,-28.5 1033,-0.5 711,-0.5"/>
<text text-anchor="start" x="719" y="-17.3" font-family="Helvetica,sans-Serif" font-size="9.00">de.tu_clausthal.in.bachelorproject2018.ticktacktoe.model.player.</text>
<text text-anchor="middle" x="872" y="-7.3" font-family="Helvetica,sans-Serif" font-size="9.00">CMediumBot.accept</text>
</a>
</g>
</g>
<!-- Node17&#45;&gt;Node20 -->
<g id="edge4" class="edge"><title>Node17&#45;&gt;Node20</title>
<path fill="none" stroke="midnightblue" d="M641.427,-42.2294C678.455,-37.7569 718.742,-32.8907 755.083,-28.5013"/>
<polygon fill="midnightblue" stroke="midnightblue" points="640.583,-38.8057 631.075,-43.4797 641.423,-45.7552 640.583,-38.8057"/>
</g>
<!-- Node18&#45;&gt;Node19 -->
<g id="edge3" class="edge"><title>Node18&#45;&gt;Node19</title>
<path fill="none" stroke="midnightblue" d="M996.763,-85.2294C1033.01,-80.7569 1072.45,-75.8907 1108.02,-71.5013"/>
<polygon fill="midnightblue" stroke="midnightblue" points="996.126,-81.7814 986.63,-86.4797 996.983,-88.7287 996.126,-81.7814"/>
</g>
<!-- Node20&#45;&gt;Node19 -->
<g id="edge5" class="edge"><title>Node20&#45;&gt;Node19</title>
<path fill="none" stroke="midnightblue" d="M996.763,-29.7706C1033.01,-34.2431 1072.45,-39.1093 1108.02,-43.4987"/>
<polygon fill="midnightblue" stroke="midnightblue" points="996.983,-26.2713 986.63,-28.5203 996.126,-33.2186 996.983,-26.2713"/>
</g>
</g>
</svg>
